<?xml version="1.0" encoding="utf-8"?>
<!-- Generator: Adobe Illustrator 22.1.0, SVG Export Plug-In . SVG Version: 6.00 Build 0)  -->
<svg version="1.1" id="Calque_1" xmlns="http://www.w3.org/2000/svg" xmlns:xlink="http://www.w3.org/1999/xlink" x="0px" y="0px"
	 viewBox="0 0 1252.3 208.8" style="enable-background:new 0 0 1252.3 208.8;" xml:space="preserve">
<style type="text/css">
	.st0{fill:#173E6C;}
</style>
<g>
	<g>
		<path class="st0" d="M327.8,11.6l-37.4,65h-39.3l-46.4,80.5H244l-29.8,51.7H311c24.7-30.2,39.6-68.8,39.6-110.9
			C350.5,66.5,342.2,37,327.8,11.6z"/>
		<path class="st0" d="M136.3,208.8L136.3,208.8L136.3,208.8L136.3,208.8L256.5,0H154.8L85.5,120.4l-62.7-109C8.3,37,0,66.4,0,97.9
			c0,42.1,14.8,80.7,39.6,110.9L136.3,208.8L136.3,208.8z"/>
	</g>
	<g>
		<path class="st0" d="M384.2,66.3c0-42,20.9-62.2,55.2-62.2c34.4,0,55.2,20.2,55.2,62.2c0,41.6-20.9,62-55.2,62
			C405.1,128.3,384.2,107.9,384.2,66.3z M396.6,66.3c0,34.5,15.8,51,42.8,51c27.1,0,42.8-16.5,42.8-51c0-34.7-15.8-51.2-42.8-51.2
			C412.4,15.1,396.6,31.6,396.6,66.3z"/>
		<path class="st0" d="M589.5,9.1c0.5-1.4,2.3-3.9,5.7-3.9c3.4,0,6,2.7,6,6c0,1.1-0.4,2.1-0.5,2.7l-41.4,109.2
			c-0.9,2.5-3.4,4.1-5.7,4.1s-4.8-1.6-5.7-4.1L506.4,13.9c-0.2-0.5-0.5-1.6-0.5-2.7c0-3.4,2.7-6,6-6c3.4,0,5.1,2.5,5.7,3.9
			l35.9,95.3L589.5,9.1z"/>
		<path class="st0" d="M630.7,70.2v51c0,3.2-2.7,6-6,6s-6-2.8-6-6v-110c0-3.2,2.7-6,6-6s6,2.8,6,6v48h61.6v-48c0-3.2,2.7-6,6-6
			c3.4,0,6,2.8,6,6v110c0,3.2-2.7,6-6,6c-3.4,0-6-2.8-6-6v-51H630.7z"/>
	</g>
</g>
<g>
	<path class="st0" d="M403.6,146.6c15.1,0,24.4,8.1,24.4,30.4c0,22.3-9.3,30.3-24.4,30.3h-11.1c-1.5,0-2.7-1.4-2.7-3.1v-54.5
		c0-1.7,1.2-3.1,2.7-3.1H403.6z M395.1,201.7h8.5c11.8,0,19-5.9,19-24.7c0-18.6-7.2-24.8-19-24.8h-8.5V201.7z"/>
	<path class="st0" d="M450.5,165.1c12.6,0,15.1,11.4,15.1,17.6c0,2.6,0,5.8-3.2,5.8h-23.1c0,8.9,4.5,14.7,11.9,14.7
		c4.6,0,7.3-2,9.5-3.9c0.5-0.4,0.8-0.5,1.4-0.5c1.3,0,2.3,1.2,2.3,2.6c0,1-0.4,1.5-0.9,2.1c-1.2,1.4-5.3,5-12.3,5
		c-10.5,0-17.1-6.6-17.1-21.7C434.2,172.8,440.2,165.1,450.5,165.1z M450.5,170.3c-6.9,0-10.7,5-11.1,13.1h21.3
		C460.6,176.9,458.7,170.3,450.5,170.3z"/>
	<path class="st0" d="M497.3,146v51.4c0,3.6,1,5.1,3.2,5.1c1.3,0,2.4,1.2,2.4,2.7c0,1.5-1.1,2.7-2.4,2.7c-5.3,0-8.2-3.6-8.2-10.5
		V146c0-1.5,1.2-2.9,2.5-2.9C496.2,143.1,497.3,144.5,497.3,146z"/>
	<path class="st0" d="M513.2,148.3l-0.7,15.5c-0.1,1-0.6,1.5-1.5,1.5s-1.4-0.5-1.5-1.5l-0.7-15.5c-0.1-1.4,0.6-2.4,2.2-2.4
		C512.6,145.9,513.3,146.9,513.2,148.3z"/>
	<path class="st0" d="M522.3,153.7c0-2.6,1.1-3.6,3-3.6c1.9,0,3,1,3,3.6c0,2.2-1.1,3.4-3,3.4C523.4,157.2,522.3,155.9,522.3,153.7z
		 M527.8,205.1c0,1.6-1.1,2.9-2.5,2.9c-1.4,0-2.5-1.3-2.5-2.9v-36.6c0-1.6,1.1-2.9,2.5-2.9c1.4,0,2.5,1.3,2.5,2.9V205.1z"/>
	<path class="st0" d="M568.2,181v24.1c0,1.6-1.1,2.9-2.5,2.9c-1.4,0-2.5-1.3-2.5-2.9v-22.9c0-7.1-1.8-12-9.5-12
		c-7.8,0-10.5,5.4-10.5,12.6v22.3c0,1.6-1.1,2.9-2.5,2.9c-1.4,0-2.5-1.3-2.5-2.9v-36.6c0-1.6,1.1-2.9,2.5-2.9c1.4,0,2.5,1.3,2.5,2.9
		v2.9c1.5-3.4,5.4-6.3,10.5-6.3C565.8,165.1,568.2,173.4,568.2,181z"/>
	<path class="st0" d="M607.8,181v24.1c0,1.6-1.1,2.9-2.5,2.9c-1.4,0-2.5-1.3-2.5-2.9v-22.9c0-7.1-1.8-12-9.5-12
		c-7.8,0-10.5,5.4-10.5,12.6v22.3c0,1.6-1.1,2.9-2.5,2.9c-1.4,0-2.5-1.3-2.5-2.9v-36.6c0-1.6,1.1-2.9,2.5-2.9c1.4,0,2.5,1.3,2.5,2.9
		v2.9c1.5-3.4,5.4-6.3,10.5-6.3C605.4,165.1,607.8,173.4,607.8,181z"/>
	<path class="st0" d="M648.1,186.7c0,14.8-6.3,21.7-16.6,21.7c-10.2,0-16.6-6.9-16.6-21.7s6.4-21.6,16.6-21.6
		C641.7,165.1,648.1,171.9,648.1,186.7z M642.9,186.7c0-11.4-4.2-16.4-11.5-16.4s-11.5,5-11.5,16.4c0,11.5,4.2,16.5,11.5,16.5
		S642.9,198.2,642.9,186.7z"/>
	<path class="st0" d="M664.6,206.2l-13.4-36.4c-0.1-0.3-0.2-0.6-0.2-1.3c0-1.6,1.1-2.9,2.5-2.9c1.4,0,2.1,1,2.4,1.9l11.1,31.1
		l11.1-31.1c0.3-0.9,0.9-1.9,2.4-1.9c1.4,0,2.5,1.3,2.5,2.9c0,0.6-0.2,1-0.2,1.3l-13.4,36.4c-0.5,1.2-1.3,1.8-2.4,1.8
		S665,207.3,664.6,206.2z"/>
	<path class="st0" d="M693.4,175.1c-0.8,1-1.3,1.3-2.1,1.3c-1.3,0-2.3-1.2-2.3-2.6c0-0.6,0.2-1.1,0.4-1.5c2.2-4,6.5-7.1,13.1-7.1
		c9.2,0,14.2,6.1,14.2,15.3v24.8c0,1.5-1.1,2.8-2.5,2.8c-1.3,0-2.4-1.3-2.4-2.8v-3.2c-2,4.2-6.6,6.5-11.3,6.5
		c-8.4,0-13.7-4.6-13.7-12.9c0-7.9,5.3-12.7,13.8-12.7h11.1v-2.4c0-6.1-3.6-9.9-9.3-9.9C698.4,170.5,695.9,171.9,693.4,175.1z
		 M711.9,191.7v-3.8h-11.1c-5.1,0-8.7,2.4-8.7,7.7c0,4.7,2.8,7.7,9,7.7C706.6,203.2,711.9,199.3,711.9,191.7z"/>
	<path class="st0" d="M728.3,156.9c0-1.5,1.2-2.9,2.5-2.9c1.4,0,2.5,1.4,2.5,2.9v9.5h5.1c1.3,0,2.4,1.2,2.4,2.7c0,1.5-1,2.7-2.4,2.7
		h-5.1v24.9c0,3.9,1.9,5.9,4.6,5.9c1.3,0,2.5,1.2,2.5,2.7c0,1.5-1.1,2.7-2.5,2.7c-6.2,0-9.6-4.8-9.6-11.4v-24.9h-3.1
		c-1.3,0-2.4-1.2-2.4-2.7c0-1.5,1-2.7,2.4-2.7h3.1V156.9z"/>
	<path class="st0" d="M747.8,153.7c0-2.6,1.1-3.6,3-3.6c1.9,0,3,1,3,3.6c0,2.2-1.1,3.4-3,3.4C748.9,157.2,747.8,155.9,747.8,153.7z
		 M753.3,205.1c0,1.6-1.1,2.9-2.5,2.9c-1.4,0-2.5-1.3-2.5-2.9v-36.6c0-1.6,1.1-2.9,2.5-2.9c1.4,0,2.5,1.3,2.5,2.9V205.1z"/>
	<path class="st0" d="M794.4,186.7c0,14.8-6.3,21.7-16.6,21.7c-10.2,0-16.6-6.9-16.6-21.7s6.4-21.6,16.6-21.6
		C788.1,165.1,794.4,171.9,794.4,186.7z M789.3,186.7c0-11.4-4.2-16.4-11.5-16.4s-11.5,5-11.5,16.4c0,11.5,4.2,16.5,11.5,16.5
		S789.3,198.2,789.3,186.7z"/>
	<path class="st0" d="M832.4,181v24.1c0,1.6-1.1,2.9-2.5,2.9c-1.4,0-2.5-1.3-2.5-2.9v-22.9c0-7.1-1.8-12-9.5-12
		c-7.8,0-10.5,5.4-10.5,12.6v22.3c0,1.6-1.1,2.9-2.5,2.9c-1.4,0-2.5-1.3-2.5-2.9v-36.6c0-1.6,1.1-2.9,2.5-2.9c1.4,0,2.5,1.3,2.5,2.9
		v2.9c1.5-3.4,5.4-6.3,10.5-6.3C830,165.1,832.4,173.4,832.4,181z"/>
	<path class="st0" d="M890.8,181v24.1c0,1.6-1.1,2.9-2.5,2.9c-1.4,0-2.5-1.3-2.5-2.9v-22.9c0-7.1-1.8-12-9.5-12
		c-7.8,0-10.5,5.4-10.5,12.6v22.3c0,1.6-1.1,2.9-2.5,2.9c-1.4,0-2.5-1.3-2.5-2.9v-36.6c0-1.6,1.1-2.9,2.5-2.9c1.4,0,2.5,1.3,2.5,2.9
		v2.9c1.5-3.4,5.4-6.3,10.5-6.3C888.4,165.1,890.8,173.4,890.8,181z"/>
	<path class="st0" d="M904.3,175.1c-0.8,1-1.3,1.3-2.1,1.3c-1.3,0-2.3-1.2-2.3-2.6c0-0.6,0.2-1.1,0.4-1.5c2.2-4,6.5-7.1,13.1-7.1
		c9.2,0,14.2,6.1,14.2,15.3v24.8c0,1.5-1.1,2.8-2.5,2.8c-1.3,0-2.4-1.3-2.4-2.8v-3.2c-2,4.2-6.6,6.5-11.3,6.5
		c-8.4,0-13.7-4.6-13.7-12.9c0-7.9,5.3-12.7,13.8-12.7h11.1v-2.4c0-6.1-3.6-9.9-9.3-9.9C909.3,170.5,906.8,171.9,904.3,175.1z
		 M922.8,191.7v-3.8h-11.1c-5.1,0-8.7,2.4-8.7,7.7c0,4.7,2.8,7.7,9,7.7C917.5,203.2,922.8,199.3,922.8,191.7z"/>
	<path class="st0" d="M939.6,153.6l-6.4,6.1c-0.2,0.2-0.6,0.5-1.3,0.5c-1,0-1.9-1-1.9-2.2c0-0.7,0.2-1.3,0.7-1.7l7.6-7.1
		c0.3-0.3,0.6-0.5,1.3-0.5c0.6,0,0.9,0.3,1.3,0.5l7.6,7.1c0.5,0.5,0.7,1,0.7,1.7c0,1.2-0.9,2.2-1.9,2.2c-0.7,0-1.1-0.4-1.3-0.5
		L939.6,153.6z M942.2,205.1c0,1.6-1.1,2.9-2.5,2.9c-1.4,0-2.5-1.3-2.5-2.9v-36.6c0-1.6,1.1-2.9,2.5-2.9c1.4,0,2.5,1.3,2.5,2.9
		V205.1z"/>
	<path class="st0" d="M954.4,156.9c0-1.5,1.2-2.9,2.5-2.9c1.4,0,2.5,1.4,2.5,2.9v9.5h5.1c1.3,0,2.4,1.2,2.4,2.7c0,1.5-1,2.7-2.4,2.7
		h-5.1v24.9c0,3.9,1.9,5.9,4.6,5.9c1.3,0,2.5,1.2,2.5,2.7c0,1.5-1.1,2.7-2.5,2.7c-6.2,0-9.6-4.8-9.6-11.4v-24.9h-3.1
		c-1.3,0-2.4-1.2-2.4-2.7c0-1.5,1-2.7,2.4-2.7h3.1V156.9z"/>
	<path class="st0" d="M998.3,146v51.4c0,3.6,1,5.1,3.2,5.1c1.3,0,2.4,1.2,2.4,2.7c0,1.5-1.1,2.7-2.4,2.7c-5.3,0-8.2-3.6-8.2-10.5
		V146c0-1.5,1.2-2.9,2.5-2.9C997.2,143.1,998.3,144.5,998.3,146z"/>
	<path class="st0" d="M1014.6,175.1c-0.8,1-1.3,1.3-2.1,1.3c-1.3,0-2.3-1.2-2.3-2.6c0-0.6,0.2-1.1,0.4-1.5c2.2-4,6.5-7.1,13.1-7.1
		c9.2,0,14.2,6.1,14.2,15.3v24.8c0,1.5-1.1,2.8-2.5,2.8c-1.3,0-2.4-1.3-2.4-2.8v-3.2c-2,4.2-6.6,6.5-11.3,6.5
		c-8.4,0-13.7-4.6-13.7-12.9c0-7.9,5.3-12.7,13.8-12.7h11.1v-2.4c0-6.1-3.6-9.9-9.3-9.9C1019.6,170.5,1017.1,171.9,1014.6,175.1z
		 M1033.1,191.7v-3.8H1022c-5.1,0-8.7,2.4-8.7,7.7c0,4.7,2.8,7.7,9,7.7C1027.8,203.2,1033.1,199.3,1033.1,191.7z"/>
	<path class="st0" d="M1071.3,146v51.4c0,3.6,1,5.1,3.2,5.1c1.3,0,2.4,1.2,2.4,2.7c0,1.5-1.1,2.7-2.4,2.7c-5.3,0-8.2-3.6-8.2-10.5
		V146c0-1.5,1.2-2.9,2.5-2.9C1070.2,143.1,1071.3,144.5,1071.3,146z"/>
	<path class="st0" d="M1083,153.7c0-2.6,1.1-3.6,3-3.6c1.9,0,3,1,3,3.6c0,2.2-1.1,3.4-3,3.4C1084.1,157.2,1083,155.9,1083,153.7z
		 M1088.6,205.1c0,1.6-1.1,2.9-2.5,2.9c-1.4,0-2.5-1.3-2.5-2.9v-36.6c0-1.6,1.1-2.9,2.5-2.9c1.4,0,2.5,1.3,2.5,2.9V205.1z"/>
	<path class="st0" d="M1130.5,186.7c0,14.8-6,21.7-16.2,21.7c-9,0-15.5-5.9-15.5-17.7V146c0-1.6,1.1-2.9,2.5-2.9
		c1.4,0,2.5,1.3,2.5,2.9v25c1.8-2.9,5.7-5.9,10.7-5.9C1124.8,165.1,1130.5,171.9,1130.5,186.7z M1103.9,190.7
		c0,8.6,4.3,12.5,10.4,12.5c7.3,0,11.1-5.2,11.1-16.5c0-11.1-4-16.4-11.1-16.4c-7.4,0-10.4,7.9-10.4,7.9V190.7z"/>
	<path class="st0" d="M1152.3,165.1c12.6,0,15.1,11.4,15.1,17.6c0,2.6,0,5.8-3.2,5.8h-23.1c0,8.9,4.5,14.7,11.9,14.7
		c4.6,0,7.3-2,9.5-3.9c0.5-0.4,0.8-0.5,1.4-0.5c1.3,0,2.3,1.2,2.3,2.6c0,1-0.4,1.5-0.9,2.1c-1.2,1.4-5.3,5-12.3,5
		c-10.5,0-17.1-6.6-17.1-21.7C1136.1,172.8,1142.1,165.1,1152.3,165.1z M1152.3,170.3c-6.9,0-10.7,5-11.1,13.1h21.3
		C1162.5,176.9,1160.5,170.3,1152.3,170.3z"/>
	<path class="st0" d="M1180.3,172.5c1.6-4.1,5.5-7.2,11-7.2c1.3,0,2.5,1.3,2.5,2.8s-1.1,2.8-2.5,2.8c-7.3,0-11,5.8-11,14.1v20.2
		c0,1.6-1.1,2.9-2.5,2.9c-1.4,0-2.5-1.3-2.5-2.9v-36.6c0-1.6,1.1-2.9,2.5-2.9c1.4,0,2.5,1.3,2.5,2.9V172.5z"/>
	<path class="st0" d="M1203.2,156.9c0-1.5,1.2-2.9,2.5-2.9c1.4,0,2.5,1.4,2.5,2.9v9.5h5.1c1.3,0,2.4,1.2,2.4,2.7
		c0,1.5-1,2.7-2.4,2.7h-5.1v24.9c0,3.9,1.9,5.9,4.6,5.9c1.3,0,2.5,1.2,2.5,2.7c0,1.5-1.1,2.7-2.5,2.7c-6.2,0-9.6-4.8-9.6-11.4v-24.9
		h-3.1c-1.3,0-2.4-1.2-2.4-2.7c0-1.5,1-2.7,2.4-2.7h3.1V156.9z"/>
	<path class="st0" d="M1237.2,165.1c12.6,0,15.1,11.4,15.1,17.6c0,2.6,0,5.8-3.2,5.8h-23.1c0,8.9,4.5,14.7,11.9,14.7
		c4.6,0,7.3-2,9.5-3.9c0.5-0.4,0.8-0.5,1.4-0.5c1.3,0,2.3,1.2,2.3,2.6c0,1-0.4,1.5-0.9,2.1c-1.2,1.4-5.3,5-12.3,5
		c-10.5,0-17.1-6.6-17.1-21.7C1220.9,172.8,1226.9,165.1,1237.2,165.1z M1237.2,170.3c-6.9,0-10.7,5-11.1,13.1h21.3
		C1247.3,176.9,1245.3,170.3,1237.2,170.3z M1233,157.7l7-9.7c0.6-0.9,1.7-1.3,3,0c1.2,1.3,1.1,2.4,0.2,3.4l-7.7,8.8
		c-0.7,0.8-1.4,1.1-2.4,0.2C1232.3,159.5,1232.5,158.5,1233,157.7z"/>
</g>
</svg>
