<svg xmlns="http://www.w3.org/2000/svg" xmlns:xlink="http://www.w3.org/1999/xlink" viewBox="0 0 18 18"><defs><style>.cls-1,.cls-3{fill:none;}.cls-2{clip-path:url(#clip-path);}.cls-3{stroke:#fff;stroke-linecap:round;stroke-linejoin:round;}</style><clipPath id="clip-path" transform="translate(0 0)"><rect class="cls-1" width="18" height="18"/></clipPath></defs><title>brandLinkedin_20px-bkg-dark</title><g id="Calque_2" data-name="Calque 2"><g id="illus_enterprise"><g id="brandLinkedin_20px-bkg-dark"><g class="cls-2"><g class="cls-2"><path class="cls-3" d="M16.24.5H1.76A1.24,1.24,0,0,0,.5,1.73V16.27A1.24,1.24,0,0,0,1.76,17.5H16.24a1.24,1.24,0,0,0,1.26-1.23V1.73A1.24,1.24,0,0,0,16.24.5Z" transform="translate(0 0)"/><path class="cls-3" d="M3,6.87H5.54V15H3Zm1.26-4A1.46,1.46,0,1,1,2.82,4.3,1.46,1.46,0,0,1,4.28,2.84" transform="translate(0 0)"/><path class="cls-3" d="M7.12,6.87H9.54V8h0A2.62,2.62,0,0,1,12,6.67c2.55,0,3,1.68,3,3.87V15H12.47V11c0-.94,0-2.15-1.31-2.15S9.64,9.91,9.64,11v4H7.12Z" transform="translate(0 0)"/></g></g></g></g></g></svg>