<svg xmlns="http://www.w3.org/2000/svg" xmlns:xlink="http://www.w3.org/1999/xlink" viewBox="0 0 20 14.36"><defs><style>.cls-1,.cls-3{fill:none;}.cls-2{clip-path:url(#clip-path);}.cls-3{stroke:#fff;stroke-linejoin:round;}</style><clipPath id="clip-path" transform="translate(0 0)"><rect class="cls-1" width="20" height="14.36"/></clipPath></defs><title>brandYoutube_20px-bkg-dark</title><g id="Calque_2" data-name="Calque 2"><g id="illus_enterprise"><g id="brandYoutube_20px-bkg-dark"><g class="cls-2"><g class="cls-2"><path class="cls-3" d="M19.31,3.38a4.09,4.09,0,0,0-.76-1.88,2.73,2.73,0,0,0-1.9-.81C14,.5,10,.5,10,.5h0S6,.5,3.35.69a2.73,2.73,0,0,0-1.9.81A4.09,4.09,0,0,0,.69,3.38,28.83,28.83,0,0,0,.5,6.46V7.9A28.52,28.52,0,0,0,.69,11a4.16,4.16,0,0,0,.76,1.89,3.19,3.19,0,0,0,2.09.81c1.52.15,6.46.19,6.46.19s4,0,6.65-.19a2.73,2.73,0,0,0,1.9-.81A4.16,4.16,0,0,0,19.31,11,28.52,28.52,0,0,0,19.5,7.9V6.46A28.83,28.83,0,0,0,19.31,3.38ZM8,9.65V4.31L13.17,7Z" transform="translate(0 0)"/></g></g></g></g></g></svg>