<svg xmlns="http://www.w3.org/2000/svg" xmlns:xlink="http://www.w3.org/1999/xlink" viewBox="0 0 18 18"><defs><style>.cls-1,.cls-3{fill:none;}.cls-2{clip-path:url(#clip-path);}.cls-3{stroke:#fff;stroke-linecap:round;stroke-linejoin:round;}</style><clipPath id="clip-path" transform="translate(0 0)"><rect class="cls-1" width="18" height="18"/></clipPath></defs><title>brandFacebook_20px-bkg-dark</title><g id="Calque_2" data-name="Calque 2"><g id="illus_enterprise"><g id="brandFacebook_20px-bkg-dark"><g class="cls-2"><g class="cls-2"><path class="cls-3" d="M16.56.5H1.44a.94.94,0,0,0-.94.94V16.56a.94.94,0,0,0,.94.94H9.58V10.92H7.36V8.35H9.58V6.46a3.09,3.09,0,0,1,3.3-3.39,18.69,18.69,0,0,1,2,.1V5.46H13.5c-1.06,0-1.27.51-1.27,1.25V8.35h2.54l-.33,2.57H12.23V17.5h4.33a.94.94,0,0,0,.94-.94V1.44A.94.94,0,0,0,16.56.5Z" transform="translate(0 0)"/></g></g></g></g></g></svg>