<svg xmlns="http://www.w3.org/2000/svg" xmlns:xlink="http://www.w3.org/1999/xlink" width="31.508" height="25.67" viewBox="0 0 31.508 25.67">
  <defs>
    <clipPath id="clip-path">
      <path id="Tracé_39" data-name="Tracé 39" d="M31.508-24.929a11.156,11.156,0,0,1-3.6.985,6.892,6.892,0,0,0,2.708-3.486,10.624,10.624,0,0,1-4.027,1.4h0A6.5,6.5,0,0,0,19.426-27.6a6.5,6.5,0,0,0-4.066,6.1,6.331,6.331,0,0,0,.167,1.447h0A17.959,17.959,0,0,1,2.127-26.8,6.508,6.508,0,0,0,4.1-18.2a4.234,4.234,0,0,1-2.846-.738,6.262,6.262,0,0,0,5.022,6.351,5.12,5.12,0,0,1-2.708.207c.207,1.91,2.885,4.411,5.809,4.411C8.33-6.763,4.45-4.577,0-5.276A19.525,19.525,0,0,0,10.171-2.4,18.048,18.048,0,0,0,23.366-7.963a18.048,18.048,0,0,0,4.991-13.421V-21.6a11.106,11.106,0,0,0,3.151-3.328Z" transform="translate(0 28.071)" fill="none" clip-rule="evenodd"/>
    </clipPath>
    <clipPath id="clip-path-2">
      <path id="Tracé_38" data-name="Tracé 38" d="M0-.492H31.508V-32H0Z" transform="translate(0 32)" fill="none"/>
    </clipPath>
  </defs>
  <g id="Groupe_29" data-name="Groupe 29" clip-path="url(#clip-path)">
    <g id="Groupe_28" data-name="Groupe 28" transform="translate(0 -3.869)" clip-path="url(#clip-path-2)">
      <path id="Tracé_37" data-name="Tracé 37" d="M-5-33.071H36.354V2.446H-5Z" transform="translate(0.077 32.016)" fill="#fff"/>
    </g>
  </g>
</svg>
