<svg xmlns="http://www.w3.org/2000/svg" width="32" height="32" viewBox="0 0 32 32">
  <g fill="none" fill-rule="evenodd">
    <circle cx="16" cy="16" r="16" fill="#FFF"/>
    <path fill="#000E9C" d="M23.9388,28.57512 L23.95,28.6 C23.96,28.67 23.87,28.67 23.87,28.67 L23.87,28.67 L23.87,28.61 L23.8812,28.60608 C23.902,28.5904 23.942,28.544 23.95,28.6 Z M25.045,27.1542833 L25.08,27.16 L25.1014577,27.1812536 C25.1285714,27.2242857 25.0685714,27.2757143 25.06,27.43 L25.06,27.43 L25.0640408,27.47 L25.0640408,27.47 L25.06,27.51 L25.0232812,27.5389063 C24.988125,27.5675 24.96,27.5975 24.96,27.65 C24.96,27.72 24.85,27.79 24.85,27.79 L24.85,27.79 L24.69,27.79 C24.6714359,27.779282 24.6485641,27.779282 24.63,27.79 C24.6048215,27.8083422 24.5842756,27.8323124 24.57,27.86 L24.57,27.86 L24.57,28 C24.5751667,28.0230473 24.5751667,28.0469527 24.57,28.07 L24.57,28.07 L24.57,28.13 L24.52,28.2 L24.4522741,28.2333236 C24.3116327,28.29 24.15,28.29 24.15,28.29 C24.1314359,28.279282 24.1085641,28.279282 24.09,28.29 L24.09,28.29 L24.02,28.29 L23.98416,28.26072 C23.9304,28.23 23.86,28.23 23.86,28.23 L23.86,28.23 L23.8610937,28.1821875 C23.875625,28.138125 23.9225,28.1025 23.93,28.05 C23.94,27.98 24.13,27.9 24.19,27.81 C24.2023955,27.7858892 24.2240492,27.7678445 24.25,27.76 L24.25,27.76 L24.36,27.7 L24.57,27.7 L24.6211562,27.668914 C24.6529446,27.6449493 24.6798097,27.6147723 24.7,27.58 L24.7,27.58 L24.75,27.49 L24.75,27.44 C24.7622343,27.3973488 24.7865446,27.3591469 24.82,27.33 C24.93,27.25 24.84,27.23 24.93,27.16 L24.93,27.16 L25.01,27.16 L25.045,27.1542833 L25.045,27.1542833 Z M19.14,27.08 C19.18,27.07 19.36,27.18 19.48,27.18 L19.48,27.18 L19.547,27.162 L19.5544014,27.1848825 C19.5612602,27.2102061 19.5668371,27.2358597 19.5711107,27.2617453 L19.58,27.34 C19.5817174,27.3599631 19.5817174,27.3800369 19.58,27.4 L19.58,27.4 L19.58,27.48 C19.5850197,27.5198425 19.5850197,27.5601575 19.58,27.6 L19.58,27.6 L19.54936,27.6192 C19.5084,27.632 19.47,27.6 19.47,27.6 L19.47,27.6 L19.47,27.6590625 L19.47,27.6590625 L19.4575,27.6946875 C19.44625,27.72 19.435,27.72 19.39,27.72 C19.2882771,27.6753833 19.2015052,27.602495 19.14,27.51 C19.1367172,27.4867821 19.1367172,27.4632179 19.14,27.44 L19.14,27.44 L19.17072,27.40936 C19.1912,27.3604 19.14,27.282 19.14,27.21 L19.14,27.21 L19.14,27.16 C19.14,27.08 19.1,27.09 19.14,27.08 Z M19.122,27.448 L19.1044444,27.4577778 C19.1044444,27.4577778 19.1066667,27.4566667 19.11,27.455 L19.122,27.448 Z M19.14,27.44 L19.1344444,27.4427778 L19.122,27.448 L19.14,27.44 L19.14,27.44 Z M19.76,27.11 L19.69,27.11 L19.5872616,27.1517848 L19.5872616,27.1517848 L19.547,27.162 L19.53,27.11 L19.53,27.11 C19.53,27.11 19.79,27.1 19.76,27.11 Z M26.14,26.39 L26.14,26.49 L26.095,26.4830909 L26.095,26.4830909 L26.05,26.49 L26.0423745,26.5231153 C26.0398327,26.5455556 26.0423745,26.5684319 26.05,26.59 C26.0546785,26.6097264 26.0546785,26.6302736 26.05,26.65 L26.05,26.65 L26.01984,26.70952 C25.9792,26.794 25.936,26.89 25.88,26.89 L25.88,26.89 L25.75,26.89 C25.7305887,26.8968629 25.7094113,26.8968629 25.69,26.89 C25.68,26.87 25.76,26.8 25.76,26.72 C25.7643353,26.696868 25.7643353,26.673132 25.76,26.65 L25.76,26.65 L25.7213889,26.6215278 C25.645,26.5694444 25.52,26.5 25.52,26.5 L25.52,26.5 L25.58,26.5 C25.605,26.48 25.6325,26.4775 25.65375,26.46375 L25.668,26.449 L25.72,26.45 C25.7432447,26.4471236 25.7666223,26.4456854 25.79,26.4456854 L25.86,26.45 L25.9009848,26.4178635 C25.9307432,26.4002527 25.9648308,26.3905009 26,26.39 L26,26.39 L26,26.4490625 L26,26.4490625 L26.0108514,26.4137348 L26.0108514,26.4137348 L26.01,26.389 L26.14,26.39 L26.14,26.39 Z M25.592,25.962 L25.58,25.94 C25.5999746,25.9925933 25.6393388,26.035536 25.69,26.06 C25.74,26.06 25.69,26.23 25.69,26.36 C25.69,26.4033333 25.6833333,26.4288889 25.6725926,26.4451852 L25.668,26.449 L25.6326808,26.4232319 C25.6118603,26.4011394 25.5997608,26.3715004 25.6,26.34 C25.6106842,26.3075228 25.6142456,26.2733333 25.6106842,26.2397146 L25.6,26.19 L25.6,26.19 C25.5885618,26.1576479 25.5885618,26.1223521 25.6,26.09 C25.6128343,26.0613727 25.6128343,26.0286273 25.6,26 L25.592216,25.9702525 L25.592216,25.9702525 L25.592,25.962 Z M26,26.34 L26.0108514,26.3762652 L26.0108514,26.3762652 L26.01,26.389 L26,26.39 C25.9961619,26.3735543 25.9961619,26.3564457 26,26.34 Z M17.9032,20.86992 C17.9448,20.8904 17.98,20.98 18.06,20.98 C18.1919168,20.995208 18.3203579,21.0323883 18.44,21.09 L18.44,21.09 L18.46192,21.11304 C18.4952,21.1284 18.54,21.09 18.54,21.09 L18.54,21.09 L18.56736,21.11184 C18.5936,21.1448 18.584,21.188 18.6,21.18 C18.62,21.17 18.59,21.09 18.67,21.1 C18.75,21.11 18.75,21.17 18.75,21.17 L18.75,21.17 L18.7567544,21.2 L18.7567544,21.2 L18.75,21.23 L18.67,21.23 C18.73,21.29 18.74,21.35 18.67,21.4 L18.67,21.4 L18.64216,21.42928 C18.6156,21.46 18.63,21.46 18.67,21.46 C18.7214506,21.4866232 18.7633768,21.5285494 18.79,21.58 L18.79,21.58 L18.8394707,21.5654495 C18.8733333,21.5605993 18.9082545,21.5654495 18.94,21.58 C19.04,21.66 19.08,21.75 19.14,21.74 C19.2,21.73 19.32,21.78 19.32,21.82 C19.32,21.86 19.36,21.92 19.43,21.92 L19.43,21.92 L19.4663254,21.9300054 C19.4911111,21.9333405 19.5165794,21.9300054 19.54,21.92 L19.54,21.92 L19.604,21.919 L19.61,21.839 L19.6092726,21.815 L19.6092726,21.815 L19.61,21.795 L19.61,21.704 L19.614196,21.66 L19.614196,21.66 L19.61,21.614 L19.61,21.639 L19.6053835,21.615 L19.6053835,21.615 L19.609,21.596 L19.61,21.61 L19.61,21.61 L19.61,21.589 L19.6169859,21.535 L19.6169859,21.535 L19.61,21.48 L19.6378099,21.4295448 C19.6595468,21.3979926 19.6874332,21.370899 19.72,21.35 L19.72,21.35 L19.7226522,21.41 L19.7226522,21.41 L19.72,21.47 L19.7119631,21.515 L19.7119631,21.515 L19.72,21.56 L19.7255004,21.62 L19.7255004,21.62 L19.72,21.68 C19.7190302,21.6966526 19.7190302,21.7133474 19.72,21.73 C19.724853,21.7598037 19.724853,21.7901963 19.72,21.82 L19.72,21.82 L19.7162007,21.875 L19.7162007,21.875 L19.72,21.93 L19.7335937,21.9646875 C19.751875,21.99 19.78,21.99 19.78,21.99 C19.8230707,21.996747 19.8669293,21.996747 19.91,21.99 C19.91,22.05 19.92,22.03 19.98,22.05 C20.04,22.07 20.04,22.1 20.04,22.15 L20.04,22.15 L20.0364086,22.215 L20.0364086,22.215 L20.04,22.28 L20.04,22.28 L20.04,22.33 L20.050826,22.3684254 C20.0613439,22.3927492 20.0782204,22.4140827 20.1,22.43 L20.1,22.43 L20.1069091,22.475 L20.1069091,22.475 L20.1,22.52 L20.1,22.52 L20.1,22.821 L20.11408,22.82232 L20.11408,22.82232 L20.15,22.83 C20.23,22.85 20.62,23.06 20.61,23.11 C20.6,23.16 20.61,23.2 20.68,23.25 L20.68,23.25 L20.68,23.41 L20.68,23.41 L20.8,23.41 L20.8,23.41 L20.7957418,23.45 L20.7957418,23.45 L20.8,23.49 L20.7964873,23.535 L20.7964873,23.535 L20.8,23.58 C20.8189862,23.5890059 20.8410138,23.5890059 20.86,23.58 L20.86,23.58 L20.94,23.58 L20.94,23.64 C20.9378544,23.6699616 20.9378544,23.7000384 20.94,23.73 L20.94,23.73 L20.94,23.82 C20.9440803,23.8532085 20.9440803,23.8867915 20.94,23.92 L20.94,23.92 L20.9352647,24.03 L20.9352647,24.03 L20.94,24.14 L20.9432521,24.17 L20.9432521,24.17 L20.94,24.2 C20.94,24.26 20.94,24.26 20.94,24.26 L20.8973711,24.3073647 C20.8033675,24.3901815 20.6615121,24.4007419 20.555,24.325 C20.537248,24.3123763 20.5214381,24.2980383 20.5076353,24.2823711 L20.487,24.252 L20.4841847,24.305 L20.4841847,24.305 L20.49,24.42 C20.4955206,24.4430068 20.4955206,24.4669932 20.49,24.49 L20.49,24.49 L20.4885732,24.525 L20.4885732,24.525 L20.49,24.56 L20.49,24.62 C20.4861619,24.6364457 20.4861619,24.6535543 20.49,24.67 C20.4972422,24.6961749 20.4972422,24.7238251 20.49,24.75 C20.4716291,24.7791666 20.4431438,24.8005306 20.41,24.81 C20.3090471,24.9284619 20.2371394,25.0688531 20.2,25.22 L20.2,25.22 L20.2075192,25.27 L20.2075192,25.27 L20.2,25.32 C20.16,25.39 20.08,25.43 20.08,25.53 C20.0742708,25.6690952 20.050746,25.8068833 20.01,25.94 L20.01,25.94 L19.89,25.94 C19.7865268,25.934191 19.6832795,25.9548404 19.59,26 C19.5369309,26.0591952 19.4722589,26.1068482 19.4,26.14 C19.3705616,26.1515231 19.3458898,26.1726703 19.33,26.2 L19.33,26.2 L19.3108,26.1828 C19.2836,26.1668 19.25,26.17 19.21,26.09 C19.16,25.99 19.16,26.01 19.16,26.09 C19.16,26.17 19.1,26.09 19.1,26.09 L19.1,26.09 L19.0830612,26.084898 C19.0659184,26.0726531 19.0683673,26.0440816 19.0642857,26.0644898 L19.05,26.14 C19.02,26.29 18.86,26.34 18.8,26.29 C18.6773483,26.2078276 18.5367224,26.1563791 18.39,26.14 C18.28,26.14 18.34,26.13 18.19,26.06 C18.1511216,26.0411184 18.1169554,26.0137854 18.09,25.98 L18.09,25.98 L18.0858595,25.945 L18.0858595,25.945 L18.09,25.91 C18.1030953,25.867656 18.1030953,25.822344 18.09,25.78 C18.06587,25.7129218 18.0152567,25.6586933 17.95,25.63 L17.95,25.63 L17.82,25.63 L17.832963,25.5992593 C17.8477778,25.5777778 17.87,25.5533333 17.87,25.52 L17.87,25.52 L17.87,25.45 L17.87,25.45 L17.82,25.4 L17.82,25.51 C17.7750419,25.5417549 17.7149581,25.5417549 17.67,25.51 L17.67,25.51 L17.7192187,25.51 L17.7192187,25.51 L17.7510044,25.4577293 L17.7510044,25.4577293 L17.77,25.4 L17.77,25.27 L17.741691,25.2584548 C17.6808163,25.2540816 17.6,25.3557143 17.6,25.45 C17.5889543,25.5466498 17.5016498,25.6160457 17.405,25.605 C17.3083502,25.5939543 17.2389543,25.5066498 17.25,25.41 L17.25,25.41 L17.182,25.409 L17.1897247,25.3802955 C17.1913455,25.3668144 17.1913455,25.3531856 17.1897247,25.3397045 L17.18,25.3 C17.1513661,25.2613403 17.1135642,25.2304115 17.07,25.21 C17,25.16 17,25.16 17,25.16 L17,25.16 L17,25.05 L17.49,25.05 C17.45,24.99 17.46,24.99 17.4,24.99 C17.34,24.99 17.22,24.98 17.16,24.99 C17.1,25 17.02,24.92 17.02,24.92 L17.02,24.92 L16.9917187,24.8910937 C16.959375,24.87 16.92,24.87 16.92,24.87 C16.8504627,24.8813824 16.7795373,24.8813824 16.71,24.87 L16.71,24.87 L16.64,24.87 C16.5939054,24.8596665 16.5460946,24.8596665 16.5,24.87 C16.3600939,24.942718 16.2071312,24.9869072 16.05,25 C15.88,24.99 15.8,25 15.75,25.05 C15.7,25.1 15.59,25.16 15.53,25.16 C15.5246579,25.1762386 15.5246579,25.1937614 15.53,25.21 L15.53,25.21 L15.50088,25.24936 C15.4548,25.298 15.378,25.33 15.25,25.33 L15.25,25.33 L14.88,25.33 C14.8049036,25.3080555 14.7250964,25.3080555 14.65,25.33 C14.6,25.43 14.61,25.43 14.51,25.43 C14.41,25.43 14.39,25.55 14.31,25.55 C14.1816363,25.5791694 14.0483637,25.5791694 13.92,25.55 C13.82,25.49 13.84,25.43 13.77,25.42 C13.7,25.41 13.7,25.29 13.7,25.29 L13.7,25.29 L13.75,25.29 L13.756325,25.255 L13.756325,25.255 L13.75,25.22 C13.7600407,25.1942785 13.7600407,25.1657215 13.75,25.14 C13.7537542,25.0610855 13.770653,24.9833509 13.8,24.91 L13.8,24.91 L13.7336282,24.8041453 C13.6741148,24.6945637 13.6354422,24.5744797 13.62,24.45 C13.63,24.29 13.45,24.18 13.45,24.07 C13.45,23.96 13.25,23.62 13.25,23.62 L13.25,23.62 L13.240625,23.584375 C13.22375,23.545 13.19,23.5 13.19,23.5 L13.196,23.508 L13.19016,23.47648 C13.17912,23.44416 13.15784,23.40672 13.12888,23.36224 L13.08,23.29 C13.0557649,23.2648774 13.0385271,23.2338493 13.03,23.2 C13.01,23.12 13.04,23.05 13.11,22.97 C13.18,22.89 13.11,22.85 13.11,22.78 L13.11,22.78 L13.11,22.71 C13.125684,22.6803538 13.1459312,22.6533576 13.17,22.63 L13.17,22.63 L13.17,22.68 L13.17,22.68 L13.33,22.68 L13.43,22.61 L13.48,22.61 L13.512981,22.5835848 C13.5363885,22.5680086 13.5624449,22.5566045 13.59,22.55 L13.59,22.55 L13.69,22.55 L13.7733847,22.5054156 L13.7733847,22.5054156 L13.85,22.45 L14.0095473,22.4492318 C14.0661728,22.4430864 14.4177778,22.3877778 16.16,21.89 L16.16,21.89 L16.29,21.75 L16.37,21.67 L16.37,21.58 L16.3607137,21.5436273 C16.3576182,21.5188889 16.3607137,21.4935625 16.37,21.47 L16.37,21.47 L16.43,21.42 L16.49,21.42 L16.49,21.42 L16.49832,21.46352 C16.5188,21.5224 16.57,21.58 16.57,21.58 L16.57,21.58 L16.5741699,21.55 L16.5741699,21.55 L16.57,21.52 L16.57,21.52 L16.57,21.39 L16.71,21.39 C16.7050423,21.3468085 16.7050423,21.3031915 16.71,21.26 C16.71,21.19 16.76,21.19 16.76,21.19 L16.76,21.19 L16.81,21.14 L16.8092726,21.115 L16.8092726,21.115 L16.81,21.09 L16.91,21.09 L16.919375,21.0610937 C16.93625,21.04 16.97,21.04 16.97,21.04 L16.97,21.04 L17.09,21.04 C17.1388136,21.0657092 17.1801511,21.103602 17.21,21.15 C17.22,21.22 17.32,21.17 17.32,21.22 L17.32,21.22 L17.32,21.28 C17.34,21.22 17.41,21.28 17.45,21.28 L17.45,21.28 L17.57,21.28 L17.5353125,21.2475 C17.51,21.21375 17.51,21.18 17.51,21.18 L17.51,21.18 L17.53296,21.13752 C17.5688,21.0812 17.62,21.03 17.62,21.03 L17.62,21.03 L17.7,21.03 C17.7941929,21.0410578 17.8893556,21.0199106 17.97,20.97 C17.9316044,20.9421456 17.8978544,20.9083956 17.87,20.87 L17.87,20.87 Z M25.51,25.78 L25.5538463,25.8128807 C25.5790026,25.8390666 25.5954688,25.8730021 25.6,25.91 C25.596108,25.9196213 25.5935133,25.9296213 25.592216,25.9397475 L25.592,25.962 L25.58,25.94 L25.49,25.87 C25.4677086,25.8415925 25.4476487,25.8115026 25.43,25.78 L25.43,25.78 L25.51,25.78 Z M17.6304191,25.9336228 L17.71,25.95 L17.71,25.95 L17.47,25.95 L17.5495809,25.9336228 C17.6033333,25.9281638 17.6579239,25.9336228 17.71,25.95 Z M17.18,25.415 L17.18,25.48 L17.1732456,25.45 L17.1732456,25.45 L17.18,25.42 L17.18,25.42 L17.18,25.415 Z M17.182,25.409 L17.18,25.415 L17.18,25.41 L17.182,25.409 Z M20.49,23.94 C20.4268817,24.02876 20.4236957,24.1420641 20.4723133,24.2317668 L20.487,24.252 L20.49,24.19 C20.4882826,24.1700369 20.4882826,24.1499631 20.49,24.13 C20.4668867,24.0861953 20.4668867,24.0338047 20.49,23.99 L20.4935419,23.965 L20.4935419,23.965 L20.49,23.94 Z M13.19,23.5 L13.196,23.508 L13.19872,23.52136 L13.19872,23.52136 L13.19,23.56 L13.19,23.5 Z M23.1295943,22.5505334 C23.2387603,22.5880992 23.7536364,22.96 23.69,22.96 L23.69,22.96 L23.65702,22.96283 C23.5249,22.937 23.119,22.622 23.11,22.55 L23.11,22.55 Z M20.1,22.821 C20.09208,22.82232 20.09496,22.82584 20.09752,22.82808 L20.1,22.8290625 L20.1,22.821 Z M13.17,22.68 L13.17,22.7490625 L13.17,22.7490625 L13.1725658,22.715 L13.1725658,22.715 L13.17,22.68 L13.17,22.68 Z M26,21.96 C26,21.96 26.04,21.97 26.04,21.97 C26.0405509,22.0029945 26.02626,22.0344933 26.001069,22.0558088 C25.9758779,22.0771243 25.9424482,22.0860044 25.91,22.08 L25.91,22.08 L25.84,22.08 L25.8289352,22.05375 C25.8319444,22.0086111 25.9333333,21.96 26,21.96 Z M19.61,21.919 L19.604,21.919 L19.6028203,21.94 L19.6028203,21.94 L19.61,22.037 L19.61,21.919 Z M19.61,21.84 L19.61,21.919 L19.6140408,21.88 L19.6140408,21.88 L19.61,21.84 Z M26.237,21.715 L26.22704,21.74448 C26.1944,21.788 26.108,21.82 26.06,21.82 L26.06,21.82 L26.07704,21.7932 C26.1196,21.7548 26.23,21.71 26.27,21.71 L26.237,21.715 Z M26.27,21.71 L26.237,21.715 L26.24,21.71 C26.24,21.65 26.28,21.71 26.27,21.71 Z M19.61,21.543 L19.61,21.589 L19.609,21.596 L19.606358,21.575 L19.606358,21.575 L19.61,21.543 Z M19.61,21.45 L19.61,21.534 L19.6063603,21.495 L19.6063603,21.495 L19.61,21.45 Z M18.654,21.214 L18.66424,21.22424 L18.66424,21.22424 L18.67,21.23 L18.654,21.214 Z M16.31,20.67 C16.2907574,20.677784 16.2692426,20.677784 16.25,20.67 L16.25,20.67 Z M18.58,19.05 C18.7004651,19.082325 18.8176422,19.1258479 18.93,19.18 L18.93,19.18 L19,19.18 L19.18,19.28 C19.29,19.35 19.37,19.38 19.37,19.45 C19.37,19.52 19.43,19.52 19.43,19.52 C19.506542,19.5610916 19.586926,19.594585 19.67,19.62 C19.7052423,19.6325388 19.7388236,19.6493294 19.77,19.67 L19.77,19.67 L19.7766987,19.695 L19.7766987,19.695 L19.77,19.72 L19.71,19.72 C19.6,19.72 19.67,19.85 19.9,20.28 L19.9,20.28 L19.9,20.44 L20.05,20.44 L20.0883657,20.4795537 C20.1157518,20.5039672 20.1466027,20.5243514 20.18,20.54 L20.18,20.54 L20.201516,20.5549854 C20.2436735,20.5885714 20.2742857,20.64 20.18,20.64 L20.18,20.64 L20.0940625,20.6317188 C20.005,20.610625 19.9075,20.56 19.81,20.56 L19.81,20.56 L19.73,20.56 C19.62,20.55 19.51,20.37 19.4,20.24 L19.4,20.24 L19.35,20.19 L19.27,20.14 L19.17,20.14 C19.1204474,20.1305411 19.0695526,20.1305411 19.02,20.14 C18.9911361,20.128324 18.9588639,20.128324 18.93,20.14 C18.89,20.19 18.84,20.27 18.84,20.27 L18.84,20.27 L18.83096,20.29472 C18.814,20.328 18.774,20.36 18.67,20.36 L18.67,20.36 L18.55,20.36 L18.45,20.31 L18.45,19.05 Z M22.72,20.5 L22.74,20.57 L22.69,20.57 L22.59,20.5 L22.72,20.5 Z M14.985,20.2465644 L15.02,20.25 L15.5,20.25 L15.4,20.3 L15.15,20.3 L15.09,20.36 C15.03,20.45 14.9,20.45 14.9,20.45 C14.84,20.45 14.86,20.32 14.95,20.25 C14.9731085,20.2454192 14.9968915,20.2454192 15.02,20.25 Z M13.9573469,20.3134985 C14.0455102,20.3197959 14.31,20.43 14.31,20.43 L14.31,20.43 L14.27976,20.44016 C14.226,20.4376 14.13,20.38 14.13,20.38 C14.08,20.35 14,20.35 13.93,20.32 L13.93,20.32 Z M22.24,20.25 L22.28872,20.26632 C22.3604,20.2996 22.45,20.37 22.45,20.37 L22.45,20.37 L22.39,20.37 C22.33,20.36 22.24,20.25 22.24,20.25 L22.24,20.25 Z M22.44,20.07 L22.4999256,20.1528091 C22.5356284,20.2107441 22.5626641,20.2738049 22.58,20.34 L22.58,20.34 L22.55,20.32 C22.5069456,20.2944519 22.4695237,20.260432 22.44,20.22 L22.44,20.22 L22.4221367,20.1707977 C22.4161823,20.1366667 22.4221367,20.1009401 22.44,20.07 L22.44,20.07 Z M16.58,18.56 C16.61,18.42 16.93,18.48 17.02,18.56 L17.02,18.56 L17.0354184,18.6139643 C17.0738272,18.7750617 17.0955556,19.0555556 17.22,19.02 C17.36,18.98 17.48,18.81 17.55,18.81 C17.62,18.81 17.64,18.65 17.72,18.65 C17.9545448,18.7202112 18.1849153,18.8036788 18.41,18.9 L18.41,18.9 L18.41,20.18 L18.35744,20.13648 C18.296,20.0776 18.264,20.02 18.2,20.02 C18.12,20.02 17.74,20.07 17.74,20.02 C17.729282,20.0014359 17.729282,19.9785641 17.74,19.96 C17.7840605,19.898616 17.8544561,19.8615656 17.93,19.86 C18,19.86 17.88,19.75 17.88,19.75 L17.88,19.75 L17.8643289,19.7057696 C17.8511886,19.6774548 17.8328013,19.6517222 17.81,19.63 L17.81,19.63 L17.81,19.58 L17.805475,19.5334353 C17.7953226,19.4881206 17.7687569,19.4474941 17.73,19.42 C17.5555286,19.3153695 17.3615967,19.2473233 17.16,19.22 C16.99,19.22 17.1,19.16 16.99,19.13 C16.88,19.1 16.79,19.04 16.79,19.04 C16.7990059,19.0589862 16.7990059,19.0810138 16.79,19.1 C16.75,19.11 16.69,19.14 16.69,19.04 C16.69,18.94 16.57,18.86 16.57,18.86 L16.57,18.86 L16.58064,18.8552 C16.58568,18.8524 16.59216,18.8488 16.59992,18.8456 L16.618,18.84 L16.6181517,18.835 L16.62,18.81 C16.6,18.72 16.62,18.72 16.52,18.72 C16.42,18.72 16.42,18.67 16.42,18.67 L16.42,18.67 L16.4401852,18.654213 C16.4813889,18.6405556 16.555,18.6766667 16.58,18.56 Z M22.04896,20.05312 C22.072,20.0352 22.136,20.08 22.2,20.08 L22.2,20.08 L22.25,20.08 L22.228,20.08736 C22.1944,20.0928 22.148,20.088 22.14,20.16 C22.1029436,20.1383528 22.0692535,20.1114008 22.04,20.08 L22.04,20.08 Z M13.4,20 C13.42,20 13.41,19.93 13.47,20 C13.53,20.07 13.65,20.06 13.65,20 C13.67,19.95 14,20.02 13.95,20.03 L13.95,20.03 L13.91904,20.05352 C13.8688,20.0708 13.784,20.042 13.68,20.09 C13.5954211,20.1471691 13.4845789,20.1471691 13.4,20.09 L13.4,20.09 L13.3854391,20.0608834 C13.3805855,20.04 13.3854391,20.0173498 13.4,20 Z M14.1135937,20.0658984 C14.1464062,20.048125 14.34,19.9825 14.48,20.07 C14.5028571,20.0842857 14.5263265,20.0944898 14.55,20.1014869 L14.618,20.113 L14.5681052,20.1205369 L14.5681052,20.1205369 L14.43,20.13 C14.27,20.13 14.11,20.12 14.11,20.07 L14.11,20.07 Z M14.91,20.07 C14.8528571,20.07 14.7395918,20.1210204 14.6212245,20.1137318 L14.618,20.113 L14.7049744,20.1005072 C14.750324,20.0920795 14.7953662,20.0819055 14.84,20.07 L14.91,20.07 L14.91,20.07 Z M11.3470117,19.6957031 C11.45625,19.6109375 11.71,19.6525 11.78,19.74 C11.86,19.84 12.21,19.97 12.21,19.84 C12.21,19.71 12.46,19.84 12.62,19.84 L12.62,19.84 L12.88,19.84 C12.83,19.87 12.66,19.93 12.66,19.93 L12.66,19.93 L12.7134985,19.9437901 C12.8312245,19.9579592 13.0014286,19.9028571 13.01,19.98 C13.02,20.07 13.24,20.02 13.24,20.07 L13.24,20.07 L13.1840278,20.0970833 C13.0972222,20.1158333 13.0416667,20.02 13,20.07 C13,20.13 12.85,20.04 12.73,20.09 C12.5580232,20.1129988 12.3831627,20.081524 12.23,20 C12.11,19.91 11.88,19.83 11.85,19.91 C11.82,19.99 11.59,19.92 11.49,19.91 C11.39,19.9 11.45,19.8 11.39,19.8 C11.33,19.8 11.24,19.87 11.24,19.8 C11.2371281,19.7801031 11.2371281,19.7598969 11.24,19.74 L11.24,19.74 L11.275,19.7470844 L11.275,19.7470844 L11.31,19.74 Z M12.640758,19.9212536 L12.645,19.923 L12.6253644,19.9142566 C12.5945773,19.9002624 12.6202332,19.9119242 12.640758,19.9212536 Z M21.6890625,19.78 L21.76,19.85 C21.76,19.91 21.76,19.91 21.76,19.91 L21.72344,19.88496 C21.6748,19.844 21.63,19.78 21.63,19.78 L21.63,19.78 L21.6890625,19.78 L21.6890625,19.78 Z M12.8848,19.83712 L12.88,19.84 L12.8944,19.83136 C12.8912,19.83328 12.8876,19.83544 12.8848,19.83712 Z M21.2,19.45 L21.2256379,19.4582853 C21.3151852,19.5008642 21.5522222,19.6944444 21.41,19.73 L21.41,19.73 L21.36,19.73 C21.2983144,19.6704672 21.2445401,19.6032493 21.2,19.53 C21.1927578,19.5038251 21.1927578,19.4761749 21.2,19.45 L21.2,19.45 Z M9.17915452,17.4297668 C9.22183673,17.414898 9.29285714,17.5385714 9.43,17.53 C9.59,17.52 9.69,17.57 9.72,17.67 C9.75,17.77 10.01,17.88 10.05,17.97 C10.09,18.06 10.19,18.16 10.23,18.14 C10.27,18.12 10.34,18.21 10.38,18.21 L10.38,18.21 L10.49,18.21 L10.51472,18.24904 C10.548,18.29 10.58,18.29 10.58,18.29 L10.58,18.29 L10.59808,18.3184 C10.6288,18.3408 10.68,18.312 10.68,18.36 L10.69248,18.39968 C10.7232,18.456 10.8,18.52 10.8,18.52 L10.8,18.52 L10.78616,18.5496 C10.774,18.588 10.79,18.62 10.87,18.62 C10.97,18.62 10.91,18.79 11.04,18.8 C11.17,18.81 11.1,18.96 11.17,18.91 C11.24,18.86 11.29,18.91 11.29,18.91 L11.29,18.91 L11.2875,18.8875 C11.270625,18.870625 11.22,18.865 11.22,18.82 C11.22,18.76 11.22,18.76 11.22,18.76 L11.27608,18.77568 C11.3452,18.8144 11.39,18.912 11.39,18.92 L11.39,18.92 L11.39,19.01 L11.39,19.01 L11.33,19.01 C11.3214214,19.0797372 11.3214214,19.1502628 11.33,19.22 L11.33,19.22 L11.33,19.33 C11.3293045,19.3947963 11.3083213,19.4577457 11.27,19.51 L11.27,19.51 L11.15,19.65 C11.09,19.65 10.96,19.6 10.93,19.65 C10.9,19.7 10.86,19.59 10.83,19.55 C10.8,19.51 10.63,19.4 10.52,19.3 L10.52,19.3 L10.46688,19.24168 C10.384,19.1652 10.264,19.09 10.24,18.97 C10.21,18.82 10.02,18.53 9.93,18.51 C9.84,18.49 9.83,18.11 9.71,18.1 C9.59,18.09 9.54,17.88 9.44,17.82 C9.34,17.76 9.16,17.56 9.16,17.45 L9.16,17.45 Z M20.69,19.19 L20.68656,19.22584 C20.6712,19.2796 20.62,19.35 20.62,19.35 C20.52989,19.455036 20.4062407,19.5256927 20.27,19.55 L20.27,19.55 L20.21,19.55 C20.1016965,19.5507376 19.9962002,19.5155722 19.91,19.45 L19.91,19.45 L20.17,19.45 C20.2261956,19.4603334 20.2838044,19.4603334 20.34,19.45 L20.34,19.45 L20.48,19.4 C20.58,19.3700057 20.58,19.31 20.58,19.31 L20.58,19.31 L20.59912,19.28216 C20.6324,19.2412 20.69,19.19 20.69,19.19 L20.69,19.19 Z M15.28,18.04 C15.2545404,18.0863068 15.2243814,18.1298698 15.19,18.17 L15.19,18.17 L15.1477579,18.2099415 C15.0862408,18.2558138 15.0058877,18.2715565 14.93,18.25 C14.79,18.18 14.27,18.21 14.27,18.39 C14.2647682,18.4197719 14.2647682,18.4502281 14.27,18.48 C14.32,18.59 14.49,18.71 14.52,18.59 C14.55,18.47 14.93,18.41 14.93,18.47 L14.93,18.47 L14.8425767,18.541745 C14.7808121,18.584784 14.7124841,18.6180061 14.64,18.64 C14.64,18.7 14.64,18.7 14.64,18.7 L14.6641439,18.7445229 C14.6836334,18.7719495 14.7095795,18.794502 14.74,18.81 C14.750718,18.8285641 14.750718,18.8514359 14.74,18.87 L14.74,18.87 L14.74,18.98 C14.7309941,18.9989862 14.7309941,19.0210138 14.74,19.04 L14.74,19.04 L14.74,19.16 L14.68,19.16 C14.58,19.16 14.49,19.27 14.49,19.16 C14.49,19.05 14.34,19.06 14.39,18.96 L14.3984722,18.9178704 C14.3880556,18.86 14.27,18.86 14.27,18.86 L14.27,18.86 L14.2511079,18.8988338 C14.2185714,18.9995918 14.2185714,19.22 14.27,19.22 C14.2753421,19.2362386 14.2753421,19.2537614 14.27,19.27 L14.27,19.27 L14.2435634,19.316229 C14.2220838,19.344306 14.193339,19.3664533 14.16,19.38 L14.16,19.38 L14.16,19.09 L14.15848,19.05448 C14.154,19.0084 14.138,18.97 14.09,18.97 C14.03,18.97 13.93,18.96 13.93,18.88 L13.93,18.88 L13.93,18.83 C14.03,18.66 14.03,18.45 14.09,18.45 L14.09,18.45 L14.1697541,18.3797541 L14.1697541,18.3797541 L14.24,18.3 C14.25,18.23 14.27,18.15 14.33,18.15 C14.3640299,18.141934 14.3951734,18.1246321 14.42,18.1 L14.42,18.1 L14.4624993,18.0829966 C14.4922222,18.0773288 14.5236131,18.0829966 14.55,18.1 C14.69,18.15 14.97,18.21 15.06,18.15 C15.15,18.09 15.28,18.04 15.28,18.04 Z M20.74,19.143 L20.7662963,19.1606944 C20.8366667,19.2197222 20.87,19.31 20.82,19.31 L20.82,19.31 L20.81152,19.2912 C20.8032,19.2576 20.8,19.192 20.72,19.12 L20.74,19.143 Z M20.631,19.078 L20.6568,19.08368 C20.6768,19.0896 20.7,19.1 20.72,19.12 L20.74,19.143 L20.72,19.13 L20.72,19.13 C20.68,19.11 20.656,19.0948 20.64096,19.0844 L20.631,19.078 Z M13.42,17.42 C13.4742216,17.4304721 13.52345,17.4586026 13.56,17.5 L13.56,17.5 L13.56,17.57 C13.5891823,17.5799057 13.6208177,17.5799057 13.65,17.57 L13.65,17.57 L13.77,17.57 C13.7863978,17.5657661 13.8036022,17.5657661 13.82,17.57 C13.8350214,17.5909157 13.8350214,17.6190843 13.82,17.64 L13.82,17.64 L13.71,17.64 C13.63,17.64 13.63,17.58 13.63,17.64 L13.63,17.64 L13.63,17.7 L13.58,17.7 L13.58,17.82 L13.58,17.82 L13.5971822,17.8771526 C13.6132261,17.9133977 13.6381318,17.9454019 13.67,17.97 L13.67,17.97 L13.67,18.03 L13.66328,18.05288 C13.6476,18.082 13.614,18.106 13.67,18.13 C13.74,18.16 13.85,18.24 13.8,18.29 L13.8,18.29 L13.7576852,18.3081019 C13.6697222,18.3361111 13.51,18.3583333 13.51,18.45 L13.51,18.45 L13.51,18.5 C13.5256292,18.6028708 13.4784221,18.7051529 13.39,18.76 C13.34,18.78 13.34,18.83 13.34,18.86 L13.34,18.86 L13.34,19.11 L13.2782407,19.1148611 C13.1736111,19.1294444 13.0666667,19.1683333 13.05,19.11 C13.03,19.04 12.85,18.99 12.79,18.99 C12.73,18.99 12.54,19.06 12.52,18.99 C12.5,18.92 12.43,18.87 12.36,18.92 C12.29,18.97 12.17,18.77 12.17,18.65 C12.17,18.53 12.05,18.51 12,18.45 L12,18.45 L12.01,18.38 C11.99,18.31 11.99,18.21 11.92,18.15 C11.9049919,18.1148691 11.9049919,18.0751309 11.92,18.04 L11.92,18.04 L11.958484,18.0305248 C12.042449,18.0410204 12.16,18.21 12.16,18.21 L12.16,18.21 L12.34,18.29 L12.39,18.29 L12.3982507,18.2504082 C12.4073469,18.1622449 12.3828571,18.03 12.52,18.03 L12.52,18.03 L12.75,18.03 C12.7828547,18.0159659 12.8057266,17.9854701 12.81,17.95 C12.83,17.84 12.94,17.67 12.99,17.67 L12.99,17.67 L13.02376,17.6748 C13.0724,17.686 13.13,17.71 13.13,17.67 L13.13,17.67 L13.21,17.67 L13.18696,17.63096 C13.1716,17.59 13.21,17.59 13.21,17.59 C13.2263978,17.5942339 13.2436022,17.5942339 13.26,17.59 L13.26,17.59 L13.27856,17.54928 C13.3112,17.4904 13.372,17.42 13.42,17.42 Z M20.61,19.07 C20.614,19.066 20.6164,19.0668 20.62424,19.0724 L20.631,19.078 C20.6224,19.07616 20.6164,19.07528 20.6128,19.07424 Z M15.4116667,18.9678241 C15.4811111,18.9666667 15.62,19.05 15.62,19.05 L15.62,19.05 L15.5909621,19.071312 C15.5195918,19.0902041 15.38,18.98 15.38,18.98 L15.38,18.98 Z M16.1128724,18.8518174 L16.21,18.86 C16.37,18.89 16.37,19.03 16.37,19.03 L16.37,19.03 L16.3167187,19.0159375 C16.261875,18.990625 16.2,18.94 16.11,18.94 L16.11,18.94 L15.84,18.94 L15.84,18.94 L15.9250714,18.892423 C16.0140195,18.8537355 16.1131973,18.8420194 16.21,18.86 Z M11.79,18.92 L11.7865306,18.9457143 C11.7730612,18.9959184 11.7228571,19.0314286 11.68,18.92 L11.68,18.92 L11.79,18.92 Z M16.62688,18.8384 L16.618,18.84 L16.62,18.86 C16.62,18.93 16.87,18.86 16.94,18.86 L16.87,18.86 L16.87,18.86 C16.8,18.86 16.77,18.91 16.7,18.86 C16.672,18.84 16.6472,18.836 16.62688,18.8384 Z M9.87,18.54 C9.91,18.51 9.96,18.65 9.96,18.65 L9.96,18.65 L9.93528,18.65392 C9.902,18.636 9.87,18.54 9.87,18.54 Z M15.68,17.99 C15.82,17.86 15.82,18.02 15.82,18.07 C15.82,18.11 15.96,18.14 15.96,18.19 C15.96,18.24 15.97,18.32 15.96,18.32 L15.96,18.32 L15.82,18.32 L15.82,18.43 L15.7933528,18.4232945 C15.7387755,18.3891837 15.68,18.2385714 15.68,18.11 L15.68,18.11 Z M9.57236111,18.0351852 C9.60361111,18.0263889 9.68,18.0916667 9.68,18.15 C9.68900593,18.1689862 9.68900593,18.1910138 9.68,18.21 C9.56,18.28 9.56,18.11 9.56,18.05 L9.56,18.05 Z M16,0.45 L16.07,0.55 C16.0979501,0.611497549 16.1430994,0.663592877 16.2,0.7 L16.2,0.7 L16.2,0.75 L16.25,0.75 C16.3012316,0.82294865 16.3813866,0.870312955 16.47,0.88 L16.47,0.88 L16.58,0.88 L16.614375,0.84375 C16.64625,0.796875 16.6725,0.7275 16.71,0.72 C16.76,0.71 16.76,0.58 16.82,0.51 C16.8389862,0.500994071 16.8610138,0.500994071 16.88,0.51 L16.88,0.51 L16.9358491,0.560534498 L16.9358491,0.560534498 L17,0.6 L17.23,0.48 L17.72,0.48 C17.8,0.48 17.79,0.55 17.8,0.55 L17.8,0.55 L18,0.55 L18.18,0.54 L18.22,0.547530492 L18.22,0.547530492 L18.26,0.54 L18.6783769,0.585921244 C21.3209391,0.915304234 23.8225333,1.97508551 25.9,3.65 L25.9,3.65 L25.36,4.52 L25.26,4.52 L25.26,4.52 L25.23,4.52303062 L25.23,4.52303062 L25.2,4.52 L25.04,4.59 L24.97,4.59 C24.9334713,4.59449834 24.8965287,4.59449834 24.86,4.59 L24.86,4.59 L24.69,4.64 L24.6392412,4.66338227 C24.6066131,4.68127468 24.5765601,4.70367723 24.55,4.73 C24.54,4.79 24.45,4.79 24.45,4.79 L24.38,4.79 C24.3021969,4.8486872 24.218396,4.89896772 24.13,4.94 L24.13,4.94 L24.10768,4.9352 C24.0792,4.9096 24.052,4.82 23.98,4.82 L23.98,4.82 L23.79,4.82 C23.7103358,4.80963409 23.6296642,4.80963409 23.55,4.82 L23.55,4.82 L23.49,4.82 L23.4390962,4.86440233 C23.3467347,4.94714286 23.31,4.99 23.31,4.93 C23.3038446,4.91390166 23.3038446,4.89609834 23.31,4.88 L23.31,4.88 L23.3148,4.84448 C23.326,4.7984 23.35,4.76 23.31,4.76 L23.31,4.76 L23.2210415,4.8462614 L23.2210415,4.8462614 L23.14,4.94 C23.06,5.02 23.06,4.94 23.06,4.94 L23.06,4.94 L22.89,4.94 C22.8531827,4.98758758 22.8197665,5.03771186 22.79,5.09 C22.7867172,5.11321787 22.7867172,5.13678213 22.79,5.16 L22.79,5.16 L22.7768,5.20392 C22.7512,5.25 22.7,5.25 22.7,5.25 L22.7,5.25 L22.62,5.33 L22.5984322,5.37067581 C22.5840537,5.41378387 22.591243,5.46236451 22.62,5.5 L22.62,5.5 L22.83,5.5 L22.8108,5.55048 C22.798,5.6196 22.83,5.69 22.83,5.69 C22.8527108,5.68237769 22.8772892,5.68237769 22.9,5.69 L22.9,5.69 L22.9,5.78 L22.74,5.78 L22.7005994,5.8321996 L22.7005994,5.8321996 L22.67,5.89 C22.6667172,5.91321787 22.6667172,5.93678213 22.67,5.96 L22.67,5.96 L22.6748002,5.995 L22.6748002,5.995 L22.67,6.03 C22.686077,6.0578461 22.686077,6.0921539 22.67,6.12 C22.6413727,6.13283427 22.6086273,6.13283427 22.58,6.12 L22.58,6.12 L22.43,6.12 C22.3704279,6.15092487 22.3163681,6.1914697 22.27,6.24 L22.27,6.24 L22.27,6.31 C22.2746784,6.35654941 22.2746784,6.40345059 22.27,6.45 L22.27,6.45 L22.12,6.45 L22.12,5.95 C22.0936055,5.95538776 22.0663945,5.95538776 22.04,5.95 L22.04,5.95 L22.04,6.14 L21.92,6.26 L21.85,6.32 L21.8535089,6.29 L21.8535089,6.29 L21.85,6.26 L21.8600569,6.16012643 C21.8634092,6.09333333 21.8600569,6.02628739 21.85,5.96 C21.7826,5.71888943 21.7456461,5.47029022 21.74,5.22 C21.7200647,5.13785891 21.7200647,5.05214109 21.74,4.97 C21.7673642,4.91316044 21.8008993,4.85950426 21.84,4.81 L21.84,4.81 L21.8768142,4.75998806 C21.8960537,4.72357449 21.9043851,4.68187042 21.9,4.64 L21.9,4.64 L21.9,4.59 C21.9565639,4.5948254 22.0134361,4.5948254 22.07,4.59 L22.07,4.59 L22.07688,4.55584 C22.0948,4.52 22.146,4.52 22.21,4.52 L22.189,4.519 L22.1795312,4.50953125 L22.1795312,4.50953125 L22.14,4.5 L22.0935853,4.50969865 C22.0622222,4.51293153 22.0303552,4.50969865 22,4.5 L22,4.5 L21.1,4.5 C21.0632053,4.54543102 21.0421504,4.60157738 21.04,4.66 L21.04,4.66 L20.95,4.66 L20.84,4.75 L20.7865319,4.79342842 C20.7530049,4.82473053 20.7238636,4.86057298 20.7,4.9 L20.7,4.9 L20.6706122,4.95553936 C20.6461224,5.00276968 20.6363265,5.02638484 20.6412245,5.03819242 L20.646,5.042 L20.57,5.05 L20.57,5.05 L20.42,5.05 C20.3744671,5.06454797 20.3255329,5.06454797 20.28,5.05 L20.28,5.05 L20.14,5.05 C20.1136355,5.05567766 20.0863645,5.05567766 20.06,5.05 L20.06,5.05 L20.1,5.05 L20.0745312,5.0290625 C20.0525,5.00375 20.0375,4.97 20,4.97 L20,4.97 L19.94,4.97 L19.8964352,4.96189815 C19.8119444,4.95194444 19.68,4.96166667 19.68,5.02 L19.68,5.02 L18.68,5.02 C18.5985527,5.04103385 18.5209324,5.0747818 18.45,5.12 L18.45,5.12 L18.35,5.12 L18.2873953,5.2036833 C18.2418302,5.25627462 18.1888602,5.30221842 18.13,5.34 C18.1136022,5.34423389 18.0963978,5.34423389 18.08,5.34 L18.08,5.34 L18,5.34 L17.25,5.45 L17.25,5.82 L17.18,5.88 L16.98,6.01 L16.86,6.01 C16.8409429,6.02944218 16.8409429,6.06055782 16.86,6.08 L16.86,6.08 L17.16,6.08 L17.16,6.35 L17.1725,6.32734375 C17.18375,6.304375 17.195,6.28 17.24,6.25 C17.3,6.21 17.24,6.27 17.24,6.33 C17.24,6.39 17.31,6.39 17.24,6.45 L17.24,6.45 L17.3,6.45 L17.3,6.38 L17.38,6.38 C17.390718,6.36143594 17.390718,6.33856406 17.38,6.32 L17.38,6.32 L17.58,6.32 C17.6110418,6.33780147 17.6382355,6.36159589 17.66,6.39 L17.66,6.39 L17.67216,6.42904 C17.6952,6.47 17.74,6.47 17.74,6.47 L17.74,6.47 L17.8,6.47 L17.8,6.47 L17.8,6.6 C17.7953215,6.61972639 17.7953215,6.64027361 17.8,6.66 L17.8,6.66 L17.8,6.94 C17.790525,6.96771448 17.7731434,6.99204865 17.75,7.01 L17.75,7.01 L17.7468201,7.055 L17.7468201,7.055 L17.75,7.1 C17.7425114,7.17314215 17.7425114,7.24685785 17.75,7.32 L17.75,7.32 L17.75,7.65 C17.7599057,7.67918231 17.7599057,7.71081769 17.75,7.74 C17.7534731,7.76989948 17.7534731,7.80010052 17.75,7.83 C17.7280923,7.87297591 17.701244,7.91324831 17.67,7.95 C17.5944643,8.03905039 17.5243384,8.13255165 17.46,8.23 L17.46,8.23 L17.3784618,8.36204156 C17.3200315,8.4473512 17.2535981,8.52704004 17.18,8.6 L17.18,8.6 L17.0804217,8.70112059 C17.0160638,8.77044474 16.9558152,8.843528 16.9,8.92 L16.9,8.92 L16.83,8.99 L16.73,9.06 L16.62,9.13 L16.47,9.13 C16.440484,9.137621 16.409516,9.137621 16.38,9.13 L16.38,9.13 L16.32,9.08 L16.26,9.08 L16.16,9.14 L16.0764775,9.21124272 L16.0764775,9.21124272 L16,9.29 C15.9745563,9.30805348 15.9539497,9.33209455 15.94,9.36 C15.87,9.45 15.93,9.6 15.87,9.6 C15.7608002,9.68175284 15.643523,9.75211919 15.52,9.81 C15.4890066,9.81878509 15.4634219,9.84071482 15.45,9.87 L15.45,9.87 L15.4419375,9.905 L15.4419375,9.905 L15.45,9.94 C15.5156549,9.9903629 15.5759706,10.0473277 15.63,10.11 L15.63,10.11 L15.7012109,10.1824494 C15.7666291,10.2598017 15.8142253,10.3511437 15.84,10.45 L15.83,10.421 L15.8308831,10.4501732 L15.8308831,10.4501732 L15.84,10.51 L15.8172039,10.5200142 C15.8011111,10.5233523 15.7839438,10.5200142 15.77,10.51 L15.77,10.51 L15.71,10.51 C15.655937,10.5315284 15.6078986,10.5658415 15.57,10.61 C15.5172705,10.6604538 15.4514422,10.6951003 15.38,10.71 C15.323898,10.7213132 15.266102,10.7213132 15.21,10.71 L15.21,10.71 L15.21,10.61 L15.2446875,10.5704687 C15.27,10.52875 15.27,10.48 15.27,10.42 L15.27,10.42 L15.27,10.24 L15.33,10.24 L15.33,10.24 L15.29584,10.2296 C15.26,10.204 15.26,10.14 15.26,10.14 L15.26,10.14 L15.15,10.14 C15.1279048,10.12925 15.1020952,10.12925 15.08,10.14 L15.08,10.14 L15.0752,10.12392 C15.064,10.1044 15.04,10.09 15.08,10.05 L15.08,10.05 L15.17,9.95 L15.183581,9.92419791 C15.188108,9.90555556 15.183581,9.88518403 15.17,9.87 L15.17,9.87 L15.1155112,9.84633183 C15.0783138,9.83284409 15.0395191,9.82398123 15,9.82 L15,9.82 L14.83,10.15 L14.68,10.24 L14.61,10.29 L14.47,10.29 L14.4661553,10.25 L14.4661553,10.25 L14.47,10.21 L14.4908455,10.172449 C14.5461224,10.0916327 14.6685714,9.98142857 14.6,9.93 C14.52,9.87 14.41,9.92 14.3,10.02 L14.3,10.02 L14.2636235,10.0548314 L14.2636235,10.0548314 L14.22,10.08 L14.12,10.08 C14.0910116,10.0966354 14.0722504,10.1266533 14.07,10.16 C14,10.24 14,10.24 14,10.24 L13.73,10.24 L13.73,10.31 C13.725147,10.3398037 13.725147,10.3701963 13.73,10.4 C13.7246579,10.4162386 13.7246579,10.4337614 13.73,10.45 L13.73,10.45 L13.89,10.45 C13.9255143,10.4369997 13.9644857,10.4369997 14,10.45 L14,10.45 L13.9359315,10.4808886 C13.7967456,10.5663419 13.7320101,10.7405278 13.79,10.9 C13.8562742,11.082254 14.057746,11.1762742 14.24,11.11 L14.24,11.11 L14.34,11.03 L14.4,10.98 L14.4235976,11.0110287 C14.44181,11.0294189 14.4646371,11.0429483 14.49,11.05 L14.49,11.05 L14.6,11.05 L14.6,11.14 L14.545,11.1477112 L14.545,11.1477112 L14.49,11.14 L14.36,11.14 C14.3445299,11.1310684 14.3254701,11.1310684 14.31,11.14 L14.31,11.14 L14.31,11.19 L14.25,11.19 L14.25,11.19 L14.240625,11.2304688 C14.22375,11.26 14.19,11.26 14.19,11.26 C14.1409724,11.2866077 14.102252,11.3288481 14.08,11.38 L14.08,11.38 L14.08,11.45 C14.11,11.5 14.26,11.51 14.26,11.58 L14.26,11.58 L14.34,11.75 L14.34,11.82 L14.34,11.82 L14.3316645,11.846341 C14.328886,11.8644444 14.3316645,11.8831993 14.34,11.9 C14.3947958,11.9374689 14.4451233,11.981086 14.49,12.03 L14.49,12.03 L14.49,12.08 L14.25,12.08 L14.2551562,12.1089062 C14.270625,12.13 14.31,12.13 14.31,12.13 L14.31,12.13 L14.55,12.13 L14.55,12.13 L14.5140749,12.1496028 C14.4918363,12.1652602 14.4732841,12.1858613 14.46,12.21 C14.53,12.24 14.46,12.22 14.46,12.29 C14.4700256,12.3225795 14.4700256,12.3574205 14.46,12.39 L14.46,12.39 L14.46,12.45 L14.4,12.45 C14.1708018,12.3367816 13.8932184,12.4308018 13.78,12.66 C13.6667817,12.8891982 13.7608018,13.1667816 13.99,13.28 L13.99,13.28 L13.93,13.35 C13.88,13.41 13.79,13.38 13.79,13.41 L13.79,13.41 L13.79,13.51 L13.7936966,13.56 L13.7936966,13.56 L13.79,13.61 L13.76912,13.63944 C13.7384,13.658 13.7,13.61 13.7,13.69 C13.7,13.79 13.6,13.74 13.6,13.79 C13.6,13.84 13.51,13.84 13.51,13.84 L13.51,13.84 L13.46,13.84 C13.4664002,13.8628944 13.4664002,13.8871056 13.46,13.91 C13.4405887,13.9168629 13.4194113,13.9168629 13.4,13.91 L13.4,13.91 L13.37072,13.94416 C13.34,13.98 13.34,13.98 13.34,13.98 L13.34,13.98 L13.2213711,13.9875632 C13.1427193,13.9967886 13.0651557,14.014343 12.99,14.04 C12.93,14.1 12.8,14.04 12.8,14.04 L12.8,14.04 L12.7319571,14.0975469 C12.6846999,14.1334857 12.633784,14.1644831 12.58,14.19 L12.58,14.19 L12.47,14.19 L12.34,14.24 C12.25,14.27 12.19,14.34 12.19,14.34 L12.191,14.339 L12.32,14.34 L12.29808,14.3828 C12.2648,14.4468 12.22,14.53 12.22,14.53 L12.22,14.53 L12.24,14.63 C12.1974799,14.6638693 12.1443377,14.6815834 12.09,14.68 C12.0294433,14.6810149 11.9742176,14.6455127 11.95,14.59 C11.935413,14.5513299 11.935413,14.5086701 11.95,14.47 L11.95,14.47 L11.95,14.42 C11.9926934,14.3759271 12.0491256,14.347711 12.11,14.34 L12.11,14.34 L12.186,14.339 L12.19,14.3 C12.19,14.255 12.19,14.24375 12.19,14.2409375 L12.195838,14.21 L12.195838,14.21 L12.19,14.18 L12.19,14.18 L11.89,14.18 C11.8567291,14.2379769 11.7966934,14.2754992 11.73,14.28 L11.73,14.28 L11.6939062,14.2929687 C11.66625,14.31125 11.6625,14.345 11.67,14.39 C11.68,14.45 11.54,14.54 11.54,14.54 L11.54,14.54 L11.54,14.61 C11.5343223,14.6363645 11.5343223,14.6636355 11.54,14.69 C11.5340726,14.7129569 11.5340726,14.7370431 11.54,14.76 C11.5352774,14.7763321 11.5352774,14.7936679 11.54,14.81 C11.63,14.86 11.63,14.97 11.63,14.97 L11.63,14.97 L11.75,15.07 L11.81,15.07 C11.86,15.07 12,15.33 12,15.38 L12,15.38 L12,15.45 C11.9473733,15.5808019 11.8691807,15.6997907 11.77,15.8 C11.7748559,15.8230807 11.7748559,15.8469193 11.77,15.87 C11.7724926,15.9066243 11.7724926,15.9433757 11.77,15.98 C11.7759274,16.0029569 11.7759274,16.0270431 11.77,16.05 L11.77,16.05 L11.66,16.14 C11.5801136,16.2017902 11.4881215,16.2460827 11.39,16.27 L11.39,16.27 L11.27,16.27 L11.2166176,16.3112418 L11.2166176,16.3112418 L11.17,16.36 L11.09,16.36 C11.0831371,16.3405887 11.0831371,16.3194113 11.09,16.3 C11.0856639,16.280235 11.0856639,16.259765 11.09,16.24 C11.09,16.16 11.13,16.23 11.09,16.16 C11.05,16.09 11,16.09 11,16.09 L10.76,16.09 L10.76,16.00072 L10.76,16.00072 L10.66,16 L10.6576,15.95824 C10.6576,15.8968 10.664,15.82 10.6,15.82 L10.6,15.82 L10.54,15.82 C10.51,15.75 10.46,15.75 10.46,15.75 C10.4379048,15.73925 10.4120952,15.73925 10.39,15.75 L10.39,15.75 L10.3394444,15.7368981 C10.27,15.7033333 10.27,15.62 10.27,15.62 C10.27,15.62 10.29,15.61 10.2,15.62 C10.11,15.63 10.07,15.65 10.11,15.72 C10.15,15.79 10,16.03 10,16.12 C10,16.21 9.94,16.45 10,16.45 L9.984,16.438 C9.9575,16.4358333 9.93416667,16.4375 9.92083333,16.4476852 L9.91,16.47 C9.91,16.53 9.98,16.59 9.98,16.66 C9.97746697,16.7471368 10.0187707,16.8297443 10.09,16.88 L10.09,16.88 L10.1570254,16.893298 C10.2218821,16.9135655 10.2792261,16.9541726 10.32,17.01 L10.32,17.01 L10.3409375,17.031875 C10.36625,17.04125 10.4,17.0225 10.4,17.06 L10.4,17.06 L10.48,17.12 C10.5206901,17.1457924 10.5437801,17.1919724 10.54,17.24 C10.5444983,17.2765287 10.5444983,17.3134713 10.54,17.35 L10.54,17.35 L10.54,17.4 C10.5234615,17.4622536 10.5234615,17.5277464 10.54,17.59 L10.54,17.59 L10.570463,17.635787 C10.6213889,17.7272222 10.67,17.88 10.67,17.88 L10.67,17.88 L10.5632664,17.8440758 C10.4940306,17.8152721 10.4289594,17.7769223 10.37,17.73 L10.37,17.73 L10.29,17.73 L10.19,17.66 C10.1491393,17.6337544 10.1176346,17.5952487 10.1,17.55 L10.1,17.55 L10.1,17.5007813 L10.1,17.5007813 L10.0311587,17.4035802 C9.98918941,17.3367528 9.95520333,17.2650734 9.93,17.19 L9.93,17.19 L9.93,17.12 C9.93485594,17.0969193 9.93485594,17.0730807 9.93,17.05 C9.94025258,16.9971594 9.94025258,16.9428406 9.93,16.89 L9.93,16.89 L9.87,16.79 C9.77,16.66 9.6,16.54 9.6,16.53 C9.6,16.52 9.54,16.42 9.6,16.35 C9.66,16.28 9.66,16.14 9.66,16.05 L9.66,16 L9.66356261,15.92 L9.66356261,15.92 L9.66,15.84 L9.66,15.73 C9.66503521,15.7002113 9.66503521,15.6697887 9.66,15.64 L9.66,15.64 L9.66,15.55 C9.64931424,15.5200315 9.63225542,15.4927374 9.61,15.47 L9.61,15.47 L9.56853218,15.3398417 C9.54576562,15.2517358 9.53281141,15.1612378 9.53,15.07 C9.52714856,14.9900753 9.49915306,14.9130877 9.45,14.85 L9.45,14.85 L9.45,14.7909375 L9.45,14.7909375 L9.43033431,14.8333339 L9.43033431,14.8333339 L9.4,14.87 C9.3575409,14.9074629 9.31746289,14.9475409 9.28,14.99 C9.25366755,15.0168754 9.21762563,15.0320204 9.18,15.0320204 C9.14237437,15.0320204 9.10633245,15.0168754 9.08,14.99 C9,14.96 9,14.96 9,14.88 L9,14.88 L9.00495575,14.805 L9.00495575,14.805 L9,14.73 L9.00361254,14.66 L9.00361254,14.66 L9,14.59 L9,14.45 L8.92,14.6 C8.88999093,14.534119 8.84131445,14.4784888 8.78,14.44 C8.70392627,14.3985748 8.64142519,14.3360737 8.6,14.26 L8.6,14.26 L8.59669616,14.21 L8.59669616,14.21 L8.6,14.16 C8.5950808,14.0618875 8.56017679,13.9676467 8.5,13.89 L8.5,13.89 L8.37,13.89 C8.3456718,13.9110354 8.32824755,13.9389142 8.32,13.97 C8.32893164,13.9854701 8.32893164,14.0045299 8.32,14.02 C8.27742485,14.0314638 8.23257515,14.0314638 8.19,14.02 L8.19,14.02 L8.01,14.02 C7.94694474,14.0116068 7.88305526,14.0116068 7.82,14.02 L7.82,14.02 L7.69,14.02 L7.6684,14.06488 C7.6556,14.1212 7.694,14.166 7.63,14.23 C7.55,14.31 7.38,14.34 7.32,14.44 L7.32,14.44 L7.21,14.57 L7.16,14.57 L7,14.71 C6.80740192,14.789649 6.62589994,14.8938446 6.46,15.02 C6.41506618,15.0900147 6.34222731,15.1373599 6.26,15.15 L6.26,15.15 L6.26,15.31 C6.24980117,15.3527332 6.24980117,15.3972668 6.26,15.44 C6.24983867,15.4793547 6.24983867,15.5206453 6.26,15.56 C6.29514352,15.6569123 6.29514352,15.7630877 6.26,15.86 L6.26,15.86 L6.26,15.92 C6.25069362,15.9829915 6.25069362,16.0470085 6.26,16.11 L6.26,16.11 L6.26,16.24 L6.22096,16.24968 C6.18,16.2676 6.18,16.306 6.18,16.37 C6.18,16.45 6,16.48 6,16.56 C5.92790026,16.6452118 5.81555678,16.6850827 5.70587036,16.6643871 C5.59618394,16.6436916 5.50609272,16.5656254 5.47,16.46 C5.43825455,16.4745505 5.40174545,16.4745505 5.37,16.46 L5.37,16.46 L5.37,16.4 C5.29104377,16.3173071 5.23878058,16.2127807 5.22,16.1 C5.2139135,16.0191093 5.19000914,15.9405664 5.15,15.87 C5.11809503,15.801902 5.07778085,15.7380712 5.03,15.68 L5.03,15.68 L5.03,15.59 C4.97,15.54 4.97,15.47 4.97,15.41 C4.94934686,15.323592 4.91916187,15.2397448 4.88,15.16 C4.81040809,15.0267466 4.75670693,14.885781 4.72,14.74 L4.72,14.74 L4.72,14.62 C4.72465217,14.586829 4.72465217,14.553171 4.72,14.52 L4.72,14.52 L4.72,14.47 C4.68881586,14.40369 4.66855459,14.3327756 4.66,14.26 L4.66,14.26 L4.66,13.99 L4.664,13.941 L4.66,13.95 C4.65269655,13.962375 4.64388406,13.9737233 4.63380369,13.9838037 L4.6,14.01 L4.54,14.01 L4.44262301,13.9619542 C4.31765659,13.8897676 4.2130912,13.7858865 4.14,13.66 L4.14,13.66 L4.22,13.66 C4.28,13.65 4.34,13.6 4.34,13.6 L4.34,13.6 L4.15,13.6 L4.06,13.51 C4,13.45 4,13.45 4,13.45 L3.46,13.11 L3.39,13.11 L3.39,12.9709375 L3.39,12.9709375 L3.32,12.97 C3.26444044,12.9858412 3.20555956,12.9858412 3.15,12.97 L3.15,12.97 L2.94,12.97 C2.90733574,12.9605549 2.87266426,12.9605549 2.84,12.97 C2.73749993,12.9885584 2.63250007,12.9885584 2.53,12.97 L2.53,12.97 L2.04,12.97 L1.88992729,12.9580586 C1.7906459,12.9440028 1.69326693,12.9178326 1.6,12.88 C1.55,12.82 1.58,12.61 1.44,12.61 L1.44,12.61 L1.35,12.61 L1.30428832,12.6383678 C1.27191891,12.6535345 1.23622511,12.6610556 1.2,12.66 L1.2,12.66 L1.06,12.66 C0.972256924,12.6389706 0.888041145,12.6052843 0.81,12.56 L0.81,12.56 L0.768629921,12.5221353 C0.73905724,12.4993678 0.705726402,12.4816973 0.67,12.47 L0.67,12.47 L0.55,12.47 L0.5012,12.4456 C0.45,12.412 0.45,12.372 0.45,12.3 L0.45,12.3 L0.49046875,12.2267187 C0.52,12.155 0.52,12.0875 0.52,12.02 C1.63,10.26 2.47,8.14 3.4,6.26 C4.33,5.45 5.21,4.5 6.13,3.59 C7.35567868,2.42701667 8.86095843,1.60031841 10.5,1.19 C12.304437,0.762523133 14.1467461,0.514648821 16,0.45 L16,0.45 Z M15.375,16.3566369 C15.4007763,16.3566369 15.4249734,16.3690568 15.44,16.39 C15.447784,16.4092426 15.447784,16.4307574 15.44,16.45 C15.448939,16.4978118 15.4623307,16.5446826 15.48,16.59 C15.4872198,16.6631556 15.4872198,16.7368444 15.48,16.81 C15.4856777,16.8363645 15.4856777,16.8636355 15.48,16.89 C15.41,16.97 15.27,16.97 15.27,16.97 L15.27,16.97 L15.27,17.16 C15.27,17.21 15.34,17.21 15.27,17.21 C15.2,17.21 15.23,17.12 15.06,17.1 C14.89,17.08 14.97,16.76 14.89,16.76 L14.89,16.76 L14.81,16.76 L14.775,16.7680625 L14.775,16.7680625 L14.74,16.76 C14.67,16.76 14.57,16.86 14.57,16.86 C14.57,16.86 14.56,16.86 14.57,16.8 C14.58,16.74 14.58,16.68 14.67,16.65 C14.76,16.62 14.86,16.45 14.91,16.51 C14.96,16.57 15.08,16.57 15.08,16.57 L15.08,16.57 L15.09432,16.5416 C15.1228,16.5192 15.182,16.548 15.19,16.5 C15.2,16.44 15.31,16.44 15.31,16.44 L15.31,16.44 L15.31,16.3907813 L15.31,16.3907813 L15.3278023,16.3720422 C15.3413335,16.3621568 15.3578158,16.3566369 15.375,16.3566369 Z M6.38,16.3708 L6.47577867,16.4312037 C6.59661786,16.5216447 6.68893374,16.6461926 6.74,16.79 C6.7265815,16.9142376 6.65136021,17.0233084 6.54,17.08 L6.54,17.08 L6.505,17.0880625 L6.505,17.0880625 L6.47,17.08 C6.41550407,17.0401451 6.38232555,16.9774745 6.38,16.91 L6.38,16.91 L6.38,16.83 L6.36608663,16.7402689 C6.36144884,16.68 6.36608663,16.6191934 6.38,16.56 C6.38468354,16.5301828 6.38468354,16.4998172 6.38,16.47 C6.38,16.37 6.38,16.37 6.38,16.37 Z M14.05,16.08 L14.0589062,16.1103125 C14.06875,16.1525 14.08,16.22 14.08,16.22 L14.08,16.22 L14.0590286,16.2548302 C14.0429955,16.2766133 14.0230118,16.2953492 14,16.31 C13.89,16.38 13.64,16.71 13.64,16.65 L13.64,16.65 L13.6402041,16.6206706 C13.6646939,16.547551 13.8214286,16.3957143 13.89,16.31 C13.97,16.21 14.05,16.08 14.05,16.08 L14.05,16.08 Z M15.08,16.57 L15.077,16.587 L15.07904,16.57672 L15.07904,16.57672 L15.08,16.57 Z M15.003586,16.4088047 C15.0177551,16.3306122 15.0728571,16.2828571 15.15,16.36 L15.15,16.36 L15.1574344,16.3964723 C15.1469388,16.4646939 15,16.5014286 15,16.45 L15,16.45 Z M9.984,16.438 L10.0033333,16.4418519 C10.0166667,16.4455556 10.02,16.45 10,16.45 L9.984,16.438 Z M14.58,15.92 C14.67,15.9 14.89,16.2 14.87,16.2 C14.85,16.2 14.92,16.17 14.94,16.2 C14.96,16.23 14.91,16.34 14.85,16.43 L14.85,16.43 L14.76,16.43 C14.7404715,16.4361414 14.7195285,16.4361414 14.7,16.43 L14.7,16.43 L14.6902753,16.3902955 C14.6870338,16.3633333 14.6902753,16.3357801 14.7,16.31 C14.71075,16.2879048 14.71075,16.2620952 14.7,16.24 L14.7,16.24 L14.7,16.14 L14.6828125,16.1675 C14.663125,16.18625 14.635,16.1825 14.59,16.19 C14.53,16.2 14.53,16.1 14.53,16.04 C14.53,15.98 14.58,15.92 14.58,15.92 Z M14.39,14.48 C14.46,14.41 14.68,14.48 14.68,14.48 L14.68,14.48 L14.6835419,14.505 L14.6835419,14.505 L14.68,14.53 C14.6766432,14.5498591 14.6766432,14.5701409 14.68,14.59 C14.710122,14.6671646 14.710122,14.7528354 14.68,14.83 L14.68,14.83 L14.6418519,14.8763889 C14.5747222,14.9555556 14.4983333,15.0416667 14.54,15.1 L14.54,15.1 L14.5717784,15.138309 C14.6155102,15.2212245 14.5542857,15.3314286 14.64,15.28 C14.74,15.22 14.92,15.28 14.92,15.33 C14.92,15.38 15.05,15.38 15.05,15.51 C15.05,15.64 15.19,15.58 15.26,15.64 L15.26,15.64 L15.26625,15.6890278 C15.285,15.7688889 15.335,15.8383333 15.26,15.88 C15.17,15.93 15.17,15.93 15.17,15.98 L15.17,15.98 L15.15984,15.98672 C15.1416,16.0024 15.108,16.036 15.1,15.98 C15.09,15.91 15,15.81 15,15.81 L15,15.81 L15.0100142,15.7872039 C15.0133523,15.7711111 15.0100142,15.7539438 15,15.74 C14.99,15.74 14.96,15.7 14.9,15.74 C14.84,15.78 14.84,15.67 14.84,15.6 L14.839,15.601 L14.83808,15.6048 L14.836,15.608 C14.8571429,15.5571429 14.7420408,15.4408163 14.6395335,15.4210496 L14.59,15.42 C14.48,15.44 14.5,15.31 14.41,15.36 C14.32,15.41 14.21,15.36 14.21,15.36 L14.21,15.36 L14.2177112,15.305 L14.2177112,15.305 L14.21,15.25 C14.2050699,15.2208158 14.1795948,15.1995865 14.15,15.2 L14.15,15.2 L14.15,15.01 C14.16,14.97 14.39,14.97 14.39,14.95 L14.39,14.95 L14.39,14.64 C14.39,14.57 14.32,14.55 14.39,14.48 Z M14.266845,15.6020713 C14.3097531,15.6028395 14.53,15.7677778 14.45,15.83 L14.45,15.83 L14.3985423,15.8351312 C14.3040816,15.8230612 14.26,15.6871429 14.26,15.61 L14.26,15.61 Z M1,15.73 C1.09,15.73 1.07,15.79 1.07,15.79 L1.07,15.79 L1.015,15.7973303 L1.015,15.7973303 L0.96,15.79 L0.9,15.79 C0.86,15.73 0.93,15.73 1,15.73 Z M0.746,14.37 L0.64,14.45 L0.52,14.45 L0.746,14.37 Z M0.86,14.33 L0.746,14.37 L0.8,14.33 L0.86,14.33 Z M7.71,13.992 L7.69,14.02 L7.69,14.02 C7.69666667,14.0111111 7.7,14.0066667 7.70333333,14.0022222 L7.71,13.992 Z M4.66,13.85 L4.66,13.88 L4.66588388,13.935 L4.66588388,13.935 L4.664,13.941 C4.6792,13.9172 4.708,13.858 4.66,13.85 Z M4.66,13.75 L4.65424,13.75944 C4.6408,13.7828 4.612,13.842 4.66,13.85 L4.66,13.85 L4.66,13.75 Z M14.35,13.09 C14.3600407,13.1157215 14.3600407,13.1442785 14.35,13.17 C14.3546835,13.1998172 14.3546835,13.2301828 14.35,13.26 L14.35,13.26 L14.35,13.4 L14.3528236,13.445 L14.3528236,13.445 L14.35,13.49 L14.35,13.54 C14.3242798,13.5946768 14.2905786,13.6452288 14.25,13.69 L14.25,13.69 L14.22875,13.6697222 C14.1697222,13.6211111 14.01,13.51 14.01,13.51 L14.01,13.51 L14.0058595,13.475 L14.0058595,13.475 L14.01,13.44 L14.0064873,13.395 L14.0064873,13.395 L14.01,13.35 L14.0457245,13.2789575 C14.0734132,13.2338601 14.1086219,13.1935967 14.15,13.16 C14.1874903,13.1271476 14.231936,13.1032154 14.28,13.09 L14.28,13.09 Z M14.46,12.21 C14.39,12.18 14.46,12.21 14.46,12.21 Z M16.41,11.27 C16.42,11.27 16.41,11.22 16.48,11.27 C16.55,11.32 16.55,11.27 16.55,11.32 C16.55,11.37 16.6,11.36 16.6,11.37 L16.6,11.37 L16.6,11.45 C16.5153233,11.5400343 16.4383844,11.6370442 16.37,11.74 L16.37,11.74 L16.31,11.8 L16.2777551,11.795102 C16.2177551,11.7681633 16.1871429,11.6457143 16.23,11.56 C16.2640007,11.4906077 16.2640007,11.4093923 16.23,11.34 L16.23,11.34 L16.214,11.37904 C16.1884,11.42 16.15,11.42 16.15,11.42 L16.15,11.42 L16.144,11.39792 C16.144,11.3704 16.176,11.348 16.24,11.3 C16.2897469,11.2660947 16.3516528,11.2551701 16.41,11.27 Z M18.5,9.55 L18.5,9.7 L18.50768,9.77648 C18.5256,9.876 18.564,9.964 18.5,10.02 C18.42,10.09 18.31,10.15 18.31,10.24 C18.355375,10.3383521 18.355375,10.4516479 18.31,10.55 C18.25,10.62 18.32,10.76 18.25,10.83 C18.2187111,10.8761253 18.1656736,10.902644 18.11,10.9 L18.11,10.9 L18.0859375,10.9340625 C18.055,10.970625 18.01,11.01 18.01,11.01 L18.01,11.01 L17.9803125,11.0064062 C17.956875,10.99375 17.9475,10.96 17.91,10.96 L17.91,10.96 L17.86,10.96 C17.8319454,11.0045214 17.7826121,11.0310855 17.73,11.03 C17.6917424,11.046697 17.6482576,11.046697 17.61,11.03 L17.61,11.03 C17.5876,11.0392 17.554,11.06 17.61,11.1 C17.68,11.15 17.62,11.14 17.54,11.23 C17.50345,11.2713974 17.4542216,11.2995279 17.4,11.31 L17.4,11.31 L17.33,11.31 C17.3252774,11.2936679 17.3252774,11.2763321 17.33,11.26 C17.33,11.2 17.34,11.11 17.33,11.11 L17.33,11.11 L17.169,11.109 L17.17,11.14 C17.17,11.212 17.1188,11.284 17.07272,11.30992 L17.04,11.32 C16.9709334,11.2915886 16.8917256,11.3223917 16.86,11.39 C16.85,11.45 16.8,11.45 16.8,11.45 L16.75,11.45 C16.73,11.45 16.75,11.27 16.75,11.27 L16.75,11.27 L16.7419907,11.2308796 C16.7364502,11.1896634 16.7384042,11.1417416 16.7559122,11.10899 L16.71,11.11 C16.68,11.17 16.56,11.17 16.49,11.17 L16.49,11.17 L16.4656944,11.1590278 C16.4275,11.1319444 16.4066667,11.0666667 16.49,11.05 C16.59,11.03 16.72,10.89 16.8,10.82 C16.8252011,10.8074968 16.8547989,10.8074968 16.88,10.82 L16.88,10.82 L17.35,10.82 C17.4,10.82 17.52,10.83 17.52,10.78 L17.52,10.78 L17.52,10.73 L17.5581767,10.6955192 C17.5791586,10.6686922 17.5907237,10.6350748 17.59,10.6 C17.59,10.5 17.73,10.43 17.73,10.43 L17.73,10.43 L17.7236682,10.4520762 C17.7219315,10.4671901 17.7251438,10.4826846 17.7331861,10.4960884 C17.7452494,10.5161939 17.7665777,10.5289246 17.79,10.53 C17.8127108,10.5376223 17.8372892,10.5376223 17.86,10.53 C17.96,10.45 18.02,10.48 18.04,10.39 C18.06,10.3 18.18,10.3 18.17,10.19 C18.16,10.08 18.37,9.97 18.27,9.92 C18.17,9.87 18.23,9.69 18.27,9.66 C18.31,9.63 18.5,9.55 18.5,9.55 L18.5,9.55 Z M15.84,10.33 L15.84,10.45 L15.83,10.421 L15.8308831,10.3898268 C15.8324026,10.3697403 15.8354416,10.3497403 15.84,10.33 Z M18.28,9.132 C18.319375,9.170625 18.37,9.21 18.37,9.21 L18.37,9.21 L18.3291332,9.24619986 L18.3291332,9.24619986 L18.28,9.27 L18.28,9.27 L18.28,9.132 Z M18.64,8.48 L18.7083133,8.56283214 C18.8053794,8.66757111 18.9256191,8.74892104 19.06,8.8 L19.06,8.8 L19.1056,8.77072 C19.1696,8.74 19.24,8.74 19.24,8.74 L19.24,8.74 L19.27096,8.73656 C19.3196,8.7212 19.39,8.67 19.39,8.67 L19.39,8.67 L19.35793,8.70262391 C19.2830612,8.7722449 19.1557143,8.86285714 19.19,8.88 C19.23,8.9 19.23,8.97 19.13,8.97 L19.13,8.97 L19.04,8.97 C18.92,8.97 18.82,9.03 18.8,9.1 C18.78,9.17 18.76,9.17 18.69,9.17 L18.69,9.17 L18.6491332,9.13380014 L18.6491332,9.13380014 L18.6,9.11 L18.28,9.109 L18.28,9.132 L18.26,9.109 L18.28,9.11 L18.31232,9.08704 C18.3376,9.0512 18.304,9 18.36,9 L18.36,9 L18.5,9 C18.51933,9.03865993 18.5663401,9.05432996 18.605,9.03499999 C18.6436599,9.01567003 18.65933,8.96865993 18.64,8.93 C18.6249786,8.90908426 18.6249786,8.88091574 18.64,8.86 C18.6533333,8.828 18.6533333,8.792 18.64,8.76 L18.64,8.76 L18.64,8.59 C18.6231415,8.57672738 18.6133013,8.55645626 18.6133013,8.535 C18.6133013,8.51354374 18.6231415,8.49327262 18.64,8.48 L18.64,8.48 Z M18.696,8.007 L18.710787,8.03902778 C18.7536111,8.12583333 18.83,8.23 18.83,8.23 L18.83,8.23 L18.83,8.39 L18.804,8.36672 C18.7736,8.3232 18.756,8.24 18.7,8.24 L18.7,8.24 L18.7040066,8.265 L18.7040066,8.265 L18.7,8.29 L18.6892573,8.18680627 C18.6856764,8.11777778 18.6892573,8.04847008 18.7,7.98 L18.696,8.007 Z M18.702,7.915 L18.7,7.98 L18.7,7.98 L18.696,8.007 L18.69,7.99 L18.702,7.915 Z M18.89,6.11 C18.91,6.15 18.91,6.27 19,6.34 C19.0150081,6.37513092 19.0150081,6.41486908 19,6.45 C18.9768617,6.55492256 18.9068139,6.64340396 18.81,6.69 C18.7951228,6.75245965 18.7951228,6.81754035 18.81,6.88 C18.84,6.97 18.93,7.13 18.93,7.28 L18.93,7.28 L18.9333955,7.355 L18.9333955,7.355 L18.93,7.43 L18.93,7.63 L18.93,7.63 L18.75,7.63 L18.7429156,7.665 L18.7429156,7.665 L18.75,7.7 C18.75,7.8 18.69,7.9 18.69,7.99 L18.702,7.915 L18.7032704,7.89 L18.7032704,7.89 L18.7,7.8 C18.7056777,7.77363554 18.7056777,7.74636446 18.7,7.72 C18.7,7.66 18.7,7.66 18.7,7.66 L18.6924695,7.62 L18.6924695,7.62 L18.7,7.58 C18.6954681,7.50006418 18.6954681,7.41993582 18.7,7.34 L18.7,7.34 L18.7,7.27 C18.721015,7.1643684 18.721015,7.0556316 18.7,6.95 C18.6603279,6.85452986 18.636677,6.75316901 18.63,6.65 C18.6548562,6.5473951 18.7302213,6.46449348 18.83,6.43 C18.8346785,6.41027361 18.8346785,6.38972639 18.83,6.37 C18.8326925,6.33338276 18.8326925,6.29661724 18.83,6.26 L18.83,6.26 L18.8646875,6.2459375 C18.89,6.220625 18.89,6.17 18.89,6.17 Z M18.8871875,6.104375 L18.89,6.11 L18.8825,6.095 C18.88375,6.0975 18.885625,6.10125 18.8871875,6.104375 Z M22.792,5.139 L22.79,5.16 L22.79,5.16 L22.7906944,5.15375 L22.792,5.139 Z M20.73,5.05 L20.7,5.05 C20.6771429,5.05 20.6608163,5.05 20.6510204,5.04650146 L20.646,5.042 C20.6767961,5.04211939 20.7035921,5.04474626 20.73,5.05 Z M22.585,4.169 L22.66,4.12 C22.6020247,4.15340459 22.5483015,4.19369703 22.5,4.24 C22.4584496,4.27523235 22.4214931,4.31554844 22.39,4.36 C22.3460475,4.42903536 22.2837123,4.48444443 22.21,4.52 L22.189,4.519 L22.20125,4.53125 C22.206875,4.539375 22.2115625,4.5478125 22.2173437,4.55484375 L22.24,4.57 L22.31,4.57 L22.31,4.57 C22.31,4.57 22.23,4.66 22.22,4.71 C22.21,4.76 22.22,4.77 22.27,4.78 L22.33,4.78 L22.33,4.85 L22.47,4.85 L22.47,4.85 L22.56,4.78 C22.5907799,4.74727888 22.6242286,4.71717507 22.66,4.69 C22.708853,4.65143207 22.7672596,4.62773125 22.828316,4.62099867 L22.89,4.62 L22.89,4.62 L22.89,4.52 C22.8849648,4.49021128 22.8849648,4.45978872 22.89,4.43 C22.7605583,4.41101521 22.6560532,4.32869374 22.6032931,4.2190592 L22.585,4.169 Z M23,3.68 C22.7928932,3.64962434 22.6003757,3.79289322 22.57,4 C22.5624061,4.0517767 22.565665,4.10264156 22.5780609,4.1502891 L22.585,4.169 L22.66,4.12 C22.6788274,4.10759023 22.6966687,4.0938006 22.7133824,4.07875823 L22.76,4.03 L22.79416,4.014 C22.83,3.9884 22.83,3.95 22.83,3.95 L22.83,3.95 L22.915,3.94638095 L22.915,3.94638095 L23,3.95 L23.12,3.95 C23.1255206,3.92699321 23.1255206,3.90300679 23.12,3.88 L23.12,3.88 L23.12,3.82 C23.1191841,3.76472804 23.1452929,3.71251044 23.19,3.68 L23.19,3.68 Z M23.31,3.67696938 L23.28,3.68 L23.34,3.68 C23.3202041,3.67595918 23.2997959,3.67595918 23.28,3.68 Z M23.19,3.68 L23.28,3.68 C23.2509569,3.66928415 23.2190431,3.66928415 23.19,3.68 Z"/>
    <path fill="#000E9C" d="M16.0002297,32 C9.52802404,32 3.69330099,28.1007033 1.21742565,22.1207785 C-1.25844968,16.1408538 0.112246897,9.25828889 4.6902107,4.68317131 C9.26817451,0.10805374 16.1515896,-1.25836127 22.129972,1.22123401 C28.1083544,3.7008293 32.0040188,9.53797788 32,16.0101834 C31.9890194,24.84045 24.8305,31.9945188 16.0002297,32 Z M16.0002297,0.985526846 C7.70234243,0.985526846 0.975575681,7.71229471 0.975575681,16.0101834 C0.975575681,24.3080721 7.70234243,31.0348399 16.0002297,31.0348399 C24.298117,31.0348399 31.0248838,24.3080721 31.0248838,16.0101834 C31.0193954,7.71456912 24.2958426,0.99101518 16.0002297,0.985526846 Z"/>
  </g>
</svg>
