<svg xmlns="http://www.w3.org/2000/svg" width="32" height="32" viewBox="0 0 32 32"><g fill="none" fill-rule="evenodd"><circle cx="16" cy="16" r="16" fill="#FFF"/><path fill="#000E9C" d="M24 29Zm1-2v1h-1 1v-1Zm-6 0h1v1h-1v-1Zm0 0Zm0 0Zm1 0Zm6-1v1-1Zm0 0Zm0 0Zm-8-5h1v1h1v-1 2h1v1h-1v2h-2v-1 1-1h-3l-1 1v-2h-1v-1h1v-1h2v-1l1 1v-1h1Zm8 5h-1 1Zm-8 0h-1 1Zm-1-1Zm0 0Zm3-1Zm-7 0Zm10-1h1-1Zm-3 0Zm-7 0Zm13-1Zm-6 0Zm0 0Zm6 0Zm0 0Zm-6 0Zm0-1v1-1Zm-1 0Zm-3 0Zm3-2v1h1v1l-1-1h-1v-1Zm4 2Zm-8-1h1-1Zm-1 0Zm8 0Zm0 0h1-1Zm-5-1c0-1 0-1 0 0h1v1-1h-2 1Zm5 1Zm-9 0h1-1Zm1 0h1-1Zm1 0Zm-4 0h2-2Zm2 0Zm9 0Zm-9 0Zm8-1v1-1ZM9 17v1h2v2-1h-1v-1H9v-1Zm12 2-1 1v-1h1Zm-6-1h-1l1 1v-1 1h-1v-1h1Zm6 1Zm0 0Zm-8-2 1 1v1h-2v-1h1v-1Zm8 2Zm-6 0h1-1Zm1 0Zm-4 0Zm5 0Zm-7 0Zm6-1Zm-6 0Zm6-18v1h1V0h1v1h1c2 0 5 1 7 3l-1 1h-2v1h-1a3 3 0 0 1 0-1h-5v1h1v2h-1v1h-1v1h-1 1v1h-1v-1h-1 1-1v1h1-1v1h1-1c1 0 0 0 0 0v2h-2v1-1 2h-2v1h1v1h-1v-3H9v-1 1-1H7v1H6v2l-1-1v-2H4v-1H1v-1H0h1l2-6 3-2c1-2 3-2 5-3l5-1Zm-1 16v1s0-1 0 0v-1Zm-9 0 1 1H6v-1Zm8 0v1-1Zm1 1Zm0-1s0 1 0 0Zm-5 0Zm5 0Zm-1-2h1v1s-1 0 0 0v1-1h-1v-1Zm0 2s1 0 0 0ZM1 16Zm0-2Zm0 0Zm7 0Zm-3 0Zm0 0Zm9-1v1-1Zm0-1Zm2-1h1l-1 1v-1Zm3-1h-1v1h-2 2v-1 1-1h1Zm-3 0Zm2-1Zm1-1v1h-1 1V8Zm0 0Zm0 0Zm0-2v2-2Zm0 0Zm4-1Zm-2 0Zm2-1h-1v1h1V4Zm0 0Zm0 0Zm0 0Z"/><path fill="#000E9C" d="M16 32a16 16 0 1 1 0-32 16 16 0 0 1 0 32Zm0-31a15 15 0 1 0 0 30 15 15 0 0 0 0-30Z"/></g></svg>