<svg width="36" height="24" xmlns="http://www.w3.org/2000/svg"><g fill="none"><path d="M36 0H18v1l-4 2h4v3h-4l4 2v1h-2l-6-3v3H7V6L2 9H0v15h36V0ZM10 16l-1-1-1 1v-2H6l2-1-1-1h1l1-1v1h2l-1 1 2 1h-2v2ZM26 2h2v1h-1l1 1-1-1-1 1 1-1h-1V2Zm-3 7V8l-1 1V8h-1 1V7l1-1v1h1l-1 1h1-1v1Zm5 7-1-1-1 1 1-1h-1v-1h2v1h-1l1 1Zm1-6h-1 1l-1-1h2l-1 1Zm3-2-1-1v1-1h-1l1-1h-1 1V5v1h1v2Z" fill="#24297F"/><path fill="#FFF" d="m10 13 1-1H9v-1l-1 1H7l1 1-2 1h2v2l1-1 1 1v-2h2zm18 2v-1h-2v1h1l-1 1 1-1 1 1-1-1h1zm-5-7 1-1h-1V6l-1 1v1h-1 1v1l1-1v1-1h1zm4-5-1 1 1-1 1 1-1-1h1V2h-2v1zm5 3h-1V5v1h-1 1l-1 1h1v1-1l1 1V7zm-3 3h-1l1 1h-1 1l1-1z"/><path fill="#1A3179" d="M11 9h5l-5-3zM0 6v2l4-2zm0-5v2h4L0 1Zm18 2V1l-4 2zm0 5V6h-4l4 2ZM8 0H2l6 3zM2 9h6V6z"/><path fill="#FFF" d="M8 3 2 0H0l6 3H5L0 1l4 2H0l5 1h3V0zm2 2v4h1V6l5 3h2l-6-3h1l5 2-4-2h4V5h-5zM0 5v1h4L0 8v1l6-3h1L2 9l6-3v3-4H5zm14-2 4-2V0l-6 3h-1l5-3-5 3V0h-1v4h3l5-1z"/><path fill="#FF2B2D" d="M13 4h-3V0H8v4H5L0 3v2h8v4h2V5h8V3z"/><path fill="#FF2B2D" d="M5 3h1L0 0v1zm6 0h1l6-3h-2zm1 3 6 3V8l-5-2zM6 6 0 9h2l5-3z"/><path fill="#1A3179" d="M16 0h-5v3z"/></g></svg>