<svg width="36" height="24" xmlns="http://www.w3.org/2000/svg"><g fill="none"><path fill="#1A3179" d="M21 24h10l-10-7zM0 16v6l8-6zM0 2v6h8L0 2Zm36 6V2l-8 6zm0 14v-6h-8l8 6ZM15 0H4l11 7zM4 24h11v-7z"/><path fill="#FFF" d="M15 7 4 0H0l12 8H9L0 2l8 6H0v1l10 1h6V0h-1zm5 8v9h1v-7l10 7h5l-12-8h3l9 6-8-6h8v-2H25zM0 14v2h8l-8 6v2l12-8h3L3 24h1l11-7v7h1v-9l-6-1zm28-6 8-6V0h-1L24 8h-3l12-8h-1L21 7V0h-1v10h5l11-1V8z"/><path fill="#FF2B2D" d="M25 10h-5V0h-4v10h-6L0 9v5h10l6 1v9h4v-9l5-1h11V9z"/><path fill="#FF2B2D" d="M9 8h3L0 0v2zm12 0h3l11-8h-2zm3 8 12 8v-2l-9-6zm-12 0L0 24h3l12-8z"/><path fill="#1A3179" d="M32 0H21v7z"/></g></svg>