<svg xmlns="http://www.w3.org/2000/svg" width="21.42" height="13.75"><g data-name="Groupe 29738"><g data-name="Flag/Singapore"><path d="M21.26 7.323V.002H0v7.321h21.26z" fill="#ed2939"/><path data-name="Shape" d="M21.1 13.51V7.323H0v6.187h21.1zM7.54 3.656a3.046 3.046 0 0 1-3.062 3.029 3.046 3.046 0 0 1-3.063-3.029A3.046 3.046 0 0 1 4.478.627a3.08 3.08 0 0 1 2.165.887 3.012 3.012 0 0 1 .897 2.142z" fill="#fff"/><path data-name="Shape" d="M8.507 3.656A2.879 2.879 0 0 1 5.618 6.52a2.879 2.879 0 0 1-2.9-2.86A2.879 2.879 0 0 1 5.609.794a2.911 2.911 0 0 1 2.049.837 2.847 2.847 0 0 1 .849 2.025z" fill="#ed2939"/><path d="m4.862 3.729-.42-.316-.417.316.161-.509-.417-.314h.515l.158-.509.158.509h.515l-.418.314zM8.122 3.729l-.416-.316-.413.316.16-.509-.418-.314h.515l.158-.509.158.509h.515l-.417.314zM6.491 2.531l-.414-.315-.417.316.161-.51-.418-.318h.516l.158-.5.159.51h.515l-.42.308zM5.468 5.646l-.415-.315-.412.316.156-.509-.418-.314h.516l.158-.51.158.51h.515l-.422.314zM7.513 5.646l-.416-.315-.416.316.158-.509-.418-.314h.515l.158-.51.159.51h.515l-.418.314z" fill="#fff"/></g><g data-name="Tracé 29350" fill="none"><path d="M0 .002h21.42v13.745L0 13.75z"/><path d="M21.22.2.2.202V13.55l21.02-.003V.2m.2-.2v13.747L0 13.75V.002L21.42 0z" fill="#c9c9c9"/></g></g></svg>