<svg xmlns="http://www.w3.org/2000/svg" width="200" height="134" viewBox="0 0 200 134">
  <g fill="none">
    <polygon fill="#FFF" points="0 113.47 200 113.47 200 123.79 0 123.79"/>
    <polygon fill="#FFF" points="0 72.2 0 82.51 200 82.51 200 72.2 100.95 72.2"/>
    <polygon fill="#FFF" points="100.95 51.55 200 51.55 200 61.87 100.95 61.87"/>
    <polygon fill="#FFF" points="0 92.83 200 92.83 200 103.15 0 103.15"/>
    <polygon fill="#FFF" points="100.95 30.92 200 30.92 200 41.24 100.95 41.24"/>
    <polygon fill="#FFF" points="100.95 10.28 200 10.28 200 20.6 100.95 20.6"/>
    <polygon fill="#DE1A30" points="100.95 20.6 200 20.6 200 30.92 100.95 30.92"/>
    <polygon fill="#DE1A30" points="100.95 41.24 200 41.24 200 51.56 100.95 51.56"/>
    <polygon fill="#DE1A30" points="100.95 61.88 200 61.88 200 72.2 100.95 72.2"/>
    <polygon fill="#DE1A30" points="0 82.51 200 82.51 200 92.83 0 92.83"/>
    <polygon fill="#DE1A30" points="0 103.15 200 103.15 200 113.47 0 113.47"/>
    <polygon fill="#DE1A30" points="0 123.75 200 123.75 200 134.07 0 134.07"/>
    <polygon fill="#DE1A30" points="100.95 0 200 0 200 10.32 100.95 10.32"/>
    <path fill="#112C67" d="M20.55,0 L0,0 L0,72.2 L101,72.2 L101,0 L20.55,0 Z M18.8,32.74 L16.38,31 L14,32.74 L14.93,29.88 L12.5,28.12 L15.5,28.12 L16.43,25.26 L17.35,28.12 L20.35,28.12 L17.93,29.88 L18.8,32.74 Z M10.35,40 L7.92,38.21 L5.5,40 L6.42,37.15 L4,35.36 L7,35.36 L7.93,32.51 L8.85,35.36 L11.85,35.36 L9.43,37.13 L10.35,40 Z M6.79,20.32 L7.12,19.32 L8.32,19.32 L8.65,20.32 L11.65,20.32 L9.22,22.08 L10.15,24.94 L7.72,23.17 L5.29,24.94 L6.22,22.08 L3.79,20.32 L6.79,20.32 Z M6.91,49.32 L7.84,46.46 L8.77,49.32 L11.77,49.32 L9.34,51.12 L10.27,54 L7.84,52.21 L5.41,54 L6.34,51.14 L3.91,49.36 L6.91,49.32 Z M10.6,68.05 L8.17,66.29 L5.75,68.05 L6.67,65.2 L4.24,63.43 L7.24,63.43 L8.17,60.58 L9.1,63.43 L12.1,63.43 L9.67,65.2 L10.6,68.05 Z M15.36,42.12 L16.29,39.26 L17.21,42.12 L20.21,42.12 L17.78,43.88 L18.7,46.74 L16.29,45 L13.86,46.77 L14.79,43.91 L12.36,42.15 L15.36,42.12 Z M19.05,60.81 L16.63,59 L14.2,60.81 L15.12,58 L12.7,56.19 L15.7,56.19 L16.62,53.33 L17.55,56.19 L20.55,56.19 L18.13,58 L19.05,60.81 Z M94.87,40 L92.44,38.24 L90,40 L90.93,37.15 L88.5,35.38 L91.5,35.38 L92.43,32.53 L93.35,35.38 L96.35,35.38 L93.92,37.15 L94.87,40 Z M91.3,5.83 L92.23,3 L93.16,5.86 L96.16,5.86 L93.73,7.59 L94.66,10.45 L92.23,8.68 L89.8,10.45 L90.73,7.59 L88.3,5.83 L91.3,5.83 Z M86.41,32.74 L84,31 L81.57,32.77 L82.5,29.91 L80.07,28.15 L83.07,28.15 L84,25.26 L84.93,28.12 L87.93,28.12 L85.51,29.88 L86.41,32.74 Z M78,40 L75.57,38.24 L73.11,40 L74,37.13 L71.6,35.36 L74.6,35.36 L75.53,32.51 L76.46,35.36 L79.46,35.36 L77,37.13 L78,40 Z M74.4,5.83 L75.33,3 L76.26,5.86 L79.26,5.86 L76.83,7.59 L77.76,10.45 L75.33,8.68 L72.9,10.45 L73.83,7.59 L71.4,5.83 L74.4,5.83 Z M69.51,32.74 L67.08,31 L64.65,32.77 L65.58,29.91 L63.15,28.15 L66.15,28.15 L67.07,25.29 L68,28.12 L71,28.12 L68.57,29.88 L69.51,32.74 Z M61.06,40 L58.63,38.24 L56.2,40 L57.13,37.14 L54.7,35.36 L57.7,35.36 L58.63,32.51 L59.56,35.36 L62.56,35.36 L60.13,37.13 L61.06,40 Z M57.5,5.83 L58.43,3 L59.35,5.86 L62.35,5.86 L59.93,7.59 L60.86,10.45 L58.43,8.68 L56,10.45 L56.93,7.59 L54.5,5.83 L57.5,5.83 Z M52.61,32.74 L50.18,31 L47.75,32.77 L48.68,29.91 L46.25,28.15 L49.25,28.15 L50.18,25.29 L51.11,28.15 L54.11,28.15 L51.68,29.91 L52.61,32.74 Z M44.16,40 L41.73,38.24 L39.3,40 L40.23,37.15 L37.8,35.36 L40.8,35.36 L41.73,32.51 L42.66,35.36 L45.66,35.36 L43.23,37.13 L44.16,40 Z M40.6,5.83 L41.53,3 L42.45,5.86 L45.45,5.86 L43,7.59 L44,10.45 L41.53,8.68 L39.1,10.45 L40,7.59 L37.6,5.83 L40.6,5.83 Z M35.71,32.74 L33.28,31 L30.85,32.77 L31.78,29.91 L29.35,28.15 L32.35,28.15 L33.28,25.29 L34.21,28.15 L37.21,28.15 L34.78,29.91 L35.71,32.74 Z M27.26,40 L24.83,38.24 L22.4,40 L23.32,37.14 L20.9,35.36 L23.9,35.36 L24.83,32.51 L25.76,35.36 L28.76,35.36 L26.33,37.13 L27.26,40 Z M23.7,5.83 L24.62,3 L25.55,5.86 L28.55,5.86 L26.12,7.59 L27.05,10.45 L24.62,8.68 L22.19,10.45 L23.12,7.59 L20.7,5.83 L23.7,5.83 Z M23.7,20.32 L24.62,17.46 L25.55,20.32 L28.55,20.32 L26.12,22.08 L27.05,24.94 L24.62,23.17 L22.19,24.94 L23.12,22.08 L20.7,20.32 L23.7,20.32 Z M23.81,49.32 L24.74,46.46 L25.67,49.32 L28.67,49.32 L26.24,51.08 L27.17,54 L24.74,52.23 L22.31,54 L23.24,51.14 L20.81,49.38 L23.81,49.32 Z M27.5,68.05 L25.07,66.29 L22.65,68.05 L23.57,65.2 L21.15,63.43 L24.15,63.43 L25.07,60.58 L26,63.43 L29,63.43 L26.57,65.2 L27.5,68.05 Z M32.15,13.05 L33.07,10.2 L34,13.07 L37,13.07 L34.57,14.84 L35.5,17.69 L33.07,15.92 L30.65,17.69 L31.57,14.84 L29.14,13.07 L32.15,13.05 Z M32.26,42.1 L33.19,39.24 L34.12,42.1 L37.12,42.1 L34.69,43.86 L35.62,46.72 L33.19,45 L30.76,46.77 L31.69,43.91 L29.26,42.15 L32.26,42.1 Z M36,60.81 L33.53,59 L31.1,60.81 L32,58 L29.6,56.19 L32.6,56.19 L33.53,53.33 L34.46,56.19 L37.46,56.19 L35,58 L36,60.81 Z M40.6,20.32 L41.53,17.46 L42.45,20.32 L45.45,20.32 L43,22.08 L44,24.94 L41.57,23.17 L39.1,24.94 L40,22.08 L37.6,20.32 L40.6,20.32 Z M40.71,49.32 L41.64,46.46 L42.57,49.32 L45.57,49.32 L43.14,51.08 L44.07,54 L41.64,52.23 L39.21,54 L40.14,51.14 L37.71,49.38 L40.71,49.32 Z M44.41,68.01 L42,66.29 L39.57,68.05 L40.5,65.2 L38.07,63.43 L41.07,63.43 L42,60.58 L42.92,63.43 L45.92,63.43 L43.48,65.2 L44.41,68.01 Z M49.05,13.01 L50,10.22 L50.92,13.07 L53.92,13.07 L51.49,14.83 L52.42,17.69 L50,15.92 L47.57,17.69 L48.5,14.84 L46.07,13.07 L49.05,13.01 Z M49.16,42.06 L50.09,39.2 L51,42.12 L54,42.12 L51.57,43.88 L52.5,46.74 L50.09,45 L47.66,46.77 L48.59,43.91 L46.16,42.15 L49.16,42.06 Z M52.86,60.75 L50.43,59 L48,60.81 L48.93,58 L46.5,56.19 L49.5,56.19 L50.43,53.33 L51.36,56.19 L54.36,56.19 L51.93,58 L52.86,60.75 Z M57.5,20.32 L58.43,17.46 L59.35,20.32 L62.35,20.32 L59.92,22.08 L60.85,24.94 L58.42,23.17 L56,24.94 L56.93,22.08 L54.5,20.32 L57.5,20.32 Z M57.61,49.32 L58.54,46.46 L59.47,49.32 L62.47,49.32 L60,51.12 L61,54 L58.57,52.23 L56.11,54 L57,51.12 L54.57,49.36 L57.61,49.32 Z M61.31,68.01 L58.88,66.25 L56.45,68.01 L57.38,65.16 L55,63.43 L58,63.43 L58.93,60.58 L59.86,63.43 L62.86,63.43 L60.38,65.2 L61.31,68.01 Z M65.95,13.01 L66.88,10.16 L67.8,13.01 L70.8,13.01 L68.37,14.78 L69.3,17.63 L66.87,15.87 L64.44,17.63 L65.37,14.78 L63,13.07 L65.95,13.01 Z M66.07,42.06 L67,39.26 L67.92,42.12 L70.92,42.12 L68.5,43.88 L69.42,46.74 L67,45 L64.58,46.77 L65.5,43.91 L63.08,42.15 L66.07,42.06 Z M69.76,60.75 L67.33,59 L64.9,60.81 L65.83,58 L63.4,56.19 L66.4,56.19 L67.33,53.33 L68.26,56.19 L71.26,56.19 L68.83,58 L69.76,60.75 Z M74.4,20.32 L75.33,17.46 L76.26,20.32 L79.26,20.32 L76.83,22.08 L77.76,24.94 L75.33,23.17 L72.9,24.94 L73.83,22.08 L71.4,20.32 L74.4,20.32 Z M74.52,49.32 L75.45,46.46 L76.37,49.32 L79.37,49.32 L77,51.12 L77.87,54 L75.45,52.23 L73,54 L74,51.12 L71.57,49.36 L74.52,49.32 Z M78.21,68.01 L75.78,66.25 L73.35,68.01 L74.28,65.16 L71.85,63.39 L74.85,63.39 L75.78,60.54 L76.71,63.39 L79.71,63.39 L77.28,65.2 L78.21,68.01 Z M82.85,13.01 L83.78,10.16 L84.71,13.01 L87.71,13.01 L85.28,14.77 L86.21,17.63 L83.78,15.86 L81.35,17.63 L82.28,14.78 L79.85,13.01 L82.85,13.01 Z M83,42.12 L83.93,39.26 L84.85,42.12 L87.85,42.12 L85.4,43.88 L86.33,46.74 L83.9,45 L81.47,46.77 L82.39,43.91 L80,42.12 L83,42.12 Z M86.69,60.81 L84.23,59 L81.8,60.81 L82.73,58 L80.3,56.19 L83.3,56.19 L84.23,53.33 L85.16,56.19 L88.16,56.19 L85.73,58 L86.69,60.81 Z M91.3,20.32 L92.23,17.46 L93.16,20.32 L96.16,20.32 L93.73,22.08 L94.66,24.94 L92.23,23.17 L89.8,24.94 L90.73,22.08 L88.3,20.32 L91.3,20.32 Z M91.42,49.32 L92.35,46.46 L93.28,49.32 L96.28,49.32 L93.85,51.08 L94.78,54 L92.35,52.23 L89.92,54 L90.85,51.14 L88.42,49.38 L91.42,49.32 Z M95.11,68.01 L92.68,66.25 L90.26,68.01 L91.18,65.16 L88.75,63.39 L91.75,63.39 L92.67,60.54 L93.6,63.39 L96.6,63.39 L94.18,65.2 L95.11,68.01 Z"/>
    <polygon fill="#FFF" points="5.29 10.45 7.72 8.68 10.15 10.45 9.22 7.59 11.65 5.83 8.65 5.83 7.72 3 6.79 5.83 4.24 5.83 4.06 6 6.22 7.59"/>
    <polygon fill="#FFF" points="22.19 10.45 24.62 8.68 27.05 10.45 26.12 7.59 28.55 5.83 25.55 5.83 24.62 2.97 23.7 5.83 20.7 5.83 23.12 7.59"/>
    <polygon fill="#FFF" points="39.1 10.45 41.52 8.68 43.95 10.45 43.03 7.59 45.46 5.83 42.45 5.83 41.52 2.97 40.6 5.83 37.6 5.83 40.02 7.59"/>
    <polygon fill="#FFF" points="56 10.45 58.43 8.68 60.86 10.45 59.93 7.59 62.36 5.83 59.35 5.83 58.43 2.97 57.5 5.83 54.5 5.83 56.93 7.59"/>
    <polygon fill="#FFF" points="72.9 10.45 75.33 8.68 77.76 10.45 76.83 7.59 79.26 5.83 76.26 5.83 75.33 2.97 74.4 5.83 71.4 5.83 73.83 7.59"/>
    <polygon fill="#FFF" points="89.81 10.45 92.23 8.68 94.66 10.45 93.73 7.59 96.16 5.83 93.16 5.83 92.23 2.97 91.3 5.83 88.31 5.83 90.73 7.59"/>
    <polygon fill="#FFF" points="13.74 17.69 16.17 15.93 18.6 17.69 17.67 14.84 20.1 13.07 17.1 13.07 16.17 10.22 15.24 13.07 12.24 13.07 14.67 14.84"/>
    <polygon fill="#FFF" points="30.65 17.69 33.07 15.92 35.5 17.69 34.57 14.84 37 13.07 34 13.07 33.07 10.22 32.15 13.07 29.14 13.07 31.57 14.84"/>
    <polygon fill="#FFF" points="47.55 17.69 49.98 15.93 52.41 17.69 51.48 14.83 53.91 13.07 50.9 13.07 49.98 10.22 49.05 13.07 46.05 13.07 48.48 14.84"/>
    <polygon fill="#FFF" points="64.45 17.69 66.88 15.93 69.31 17.69 68.38 14.84 70.81 13.07 67.81 13.07 66.88 10.22 65.95 13.07 62.95 13.07 65.38 14.84"/>
    <polygon fill="#FFF" points="81.35 17.69 83.78 15.93 86.21 17.69 85.28 14.83 87.71 13.07 84.71 13.07 83.78 10.22 82.85 13.07 79.85 13.07 82.28 14.84"/>
    <polygon fill="#FFF" points="5.29 24.94 7.72 23.17 10.15 24.94 9.22 22.08 11.65 20.32 8.65 20.32 7.72 17.46 6.79 20.32 3.79 20.32 6.22 22.08"/>
    <polygon fill="#FFF" points="22.19 24.94 24.62 23.17 27.05 24.94 26.12 22.08 28.55 20.32 25.55 20.32 24.62 17.46 23.7 20.32 20.7 20.32 23.12 22.08"/>
    <polygon fill="#FFF" points="39.1 24.94 41.52 23.17 43.95 24.94 43.03 22.08 45.46 20.32 42.45 20.32 41.52 17.46 40.6 20.32 37.6 20.32 40.02 22.08"/>
    <polygon fill="#FFF" points="56 24.94 58.43 23.17 60.86 24.94 59.93 22.08 62.36 20.32 59.35 20.32 58.43 17.46 57.5 20.32 54.5 20.32 56.93 22.08"/>
    <polygon fill="#FFF" points="72.9 24.94 75.33 23.17 77.76 24.94 76.83 22.08 79.26 20.32 76.26 20.32 75.33 17.46 74.4 20.32 71.4 20.32 73.83 22.08"/>
    <polygon fill="#FFF" points="89.81 24.94 92.23 23.17 94.66 24.94 93.73 22.08 96.16 20.32 93.16 20.32 92.23 17.46 91.3 20.32 88.31 20.32 90.73 22.08"/>
    <polygon fill="#FFF" points="17.3 28.12 16.38 25.26 15.45 28.12 12.45 28.12 14.88 29.88 13.95 32.73 16.38 30.97 18.8 32.73 17.88 29.88 20.3 28.12"/>
    <polygon fill="#FFF" points="34.2 28.12 33.28 25.26 32.35 28.12 29.35 28.12 31.78 29.88 30.85 32.73 33.28 30.97 35.71 32.73 34.78 29.88 37.21 28.12"/>
    <polygon fill="#FFF" points="51.11 28.12 50.18 25.26 49.25 28.12 46.25 28.12 48.68 29.88 47.75 32.73 50.18 30.97 52.61 32.73 51.68 29.88 54.11 28.12"/>
    <polygon fill="#FFF" points="68.01 28.12 67.08 25.26 66.16 28.12 63.15 28.12 65.58 29.88 64.65 32.73 67.08 30.97 69.51 32.73 68.58 29.88 71.01 28.12"/>
    <polygon fill="#FFF" points="84.91 28.12 83.98 25.26 83.06 28.12 80.05 28.12 82.48 29.88 81.56 32.73 83.98 30.97 86.41 32.73 85.49 29.88 87.91 28.12"/>
    <polygon fill="#FFF" points="8.85 35.36 7.93 32.51 7 35.36 4 35.36 6.42 37.13 5.5 39.98 7.92 38.22 10.35 39.98 9.43 37.13 11.86 35.36"/>
    <polygon fill="#FFF" points="25.76 35.36 24.83 32.51 23.9 35.36 20.9 35.36 23.32 37.13 22.4 39.98 24.83 38.22 27.26 39.98 26.33 37.13 28.76 35.36"/>
    <polygon fill="#FFF" points="42.66 35.36 41.73 32.51 40.8 35.36 37.8 35.36 40.23 37.13 39.3 39.98 41.73 38.22 44.16 39.98 43.23 37.13 45.66 35.36"/>
    <polygon fill="#FFF" points="59.56 35.36 58.63 32.51 57.7 35.36 54.7 35.36 57.13 37.13 56.2 39.98 58.63 38.22 61.06 39.98 60.13 37.13 62.56 35.36"/>
    <polygon fill="#FFF" points="76.46 35.36 75.53 32.51 74.6 35.36 71.6 35.36 74.03 37.13 73.11 39.98 75.53 38.22 77.96 39.98 77.03 37.13 79.46 35.36"/>
    <polygon fill="#FFF" points="93.36 35.36 92.44 32.51 91.51 35.36 88.51 35.36 90.94 37.13 90.01 39.98 92.44 38.22 94.86 39.98 93.94 37.13 96.36 35.36"/>
    <polygon fill="#FFF" points="13.86 46.74 16.29 44.97 18.71 46.74 17.79 43.88 20.22 42.12 17.21 42.12 16.29 39.26 15.36 42.12 12.36 42.12 14.79 43.88"/>
    <polygon fill="#FFF" points="30.76 46.74 33.19 44.97 35.62 46.74 34.69 43.88 37.12 42.12 34.12 42.12 33.19 39.26 32.26 42.12 29.26 42.12 31.69 43.88"/>
    <polygon fill="#FFF" points="47.66 46.74 50.09 44.97 52.52 46.74 51.59 43.88 54.02 42.12 51.02 42.12 50.09 39.26 49.16 42.12 46.16 42.12 48.59 43.88"/>
    <polygon fill="#FFF" points="64.57 46.74 66.99 44.97 69.42 46.74 68.5 43.88 70.92 42.12 67.92 42.12 67 39.26 66.07 42.12 63.07 42.12 65.49 43.88"/>
    <polygon fill="#FFF" points="81.47 46.74 83.9 44.97 86.33 46.74 85.4 43.88 87.83 42.12 84.82 42.12 83.9 39.26 82.97 42.12 79.97 42.12 82.39 43.88"/>
    <polygon fill="#FFF" points="5.41 53.98 7.84 52.21 10.27 53.98 9.34 51.12 11.77 49.36 8.77 49.36 7.84 46.5 6.91 49.36 3.91 49.36 6.34 51.13"/>
    <polygon fill="#FFF" points="22.31 53.98 24.74 52.21 27.17 53.98 26.24 51.12 28.67 49.36 25.67 49.36 24.74 46.5 23.81 49.36 20.81 49.36 23.24 51.12"/>
    <polygon fill="#FFF" points="39.22 53.98 41.64 52.21 44.07 53.98 43.14 51.12 45.57 49.36 42.57 49.36 41.64 46.5 40.71 49.36 37.71 49.36 40.14 51.13"/>
    <polygon fill="#FFF" points="56.11 53.98 58.54 52.21 60.97 53.98 60.05 51.12 62.47 49.36 59.47 49.36 58.54 46.5 57.61 49.36 54.61 49.36 57.04 51.12"/>
    <polygon fill="#FFF" points="73.02 53.98 75.44 52.21 77.87 53.98 76.94 51.13 79.38 49.36 76.37 49.36 75.44 46.5 74.52 49.36 71.52 49.36 73.94 51.12"/>
    <polygon fill="#FFF" points="89.92 53.98 92.35 52.21 94.78 53.98 93.85 51.12 96.28 49.36 93.28 49.36 92.35 46.5 91.42 49.36 88.42 49.36 90.85 51.12"/>
    <polygon fill="#FFF" points="17.55 56.19 16.62 53.33 15.7 56.19 12.7 56.19 15.12 57.95 14.2 60.81 16.63 59.04 19.05 60.81 18.13 57.95 20.55 56.19"/>
    <polygon fill="#FFF" points="34.45 56.19 33.53 53.33 32.6 56.19 29.6 56.19 32.02 57.95 31.1 60.81 33.52 59.04 35.95 60.81 35.02 57.95 37.46 56.19"/>
    <polygon fill="#FFF" points="51.36 56.19 50.43 53.33 49.5 56.19 46.5 56.19 48.93 57.95 48 60.81 50.43 59.04 52.86 60.81 51.93 57.95 54.36 56.19"/>
    <polygon fill="#FFF" points="68.26 56.19 67.33 53.33 66.4 56.19 63.4 56.19 65.83 57.95 64.9 60.81 67.33 59.04 69.76 60.81 68.83 57.95 71.26 56.19"/>
    <polygon fill="#FFF" points="85.16 56.19 84.23 53.33 83.31 56.19 80.3 56.19 82.73 57.95 81.81 60.81 84.23 59.04 86.66 60.81 85.73 57.95 88.16 56.19"/>
    <polygon fill="#FFF" points="9.1 63.43 8.17 60.58 7.24 63.43 4.24 63.43 6.67 65.2 5.75 68.05 8.17 66.29 10.6 68.05 9.67 65.2 12.1 63.43"/>
    <polygon fill="#FFF" points="26 63.43 25.07 60.58 24.15 63.43 21.15 63.43 23.57 65.2 22.65 68.05 25.07 66.29 27.5 68.05 26.57 65.2 29 63.43"/>
    <polygon fill="#FFF" points="42.9 63.43 41.98 60.58 41.05 63.43 38.05 63.43 40.48 65.2 39.55 68.05 41.98 66.29 44.41 68.05 43.48 65.2 45.91 63.43"/>
    <polygon fill="#FFF" points="59.81 63.43 58.88 60.58 57.95 63.43 54.95 63.43 57.38 65.2 56.45 68.05 58.88 66.29 61.31 68.05 60.38 65.2 62.81 63.43"/>
    <polygon fill="#FFF" points="76.71 63.43 75.78 60.58 74.85 63.43 71.85 63.43 74.28 65.2 73.35 68.05 75.78 66.29 78.21 68.05 77.28 65.2 79.71 63.43"/>
    <polygon fill="#FFF" points="96.61 63.43 93.61 63.43 92.68 60.58 91.76 63.43 88.75 63.43 91.18 65.2 90.26 68.05 92.68 66.29 95.11 68.05 94.18 65.2"/>
  </g>
</svg>
