<svg xmlns="http://www.w3.org/2000/svg" width="200" height="134"><g fill="none"><path fill="#FFF" d="M0 113h200v11H0zm0-41v11h200V72h-99zm101-20h99v10h-99zM0 93h200v10H0zm101-62h99v10h-99zm0-21h99v11h-99z"/><path fill="#DE1A30" d="M101 21h99v10h-99zm0 20h99v11h-99zm0 21h99v10h-99zM0 83h200v10H0zm0 20h200v10H0zm0 21h200v10H0zM101 0h99v10h-99z"/><path fill="#112C67" d="M21 0H0v72h101V0H21Zm-2 33-3-2-2 2 1-3-2-2h3v-3l1 3h3l-2 2 1 3Zm-9 7-2-2-2 2v-3l-2-2h3l1-2 1 2h3l-3 2 1 3ZM7 20v-1h1l1 1h3l-3 2 1 3-2-2-3 2 1-3-2-2h3Zm0 29 1-3 1 3h3l-3 2 1 3-2-2-3 2 1-3-2-2h3Zm4 19-3-2-2 2 1-3-3-2h3l1-2 1 2h3l-2 2 1 3Zm4-26 1-3 1 3h3l-2 2 1 3-3-2-2 2 1-3-3-2h3Zm4 19-2-2-3 2 1-3-2-2h3l1-3 1 3h3l-3 2 1 3Zm76-21-3-2-2 2 1-3-2-2h3v-2l1 2h3l-2 2 1 3ZM91 6l1-3 1 3h3l-2 2 1 2-3-1-2 1 1-2-3-2h3Zm-5 27-2-2-2 2 1-3-3-2h3l1-3 1 3h3l-2 2v3Zm-8 7-2-2-3 2 1-3-2-2h3l1-2v2h3l-2 2 1 3ZM74 6l1-3 1 3h3l-2 2 1 2-3-1-2 1 1-2-3-2h3Zm-4 27-3-2-2 2 1-3-3-2h3l1-3 1 3h3l-2 2 1 3Zm-9 7-2-2-3 2 1-3-2-2h3l1-2 1 2h3l-3 2 1 3ZM58 6V3l1 3h3l-2 2 1 2-3-1-2 1 1-2-2-2h3Zm-5 27-3-2-2 2 1-3-3-2h3l1-3 1 3h3l-2 2 1 3Zm-9 7-2-2-3 2 1-3-2-2h3l1-2 1 2h3l-3 2 1 3ZM41 6l1-3v3h3l-2 2 1 2-2-1-3 1 1-2-2-2h3Zm-5 27-3-2-2 2 1-3-3-2h3l1-3 1 3h3l-2 2 1 3Zm-9 7-2-2-3 2 1-3-2-2h3l1-2 1 2h3l-3 2 1 3ZM24 6l1-3 1 3h3l-3 2 1 2-2-1-3 1 1-2-2-2h3Zm0 14 1-3 1 3h3l-3 2 1 3-2-2-3 2 1-3-2-2h3Zm0 29 1-3 1 3h3l-3 2 1 3-2-2-3 2 1-3-2-2h3Zm4 19-3-2-2 2 1-3-3-2h3l1-2 1 2h3l-2 2 1 3Zm4-55 1-3 1 3h3l-2 2 1 3-3-2-2 2 1-3-3-2h3Zm0 29 1-3 1 3h3l-2 2 1 3-3-2-2 2 1-3-3-2h3Zm4 19-2-2-3 2 1-3-2-2h3l1-3v3h3l-2 2 1 3Zm5-41 1-3v3h3l-2 2 1 3-2-2-3 2 1-3-2-2h3Zm0 29 1-3 1 3h3l-3 2 1 3-2-2-3 2 1-3-2-2h3Zm3 19-2-2-2 2 1-3-3-2h3l1-2 1 2h3l-3 2 1 3Zm5-55 1-3 1 3h3l-3 2 1 3-2-2-2 2 1-3-3-2h3Zm0 29 1-3 1 3h3l-2 2 1 3-3-2-2 2 1-3-3-2h3Zm4 19-3-2-2 2 1-3-2-2h3v-3l1 3h3l-2 2 1 3Zm5-41v-3l1 3h3l-2 2 1 3-3-2-2 2 1-3-2-2h3Zm0 29 1-3v3h3l-2 2 1 3-2-2-3 2 1-3-2-2h3Zm3 19-2-2-3 2 1-3-2-2h3l1-2 1 2h3l-3 2 1 3Zm5-55 1-3 1 3h3l-3 2 1 3-2-2-3 2 1-3-2-2h3Zm0 29 1-3 1 3h3l-2 2v3l-2-2-2 2 1-3-3-2h3Zm4 19-3-2-2 2 1-3-3-2h3l1-3 1 3h3l-2 2 1 3Zm4-41 1-3 1 3h3l-2 2 1 3-3-2-2 2 1-3-3-2h3Zm1 29v-3l1 3h3l-2 2 1 3-3-2-2 2 1-3-2-2h3Zm3 19-2-2-3 2 1-3-2-2h3l1-2 1 2h3l-3 2 1 3Zm5-55 1-3 1 3h3l-3 2 1 3-2-2-3 2 1-3-2-2h3Zm0 29 1-3 1 3h3l-3 2 1 3-2-2-3 2 1-3-2-2h3Zm4 19-3-2-2 2 1-3-3-2h3l1-3 1 3h3l-2 2 1 3Zm4-41 1-3 1 3h3l-2 2 1 3-3-2-2 2 1-3-3-2h3Zm0 29 1-3 1 3h3l-2 2 1 3-3-2-2 2 1-3-3-2h3Zm4 19-2-2-3 2 1-3-2-2h3l1-2 1 2h3l-3 2 1 3Z"/><path fill="#FFF" d="m5 10 3-1 2 1-1-2 3-2H9L8 3 7 6H4l2 2zm17 0 3-1 2 1-1-2 3-2h-3l-1-3-1 3h-3l2 2zm17 0 3-1 2 1-1-2 2-2h-3V3l-1 3h-3l2 2zm17 0 2-1 3 1-1-2 2-2h-3l-1-3v3h-3l2 2zm17 0 2-1 3 1-1-2 2-2h-3l-1-3-1 3h-3l3 2zm17 0 2-1 3 1-1-2 2-2h-3l-1-3-1 3h-3l3 2zm-76 8 2-2 3 2-1-3 2-2h-3l-1-3-1 3h-3l3 2zm17 0 2-2 3 2-1-3 2-2h-3l-1-3-1 3h-3l3 2zm17 0 2-2 2 2-1-3 3-2h-3l-1-3-1 3h-3l2 2zm16 0 3-2 2 2-1-3 3-2h-3l-1-3-1 3h-3l2 2zm17 0 3-2 2 2-1-3 3-2h-3l-1-3-1 3h-3l2 2zM5 25l3-2 2 2-1-3 3-2H9l-1-3-1 3H4l2 2zm17 0 3-2 2 2-1-3 3-2h-3l-1-3-1 3h-3l2 2zm17 0 3-2 2 2-1-3 2-2h-3v-3l-1 3h-3l2 2zm17 0 2-2 3 2-1-3 2-2h-3l-1-3v3h-3l2 2zm17 0 2-2 3 2-1-3 2-2h-3l-1-3-1 3h-3l3 2zm17 0 2-2 3 2-1-3 2-2h-3l-1-3-1 3h-3l3 2zm-73 3-1-3-1 3h-3l3 2-1 3 2-2 3 2-1-3 2-2zm17 0-1-3-1 3h-3l3 2-1 3 2-2 3 2-1-3 2-2zm17 0-1-3-1 3h-3l3 2-1 3 2-2 3 2-1-3 2-2zm17 0-1-3-1 3h-3l3 2-1 3 2-2 3 2-1-3 2-2zm17 0-1-3-1 3h-3l2 2v3l2-2 2 2-1-3 3-2zM9 35l-1-2-1 2H4l2 2v3l2-2 2 2-1-3 3-2zm17 0-1-2-1 2h-3l2 2-1 3 3-2 2 2-1-3 3-2zm17 0-1-2-1 2h-3l2 2-1 3 3-2 2 2-1-3 3-2zm17 0-1-2-1 2h-3l2 2-1 3 3-2 2 2-1-3 3-2zm16 0v-2l-1 2h-3l2 2-1 3 3-2 2 2-1-3 2-2zm17 0-1-2v2h-3l2 2-1 3 2-2 3 2-1-3 2-2zM14 47l2-2 3 2-1-3 2-2h-3l-1-3-1 3h-3l3 2zm17 0 2-2 3 2-1-3 2-2h-3l-1-3-1 3h-3l3 2zm17 0 2-2 3 2-1-3 2-2h-3l-1-3-1 3h-3l3 2zm17 0 2-2 2 2v-3l2-2h-3l-1-3-1 3h-3l2 2zm16 0 3-2 2 2-1-3 3-2h-3l-1-3-1 3h-3l2 2zM5 54l3-2 2 2-1-3 3-2H9l-1-2-1 2H4l2 2zm17 0 3-2 2 2-1-3 3-2h-3l-1-2-1 2h-3l2 2zm17 0 3-2 2 2-1-3 3-2h-3l-1-2-1 2h-3l2 2zm17 0 3-2 2 2-1-3 2-2h-3v-2l-1 2h-3l2 2zm17 0 2-2 3 2-1-3 2-2h-3l-1-2v2h-3l2 2zm17 0 2-2 3 2-1-3 2-2h-3l-1-2-1 2h-3l3 2zm-72 2-1-3-1 3h-3l2 2-1 3 3-2 2 2-1-3 3-2zm16 0v-3l-1 3h-3l2 2-1 3 3-2 2 2-1-3 2-2zm17 0-1-3v3h-3l2 2-1 3 2-2 3 2-1-3 2-2zm17 0-1-3-1 3h-3l3 2-1 3 2-2 3 2-1-3 2-2zm17 0-1-3-1 3h-3l3 2-1 3 2-2 3 2-1-3 2-2zM9 63l-1-2-1 2H4l3 2-1 3 2-2 3 2-1-3 2-2zm17 0-1-2-1 2h-3l3 2-1 3 2-2 3 2-1-3 2-2zm17 0-1-2-1 2h-3l2 2v3l2-2 2 2-1-3 3-2zm17 0-1-2-1 2h-3l2 2-1 3 3-2 2 2-1-3 3-2zm17 0-1-2-1 2h-3l2 2-1 3 3-2 2 2-1-3 3-2zm20 0h-3l-1-2-1 2h-3l2 2-1 3 3-2 2 2-1-3z"/></g></svg>