<svg xmlns="http://www.w3.org/2000/svg" width="32" height="32" viewBox="0 0 32 32"><g fill="none" fill-rule="evenodd"><circle cx="16" cy="16" r="16" fill="#FFF"/><path fill="#000E9C" d="M18 5h1-1v1h1v1c0-1 0-1 0 0h1l-1-1a1 1 0 0 1 1 0v1h-1v1-1 1h-1 1-1v2h2v1h1v-1h-1 1V8h1v1h1v1h1v1h-2v1l1-1v1h1-1v1-1h-1v1a1 1 0 0 0-1 0h1-1v1-1 1l-1 1v1-1h-2v1h-1 1-1v1h2v1h1v1h1v-1h1v1-1h1v1-1 1h2v1h1-1v1-1h1v1h2v1h-1v2h-1l-1 1v1-1 1h-1v1a2 2 0 0 1-1 0v1h-1v1h1-1v1h1-2 1-1 1-1 1-1v-2s0 1 0 0h1v-1h-1v1-2h1v-2a1 1 0 0 0 0-1h-1v-1h-1v-2h1v-1h-2v-1h-1s0-1 0 0h-1v-1h-1v-1h-1v-1 1h1-1v-1a1 1 0 0 0-1 0v-1h-1v-3h-1 1-1v-1 1-1h-1 1V9v1h-1V9H9h1-2v1H7h1V9H6s1 0 0 0V8h1-1V7h1a1 1 0 0 0-1 0h1V6h4v1-1h1v1-1s0 1 0 0h1-1 2v1h3V6h1v1c0-1 0 0 0 0V5Zm6 24v1-1Zm0 0v1h-1 1v-1Zm-5-9h-1 1Zm4-2v1-1Zm-2-1Zm1 0h-1 1-1 1Zm1 0h-1 1ZM8 17Zm12-1 1 1h-1v-1 1-1ZM8 17Zm0 0Zm-1 0c0-1 0-1 0 0Zm14-1Zm3-5h1v1h-1v-1Zm-1 0Zm-11-1v1-1Zm-6 0v1-1Zm1 0H6h1Zm2-1H8v1h1-1V9h1ZM6 9Zm17-6h1l4 4h-1v1h-1 1v1h-2V6h-1V4h-1s-1 0 0 0h-1 1-1V3h1-1 1Zm-3 5v1-1Zm-1-3h1-1v1h1-1 1-1V5h1v1h1V5v1h1l1 1h-1 1v1-1h-1v1a1 1 0 0 0 1 0h-1 1-2V7h1-1V6h-1 1-2V5Zm1 3Zm-1 0 1-1v1h-1Zm2-1Zm-5-2v1h1v1h-1V6v1h-1l-1-1h1-1 1-1V5h1v1-1 1c0-1 0 0 0 0V5l1 1V5Zm9 1v1-1h-1 1ZM14 5h1-1v1h-1V5h1Zm3 0s1 0 0 0h1-1 1v1h-1V5s0 1 0 0Zm3 0h1-1Zm-4-1v1h-2 1-1V4h1-1 1l1 1V4h-1 1-1 1Zm2 0h1v1h1V4v1h-2V4Zm0 1Zm-1-1h1l-1 1h1-1c0-1 0 0 0 0l-1-1h1Zm-1 1h1-1Zm-2-1v1-1Zm0 0h1-2 1Zm5-2h1l2 1h-1v1a1 1 0 0 1-1 0h1-2 1-1 1-1l1-1v1-1h-1 2-2V2h-1 1s1 0 0 0Zm-3 2Zm3 0Zm-4 0h1-1Zm3 0Zm-3 0Zm1-1h1v1h-1 1V3h-1 1Zm1 0h1v1l-1-1Zm1-1v1a1 1 0 0 0 1 0h1-1s0 1 0 0v1h-1V2Zm-3 1 1 1h-1V3Zm2 0Zm6 0h1-1Z"/><path fill="#000E9C" d="M16 32a16 16 0 1 1 0-32 16 16 0 0 1 0 32Zm0-31a15 15 0 1 0 0 30 15 15 0 0 0 0-30Z"/></g></svg>