<svg width="21" height="15" xmlns="http://www.w3.org/2000/svg"><defs><linearGradient x1="50%" y1="0%" x2="50%" y2="100%" id="a"><stop stop-color="#FFF" offset="0%"/><stop stop-color="#F0F0F0" offset="100%"/></linearGradient><linearGradient x1="50%" y1="0%" x2="50%" y2="100%" id="b"><stop stop-color="#DD172C" offset="0%"/><stop stop-color="#C60B1F" offset="100%"/></linearGradient><linearGradient x1="50%" y1="0%" x2="50%" y2="100%" id="c"><stop stop-color="#FFD133" offset="0%"/><stop stop-color="#FFC500" offset="100%"/></linearGradient></defs><g fill="none" fill-rule="evenodd"><path fill="url(#a)" d="M0 0h21v15H0z"/><path fill="url(#b)" d="M0 0h21v4H0zm0 11h21v4H0z"/><path fill="url(#c)" d="M0 4h21v7H0z"/><path fill="#FFEDB1" d="M5.5 7h1v.5h-1z"/><path d="M4.92 8.46c.02.3.29.54.58.54s.56-.25.58-.54L6.21 7H4.79l.13 1.46zm-.63-1.47a.46.46 0 0 1 .47-.49h1.48a.45.45 0 0 1 .47.5l-.13 1.5a1.1 1.1 0 0 1-1.08 1 1.1 1.1 0 0 1-1.08-1L4.29 7z" fill="#A41517" fill-rule="nonzero"/><path fill="#A41517" d="M4.5 7.5h2V8H6l-.5 1L5 8h-.5zM3 6h1v3.5H3zm4 0h1v3.5H7zm-2.5-.5c0-.28.21-.5.5-.5h1c.27 0 .5.23.5.5v.25a.25.25 0 0 1-.25.25h-1.5a.24.24 0 0 1-.25-.25V5.5z"/></g></svg>