<svg xmlns="http://www.w3.org/2000/svg" width="200" height="134" viewBox="0 0 200 134">
  <g fill="none" fill-rule="evenodd">
    <polygon fill="#EF242E" points="0 134 200 134 200 0 0 0"/>
    <path fill="#006B4C" d="M115.770426,64.0632998 L114.019978,65.3414048 L111.874985,58.7452716 L115.926022,58.7452716 L123.088967,58.7452716 L115.770426,64.0632998 Z M111.508224,83.651648 L111.508224,83.651648 L105.251067,79.1060398 L110.858058,75.0327748 L114.331169,85.7021729 L111.508224,83.651648 Z M89.4636915,75.0272178 L95.0706825,79.1060398 L89.6637427,83.0348234 L89.6637427,83.0403804 L85.9961371,85.7021729 L89.4636915,75.0272178 Z M80.1168541,58.7452716 L88.4523214,58.7452716 L86.3128848,65.3414048 L77.2327824,58.7452716 L80.1168541,58.7452716 Z M100.160875,42.079894 L102.567046,49.476232 L102.567046,49.476232 L103.628429,52.7604061 L96.6933201,52.7604061 L97.7602599,49.476232 L100.160875,42.079894 Z M94.7483777,58.7452716 L105.578928,58.7452716 L108.924229,69.0423523 L100.160875,75.4106493 L91.4030769,69.0423523 L94.7483777,58.7452716 Z M135.147609,54.827602 C134.747507,53.5939528 133.597212,52.7604061 132.302436,52.7604061 L115.926022,52.7604061 L109.930042,52.7604061 L103.011604,31.4771796 C102.605945,30.2435304 101.461207,29.4099837 100.160875,29.4099837 C98.8660986,29.4099837 97.7158041,30.2435304 97.3157017,31.4771796 L90.3972638,52.7604061 L80.1168541,52.7604061 L68.0248696,52.7604061 C66.7245367,52.7604061 65.5797991,53.5939528 65.1796967,54.827602 C64.7740373,56.0612512 65.2130386,57.4115969 66.2633075,58.1729029 L84.3679425,71.3318273 L81.8784162,78.9837863 L81.8839732,78.9837863 L77.4495046,92.6094968 C77.0494022,93.848703 77.4884034,95.1990487 78.5331153,95.9603547 C79.5833842,96.7105468 81.0004137,96.7105468 82.0562395,95.9603547 L100.160875,82.8125443 L118.271066,95.9603547 C118.798979,96.3382292 119.410247,96.5327234 120.032629,96.5327234 C120.649453,96.5327234 121.266278,96.3382292 121.788634,95.9603547 C122.838903,95.1990487 123.277904,93.848703 122.877801,92.6094968 L118.771195,79.9951563 L118.776752,79.9951563 L115.959364,71.3262703 L117.248583,70.3982549 L121.705279,67.1529797 L121.705279,67.1529797 L134.058442,58.1729029 C135.10871,57.4115969 135.547712,56.0612512 135.147609,54.827602 L135.147609,54.827602 Z"/>
  </g>
</svg>
