<svg width="36" height="24" xmlns="http://www.w3.org/2000/svg" xmlns:xlink="http://www.w3.org/1999/xlink"><defs><path d="M9 8h1v1H9V8Z" fill="#F4EB34" id="a"/><path d="M9 8h1-1Zm1 1H9V8h1v1Z" fill="#009C00" id="b"/><path d="M10 7Zm1 1h-1V7h1v1Z" fill="#009C00" id="c"/><path fill="#F4EB34" d="M11 7v1h-1V7h1z" id="d"/><path d="M13 7Zm1 1h-1V7h1v1Z" fill="#009C00" id="e"/><path d="M13 9V8l1 1h-1Z" fill="#F4EB34" id="f"/><path d="M17 7Zm1 1h-1V7h1v1Z" fill="#009C00" id="g"/><path fill="#F4EB34" d="m17 7 1 1h-1V7z" id="h"/><path d="M16 8h1v1h-1V8Z" fill="#F4EB34" id="i"/><path d="M10 11Zm1 1h-1v-1h1v1Z" fill="#009C00" id="j"/><path d="M9 11h1v1H9v-1Z" fill="#F4EB34" id="k"/><path d="m16 15 1 1-1-1Z" fill="#F4EB34" id="l"/><path d="M17 11Zm1 1h-1v-1h1v1Z" fill="#009C00" id="m"/><path fill="#F4EB34" d="m17 11 1 1h-1v-1z" id="n"/><path d="M16 11h1v1h-1v-1Z" fill="#F4EB34" id="o"/><path d="M10 14Zm0 1v-1h1l-1 1Z" fill="#009C00" id="p"/><path d="M11 15Zm0 1v-1h1l-1 1Z" fill="#009C00" id="q"/><path d="M10 15Zm0 1v-1h1l-1 1Z" fill="#009C00" id="r"/><path d="m10 16 1-1-1 1Z" fill="#F4EB34" id="s"/></defs><g fill="none" fill-rule="evenodd"><path fill="#009E50" fill-rule="nonzero" d="M13 0H0v24h13z"/><path fill="#EF242E" fill-rule="nonzero" d="M36 0H13v24h23V12z"/><path d="M19 17c-2 0-13-7-13-8l1-1c1 2 12 8 13 8l-1 1Z" fill="#F4EB34"/><path d="m20 17-7-4-7-5 7 5 7 4ZM7 7l7 5c3 3 7 4 7 4l-7-4a31 31 0 0 1-7-5Z" fill="#F4EB34"/><path d="M21 16c-1 0-4-1-7-4L7 7l7 5a30 30 0 0 0 7 4l-7-4a38 38 0 0 0 7 4Zm-1 1-7-4c-5-2-7-4-7-5 0 1 2 3 7 5a28 28 0 0 0 7 4l-7-4-7-5c0 1 1 2 7 5a24 24 0 0 0 7 4Z" fill="#009C00"/><path d="m13 10 7-1V8l-7 1-7-1v1l7 1Z" fill="#F4EB34"/><path d="m20 8-3 1A36 36 0 0 1 6 8l3 1a37 37 0 0 0 11-1Zm1 1-3 1a41 41 0 0 1-9 0L6 9l3 1a43 43 0 0 0 12-1Z" fill="#F4EB34"/><path d="m6 8 3 1h4a36 36 0 0 0 7-1l-3 1A36 36 0 0 1 6 8Zm7 1a37 37 0 0 1-7-1l3 1a38 38 0 0 0 11-1l-3 1h-4ZM6 9l3 1h4a41 41 0 0 0 8-1l-3 1A41 41 0 0 1 6 9Zm7 1a44 44 0 0 1-7-1l3 1a44 44 0 0 0 12-1l-3 1h-5Z" fill="#009C00"/><path d="m5 13 8 1 8-1v-1l-8 1-8-1v1Z" fill="#F4EB34"/><path d="m21 12-3 1a46 46 0 0 1-13-1l3 1a44 44 0 0 0 13-1Zm0 1-3 1a47 47 0 0 1-13-1l3 1a44 44 0 0 0 13-1Z" fill="#F4EB34"/><path d="m5 12 3 1a43 43 0 0 0 13-1l-3 1a45 45 0 0 1-13-1Zm8 1a45 45 0 0 1-8-1l3 1a45 45 0 0 0 13-1l-3 1h-5Zm-8 0 3 1a43 43 0 0 0 13-1l-3 1a46 46 0 0 1-13-1Zm8 1a45 45 0 0 1-8-1l3 1a45 45 0 0 0 13-1l-3 1h-5Z" fill="#009C00"/><path d="m13 17-7-1v1l7 1 7-1v-1l-7 1Z" fill="#F4EB34"/><path d="m20 16-3 1a31 31 0 0 1-11-1 37 37 0 0 0 11 1l3-1Zm-1 1a23 23 0 0 1-6 1l-7-1a26 26 0 0 0 13 0Z" fill="#F4EB34"/><path d="m13 17-7-1a40 40 0 0 0 10 1h1l3-1-3 1h-1a32 32 0 0 1-10-1 34 34 0 0 0 10 1h1l3-1-3 1h-4Zm-7 0a23 23 0 0 0 7 1l-7-1Zm7 1-7-1 7 1a29 29 0 0 0 6-1 22 22 0 0 1-6 1Z" fill="#009C00"/><path d="M14 4a8 8 0 1 1 0 16 8 8 0 0 1 0-16Zm0 1a7 7 0 1 1 1 15 7 7 0 0 1-1-15Z" fill="#F4EB34"/><path d="M13 4a8 8 0 1 1 0 16 8 8 0 0 1 0-16Zm0 0a8 8 0 1 1 0 16 8 8 0 0 1 0-16Z" fill="#F4EB34"/><path d="M13 4a8 8 0 1 0 0 16 8 8 0 0 0 0-16Zm0 16a8 8 0 1 1 0-16 8 8 0 0 1 0 16Zm0-16a8 8 0 1 0 0 16 8 8 0 0 0 0-16Zm0 16a8 8 0 1 1 0-16 8 8 0 0 1 0 16Z" fill="#009C00"/><path d="M14 5a8 8 0 1 1-1 15 8 8 0 0 1 1-15Zm0 0a8 8 0 1 1-1 15 8 8 0 0 1 1-15Z" fill="#F4EB34"/><path d="M14 5a7 7 0 1 0-1 15 7 7 0 0 0 1-15Zm0 15a7 7 0 1 1-1-15 7 7 0 0 1 1 15Zm0-15a7 7 0 1 0-1 15 7 7 0 0 0 1-15Zm0 15a7 7 0 1 1-1-15 7 7 0 0 1 1 15Z" fill="#009C00"/><path fill="#F4EB34" d="M13 20h1V4h-1v16zm0-16v16V4Zm1 0v16V4Z"/><path d="M13 4v16V4Zm0 16V4v16Zm1-16v16V4Zm0 16V4v16Z" fill="#009C00"/><path d="m5 11 8-1 8 1v1l-8-1-8 1v-1Z" fill="#F4EB34"/><path d="M5 13v-1 1Zm16 0v-1 1Z" fill="#009C00"/><path d="M13 10a47 47 0 0 1 8 1l-3-1a48 48 0 0 0-13 1l3-1h5Zm0 1a48 48 0 0 1 8 1l-3-1a47 47 0 0 0-13 1l3-1h5Z" fill="#F4EB34"/><path d="M13 10h5l3 1-3-1a46 46 0 0 0-13 1l3-1h5Zm-8 1 3-1a51 51 0 0 1 13 1l-3-1a48 48 0 0 0-13 1Zm8 0h5l3 1-3-1a47 47 0 0 0-13 1l3-1h5Zm-8 1 3-1a51 51 0 0 1 13 1l-3-1a48 48 0 0 0-13 1Z" fill="#009C00"/><path d="m13 7 7 1v1l-7-1-7 1 1-1 6-1Z" fill="#F4EB34"/><path d="M13 7h4l3 1-3-1A40 40 0 0 0 6 8l2-1h5Zm0 1a37 37 0 0 1 8 1l-3-1A36 36 0 0 0 6 9l3-1h4Z" fill="#F4EB34"/><path d="M13 6h4l3 1-2-1h-5a36 36 0 0 0-7 1l2-1h5Zm7 1-3-1A40 40 0 0 0 6 7l2-1h9l3 1Zm-6 0H9L6 8l3-1h5a34 34 0 0 1 7 1l-3-1h-4Zm7 1-3-1H9L6 8l3-1h5a38 38 0 0 1 7 1Z" fill="#009C00"/><path d="M17 15h-4l-7 1v-1l7-1h4v1Z" fill="#F4EB34"/><path d="M14 14h4a40 40 0 0 0-12 1l2-1h6Zm-1 1h4a33 33 0 0 0-11 1l2-1h5Z" fill="#F4EB34"/><path d="M13 14H8l-2 1h2a33 33 0 0 1 10-1h-5Zm-7 1 2-1a36 36 0 0 1 10 0 44 44 0 0 0-12 1Zm7 0H7l-1 1h2l5-1h4-4Zm-7 1 2-1a30 30 0 0 1 9 0h-4l-5 1H6Zm9-1Zm0 0Zm0 0Zm0 0Zm0 0Zm0 0Zm0 0Zm0 0Zm0 0Zm-1 0Zm0 0Zm0 0Zm0 0Zm0 0Zm0 0Zm0 0Zm0 0Zm0 0Zm0 0Zm0 0Zm0 0Zm0 0Zm0 0Zm0 0Zm0 0Zm0 0Zm0 0Zm0 0Zm-1 0Zm0 0Zm0 0Zm0 0Zm0 0Zm0 0Zm0 0Zm0 0Zm0 0Zm0 0Zm0 0Zm0 0Zm0 0Zm0 0Zm0 0Zm0 0Zm0 0Zm-1 0Zm0 0Zm0 0Zm0 0Zm0 0Zm0 0Zm0 0Zm0 0Zm6 0Zm0 0Zm0 0Zm0 0Zm0 0Zm-1 0Zm0 0Zm0 0Zm0 0Zm0 0Zm0 0Zm0 0Zm0 0Zm0 0Zm0 0Zm-1 0Zm0 0Zm0 0Zm0 0Zm0 0Zm0 0Z" fill="#009C00"/><path d="m17 16 1-1-1 1Z" fill="#E81E26"/><path d="M7 8c2 0 13 7 13 8l-1 1c0-1-11-8-13-8l1-1Z" fill="#F4EB34"/><path d="m20 17 1-1-1 1ZM6 9l1-1-1 1Z" fill="#009C00"/><path d="m21 16-7-6-7-3c1 0 4 1 7 4l7 5ZM6 8c1 0 4 1 7 4l7 5-7-5c-3-3-7-4-7-4Z" fill="#F4EB34"/><path d="M21 16c0-1-5-5-7-5-3-3-6-4-7-4 1 0 4 1 7 4l7 5-7-6-7-3 7 3 7 6ZM6 8l7 4a26 26 0 0 1 7 5l-7-5a25 25 0 0 0-7-4Zm14 9-7-5a25 25 0 0 0-7-4l7 4a26 26 0 0 1 7 5Z" fill="#009C00"/><path d="M9 12c0 3 2 5 5 5s5-2 5-5V6H9v6Z" fill="#FFF"/><path d="M19 6H9v6c0 3 2 5 5 5s5-2 5-5V6Zm-5 11c-3 0-5-2-5-5V6h10v6c0 3-2 5-5 5Z" fill="#009C00"/><path d="M16 9v5l-1 1-2 1-1-1-1-2V9h5Zm-7 4c0 3 2 5 5 5 2 0 4-2 4-5V7H9v6Z" fill="#E81E26"/><path d="M11 9v4l1 2 2 1 1-1a3 3 0 0 0 1-2V9h-5Zm2 7c-1 0-2-1-2-3V9h5v5l-1 1-2 1Zm5-9H9v6c0 3 2 5 5 5 2 0 4-2 4-5V7Zm-4 11c-3 0-5-2-5-5V7h9v6c0 3-2 5-4 5Z" fill="#009C00"/><path d="M13 12v1h1v-2h-1v1Z" fill="#2D2D87"/><path d="m15 12-1 1h1v-1Zm-2 0h1-1Z" fill="#FFF"/><path d="M15 12h-1l1 1v-1Zm-1 0h-1l1 1v-1Zm0 0-1 1 1-1Z" fill="#FFF"/><path d="M13 14v1h1v-2h-1v1Z" fill="#2D2D87"/><path d="m15 14-1 1 1-1Zm-2 0v1h1l-1-1Zm1 0s0 1 0 0c0 1 0 0 0 0 1 0 1 0 0 0Z" fill="#FFF"/><path d="M14 14h-1l1 1v-1Zm0 0-1 1 1-1Z" fill="#FFF"/><path d="M11 12v1h1v-2h-1v1Z" fill="#2D2D87"/><path d="m12 12 1 1v-1h-1Z" fill="#FFF"/><path d="M12 12v1l1-1h-1Z" fill="#FFF"/><path d="M12 12v1h1l-1-1Zm0 0h-1l1 1v-1Zm0 0-1 1 1-1Z" fill="#FFF"/><path d="M15 12v1h1v-2h-1v1Z" fill="#2D2D87"/><path d="m16 12-1 1 1-1Zm-1 0v1h1l-1-1Z" fill="#FFF"/><path d="M15 12v1-1c1 0 0 0 0 0Z" fill="#FFF"/><path d="M15 12v1h1l-1-1Zm1 0-1 1 1-1Z" fill="#FFF"/><path d="M13 10v1h1V9h-1v1Z" fill="#2D2D87"/><path d="m15 9-1 1h1V9Zm-1 1h-1v1h1v-1Zm0 0v1a1 1 0 0 0 1-1h-1Z" fill="#FFF"/><path d="M13 10v1-1s1 0 0 0c1 0 0 0 0 0Zm0-1Z" fill="#FFF"/><path d="M9 9V8l1 1H9Z" fill="#F4EB34"/><path d="M9 8v1-1l1 1V8H9Z" fill="#F4EB34"/><path d="M10 8v1-1ZM9 8v1-1Zm1 1L9 8v1-1h1v1Z" fill="#009C00"/><use xlink:href="#a"/><path d="M9 8h2-2Zm2 1H9V8h2v1Z" fill="#009C00"/><path d="M10 9V8v1Z" fill="#F4EB34"/><path d="M10 8Zm1 1h-1V8l1 1Z" fill="#009C00"/><path d="M9 8h1v1H9a2 2 0 0 1 0-1Z" fill="#F4EB34"/><use xlink:href="#b"/><use xlink:href="#a"/><use xlink:href="#b"/><path d="M10 7h1v1h-1V7Z" fill="#F4EB34"/><use xlink:href="#c"/><use xlink:href="#d"/><path d="M10 7v1-1Zm1 1h-1V7h1v1Z" fill="#009C00"/><path d="M10 7h1s0 1 0 0h-1Z" fill="#F4EB34"/><use xlink:href="#c"/><use xlink:href="#d"/><use xlink:href="#c"/><path d="M9 7h1v1H9V7Z" fill="#F4EB34"/><path d="M9 7Zm1 1H9V7h1v1Z" fill="#009C00"/><path fill="#F4EB34" d="M10 7v1H9V7h1z"/><path d="M9 7Zm1 1H9V7h1v1Zm0-1v1-1Zm0 0v1-1ZM9 7v1-1Z" fill="#009C00"/><path d="M13 7h1-1c0 1 0 0 0 0Z" fill="#F4EB34"/><use xlink:href="#e"/><path fill="#F4EB34" d="m13 7 1 1h-1V7z"/><path d="M13 7v1-1Zm1 1h-1V7h1v1Z" fill="#009C00"/><path d="M14 7h1v1h-1V7Z" fill="#F4EB34"/><path d="M14 7Zm1 1h-1V7h1v1Z" fill="#009C00"/><path fill="#F4EB34" d="m14 7 1 1h-1V7z"/><path d="M14 7Zm0 1V7h1l-1 1Z" fill="#009C00"/><path d="M13 7h1v1h-1V7Z" fill="#F4EB34"/><use xlink:href="#e"/><path fill="#F4EB34" d="M14 7v1h-1V7h1z"/><use xlink:href="#e"/><use xlink:href="#f"/><path d="M13 8v1-1l1 1V8h-1Z" fill="#F4EB34"/><path d="M14 8v1-1Zm-1 0v1-1Zm1 1-1-1v1-1h1v1Z" fill="#009C00"/><path d="M13 8h1v1h-1a2 2 0 0 1 0-1Z" fill="#F4EB34"/><path d="M13 8h2-2Zm2 1h-2V8h2v1Z" fill="#009C00"/><use xlink:href="#f"/><path d="M13 8Zm1 1h-1V8l1 1Z" fill="#009C00"/><path d="M13 8h1-1Z" fill="#F4EB34"/><path d="M13 8h1-1Zm1 1h-1V8h1a3 3 0 0 1 0 1Z" fill="#009C00"/><path d="M13 8h1v1h-1V8Z" fill="#F4EB34"/><path d="M13 8h1-1Zm1 1h-1V8h1v1Zm-1-2v1-1Zm1 0v1-1Zm-1 0v1-1Z" fill="#009C00"/><path d="M17 7h1s0 1 0 0h-1c0 1 0 0 0 0Z" fill="#F4EB34"/><use xlink:href="#g"/><use xlink:href="#h"/><path d="M17 7v1-1Zm1 1h-1V7h1v1Z" fill="#009C00"/><path d="M17 7h1s0 1 0 0h-1Z" fill="#F4EB34"/><use xlink:href="#g"/><use xlink:href="#h"/><use xlink:href="#g"/><path d="M17 7h1v1h-1V7Z" fill="#F4EB34"/><path d="M16 7Zm1 1h-1V7h1v1Z" fill="#009C00"/><path fill="#F4EB34" d="M18 7v1h-1V7h1z"/><use xlink:href="#g"/><path d="M17 9V8l1 1h-1Zm-1-1v1-1l1 1V8h-1Z" fill="#F4EB34"/><path d="M17 8v1-1Zm-1 0v1-1Zm1 1-1-1v1-1h1v1Z" fill="#009C00"/><use xlink:href="#i"/><path d="M16 8h2-2Zm2 1h-2V8h2v1Z" fill="#009C00"/><path d="M17 8v1-1Z" fill="#F4EB34"/><path d="M17 8Zm1 1h-1V8l1 1Z" fill="#009C00"/><use xlink:href="#i"/><path d="M16 8h1-1Zm1 1h-1V8h1v1Z" fill="#009C00"/><path d="M16 8h1v1h-1a2 2 0 0 1 0-1Z" fill="#F4EB34"/><path d="M16 8h1-1Zm1 1h-1V8h1v1Zm0-2v1-1Zm1 0v1-1Zm-1 0v1-1Z" fill="#009C00"/><path d="M10 11c1 0 0 0 0 0s0 1 0 0c0 1 0 0 0 0Z" fill="#F4EB34"/><use xlink:href="#j"/><path fill="#F4EB34" d="m10 11 1 1h-1v-1z"/><path d="M10 11v1-1Zm1 1h-1v-1h1v1Z" fill="#009C00"/><path d="M10 11h1v1h-1v-1Z" fill="#F4EB34"/><use xlink:href="#j"/><path fill="#F4EB34" d="M11 11v1h-1v-1h1z"/><use xlink:href="#j"/><use xlink:href="#k"/><path d="M9 11Zm0 1v-1l1 1H9Z" fill="#009C00"/><path fill="#F4EB34" d="M10 11v1H9v-1h1z"/><path d="M9 11Zm1 1H9v-1h1v1Z" fill="#009C00"/><path d="M9 12v-1l1 1H9Z" fill="#F4EB34"/><path d="M9 11v1l1-1v1-1H9Z" fill="#F4EB34"/><path d="M10 11v1-1Zm-1 0v1-1Zm1 1-1-1v1-1h1v1Z" fill="#009C00"/><path d="M9 12h1v1H9v-1Z" fill="#F4EB34"/><path d="M9 12h2-2Zm2 1H9v-1h2v1Z" fill="#009C00"/><path d="M10 13v-1 1Z" fill="#F4EB34"/><path d="M10 12Zm1 1h-1v-1 1h1Z" fill="#009C00"/><use xlink:href="#k"/><path d="M9 11h1-1Zm1 1H9a3 3 0 0 1 0-1h1v1Z" fill="#009C00"/><use xlink:href="#k"/><path d="M9 11h1-1Zm1 1H9v-1h1v1Zm0-1v1-1Zm0 0v1-1Zm-1 0v1-1Z" fill="#009C00"/><path d="M17 14h1v1l-1-1Z" fill="#F4EB34"/><path d="M17 14Zm1 1-1-1h1v1Z" fill="#009C00"/><path fill="#F4EB34" d="m17 15-1 1 1-1z"/><path d="m17 15-1 1 1-1Zm-1 1 1-1-1 1Z" fill="#009C00"/><path d="M17 15h1v1-1h-1Z" fill="#F4EB34"/><path d="M17 15Zm1 1v-1h-1 1v1Z" fill="#009C00"/><path fill="#F4EB34" d="m18 16-1-1 1 1z"/><path d="M17 15Zm1 1-1-1h1v1Z" fill="#009C00"/><path d="M16 14h1v1l-1-1Z" fill="#F4EB34"/><path d="M16 14Zm1 1-1-1h1v1Z" fill="#009C00"/><path fill="#F4EB34" d="m17 16-1-1 1 1z"/><path d="M16 15Zm1 1-1-1h1v1Z" fill="#009C00"/><path d="M16 15h1v1l-1-1Zm-1 0h1v1l-1-1Z" fill="#F4EB34"/><path d="M15 15h1-1Zm1 0v1-1Zm0 1v-1h-1l1 1Z" fill="#009C00"/><path d="m15 15 1 1-1-1Z" fill="#F4EB34"/><path d="m15 15 1 1-1-1Zm1 1-1-1 1 1Z" fill="#009C00"/><path d="M16 15h1v1l-1-1Z" fill="#F4EB34"/><path d="M16 15Zm0 1v-1c1 0 0 0 0 0v1Z" fill="#009C00"/><use xlink:href="#l"/><path d="m16 15 1 1-1-1Zm1 1-1-1 1 1Z" fill="#009C00"/><use xlink:href="#l"/><path d="m16 15 1 1-1-1Zm1 1-1-1 1 1Zm-1-1h1l-1 1v-1Zm1 0h1-1Z" fill="#009C00"/><path d="M16 15h1l-1 1v-1Z" fill="#009C00"/><path d="M17 11h1-1s0 1 0 0c0 1 0 0 0 0Z" fill="#F4EB34"/><use xlink:href="#m"/><use xlink:href="#n"/><path d="M17 11v1-1Zm1 1h-1v-1h1v1Z" fill="#009C00"/><path d="M17 11h1v1h-1v-1Z" fill="#F4EB34"/><use xlink:href="#m"/><use xlink:href="#n"/><use xlink:href="#m"/><use xlink:href="#o"/><path d="M16 11Zm1 1h-1v-1h1v1Z" fill="#009C00"/><path fill="#F4EB34" d="M18 11v1h-1v-1h1z"/><path d="M17 11Zm0 1v-1h1v1h-1Z" fill="#009C00"/><path d="M17 12v-1l1 1h-1Zm-1-1v1-1l1 1v-1h-1Z" fill="#F4EB34"/><path d="M17 11v1-1Zm-1 0v1-1Zm1 1-1-1v1-1h1v1Z" fill="#009C00"/><path d="M16 12h1v1h-1v-1Z" fill="#F4EB34"/><path d="M16 12h2-2Zm2 1h-2v-1h2v1Z" fill="#009C00"/><path d="M17 13v-1l1 1h-1Z" fill="#F4EB34"/><path d="M17 12Zm1 1h-1v-1l1 1Z" fill="#009C00"/><use xlink:href="#o"/><path d="M16 11h1-1Zm1 1h-1v-1h1v1Z" fill="#009C00"/><path d="M16 11h1v1h-1a2 2 0 0 1 0-1Z" fill="#F4EB34"/><path d="M16 11h1-1Zm1 1h-1v-1h1v1Zm0-1v1-1Zm1 0v1-1Zm-1 0v1-1Z" fill="#009C00"/><path d="M10 15v-1c1 0 1 0 0 0v1Z" fill="#F4EB34"/><use xlink:href="#p"/><path fill="#F4EB34" d="m10 15 1 1-1-1z"/><path d="m10 15 1 1-1-1Zm1 1-1-1 1 1Z" fill="#009C00"/><path d="M10 15v-1h1l-1 1Z" fill="#F4EB34"/><use xlink:href="#p"/><path fill="#F4EB34" d="m12 15-1 1 1-1z"/><use xlink:href="#q"/><path d="M10 15c1 0 1 0 0 0 0 1 0 1 0 0Z" fill="#F4EB34"/><use xlink:href="#r"/><path fill="#F4EB34" d="m11 15-1 1 1-1z"/><use xlink:href="#r"/><path d="M11 16v-1h1l-1 1Zm-1 0v-1h1l-1 1Z" fill="#F4EB34"/><path d="M10 15h1-1Zm0 0v1a1 1 0 0 1 0-1Zm0 1 1-1h-1v1Z" fill="#009C00"/><path d="m11 16 1-1-1 1Z" fill="#F4EB34"/><path d="m12 15-1 1 1-1Zm-1 1 1-1-1 1Z" fill="#009C00"/><path d="M11 16v-1h1l-1 1Z" fill="#F4EB34"/><use xlink:href="#q"/><use xlink:href="#s"/><path d="m10 16 1-1-1 1Zm0 0 1-1-1 1Z" fill="#009C00"/><use xlink:href="#s"/><path d="m10 16 1-1-1 1Zm0 0 1-1-1 1Zm0-1 1 1-1-1Zm1 0h1l-1 1v-1Zm-1 0h1-1Z" fill="#009C00"/></g></svg>