<svg xmlns="http://www.w3.org/2000/svg" width="192.009" height="192.002" viewBox="0 0 192.009 192.002">
  <g id="Flag_Circle_World" data-name="Flag/Circle/World" transform="translate(0.007)">
    <circle id="Background" cx="96" cy="96" r="96" transform="translate(0)" fill="#fff"/>
    <path id="Color" d="M98.552,191.969Q97.28,192,96,192a95.368,95.368,0,0,1-67.883-28.118A96.525,96.525,0,0,1,12.6,143.636,3,3,0,0,1,11.038,141c0-.065,0-.129.006-.193A95.346,95.346,0,0,1,.067,99.63a3.016,3.016,0,0,1-.034-1.079Q0,97.28,0,96A95.5,95.5,0,0,1,11.453,50.43a2.993,2.993,0,0,1,.9-1.618A96.5,96.5,0,0,1,28.118,28.118,95.368,95.368,0,0,1,96,0q1.277,0,2.55.033A3.016,3.016,0,0,1,99.63.067a95.311,95.311,0,0,1,64.254,28.051,96.473,96.473,0,0,1,15.772,20.7,2.993,2.993,0,0,1,.884,1.6A95.515,95.515,0,0,1,192,96q0,1.277-.033,2.55a3.013,3.013,0,0,1-.034,1.079,95.357,95.357,0,0,1-10.982,41.183c0,.061.006.123.006.185a3,3,0,0,1-1.559,2.634,96.526,96.526,0,0,1-15.516,20.251,95.319,95.319,0,0,1-64.254,28.051,3.013,3.013,0,0,1-1.079.034ZM96,186V144H55.46a103.981,103.981,0,0,0,6.78,15.719c4.433,8.235,9.574,14.71,15.282,19.235C83.414,183.627,89.629,186,96,186Zm6-.711a32.186,32.186,0,0,0,12.479-6.331c5.708-4.525,10.849-11,15.277-19.235A104.048,104.048,0,0,0,136.538,144H102ZM134.368,163.8a67.391,67.391,0,0,1-15.386,19.256A89.452,89.452,0,0,0,159.64,159.64,90.743,90.743,0,0,0,172.169,144h-29.3A110.058,110.058,0,0,1,134.368,163.8ZM32.362,159.64a89.456,89.456,0,0,0,40.655,23.413A67.331,67.331,0,0,1,57.634,163.8a110.059,110.059,0,0,1-8.5-19.8h-29.3A90.78,90.78,0,0,0,32.362,159.64ZM175.647,138A89.283,89.283,0,0,0,185.8,102H149.9a158.729,158.729,0,0,1-5.252,36Zm-37.235,0a151.634,151.634,0,0,0,5.484-36H102v36ZM96,138V102H48.106a151.682,151.682,0,0,0,5.48,36Zm-48.646,0A158.729,158.729,0,0,1,42.1,102H6.2a89.273,89.273,0,0,0,10.158,36ZM186,96a89.565,89.565,0,0,0-10.351-42h-31A161.42,161.42,0,0,1,150,96Zm-42,0a154.421,154.421,0,0,0-5.589-42H102V96ZM96,96V54H53.586A154.485,154.485,0,0,0,48,96ZM42,96a161.419,161.419,0,0,1,5.352-42h-31A89.55,89.55,0,0,0,6,96ZM172.169,48A90.744,90.744,0,0,0,159.64,32.362,89.464,89.464,0,0,0,118.977,8.943,67.389,67.389,0,0,1,134.368,28.2a110.072,110.072,0,0,1,8.5,19.8Zm-35.63,0a104.126,104.126,0,0,0-6.782-15.725c-4.428-8.235-9.569-14.71-15.277-19.235A32.187,32.187,0,0,0,102,6.71V48ZM96,48V6C89.629,6,83.414,8.37,77.522,13.041c-5.708,4.525-10.849,11-15.282,19.235A104.06,104.06,0,0,0,55.459,48ZM49.134,48a110.072,110.072,0,0,1,8.5-19.8A67.329,67.329,0,0,1,73.022,8.944a89.467,89.467,0,0,0-40.66,23.419A90.78,90.78,0,0,0,19.832,48Z" fill="#000e9c"/>
    <path id="Border" d="M96.008,192a96.072,96.072,0,1,1,67.842-28.118A95.682,95.682,0,0,1,96.008,192Zm0-186.089A90.148,90.148,0,0,0,32.264,159.8a90.135,90.135,0,1,0,127.47-127.47A89.621,89.621,0,0,0,96.008,5.912Z" transform="translate(-0.007 0.001)" fill="#000e9c"/>
  </g>
</svg>
