<svg xmlns="http://www.w3.org/2000/svg" width="192" height="192" viewBox="0 0 192 192"><g data-name="Flag/Circle/World"><circle cx="96" cy="96" r="96" fill="#fff"/><path d="M99 192h-3a95 95 0 0 1-68-28 97 97 0 0 1-15-20 3 3 0 0 1-2-3 95 95 0 0 1-11-41 3 3 0 0 1 0-1v-3a96 96 0 0 1 11-46 3 3 0 0 1 1-1 97 97 0 0 1 16-21A95 95 0 0 1 96 0h3a3 3 0 0 1 1 0 95 95 0 0 1 64 28 96 96 0 0 1 16 21 3 3 0 0 1 1 1 96 96 0 0 1 11 46v3a3 3 0 0 1 0 1 95 95 0 0 1-11 41 3 3 0 0 1-2 3 97 97 0 0 1-15 20 95 95 0 0 1-64 28 3 3 0 0 1-1 0Zm-3-6v-42H55a104 104 0 0 0 7 16c5 8 10 14 16 19 5 5 12 7 18 7Zm6-1a32 32 0 0 0 12-6c6-5 11-11 16-19a104 104 0 0 0 7-16h-35Zm32-21a67 67 0 0 1-15 19 89 89 0 0 0 41-23 91 91 0 0 0 12-16h-29a110 110 0 0 1-9 20Zm-102-4a89 89 0 0 0 41 23 67 67 0 0 1-15-19 110 110 0 0 1-9-20H20a91 91 0 0 0 12 16Zm144-22a89 89 0 0 0 10-36h-36a159 159 0 0 1-5 36Zm-38 0a152 152 0 0 0 6-36h-42v36Zm-42 0v-36H48a152 152 0 0 0 6 36Zm-49 0a159 159 0 0 1-5-36H6a89 89 0 0 0 10 36Zm139-42a90 90 0 0 0-10-42h-31a161 161 0 0 1 5 42Zm-42 0a154 154 0 0 0-6-42h-36v42Zm-48 0V54H54a154 154 0 0 0-6 42Zm-54 0a161 161 0 0 1 5-42H16A90 90 0 0 0 6 96Zm130-48a91 91 0 0 0-12-16 89 89 0 0 0-41-23 67 67 0 0 1 15 19 110 110 0 0 1 9 20Zm-35 0a104 104 0 0 0-7-16c-5-8-10-14-16-19a32 32 0 0 0-12-6v41Zm-41 0V6c-6 0-13 2-18 7-6 5-11 11-16 19a104 104 0 0 0-7 16Zm-47 0a110 110 0 0 1 9-20A67 67 0 0 1 73 9a89 89 0 0 0-41 23 91 91 0 0 0-12 16Z" fill="#000e9c"/><path d="M96 192a96 96 0 1 1 68-28 96 96 0 0 1-68 28ZM96 6a90 90 0 0 0-64 154A90 90 0 1 0 160 32 90 90 0 0 0 96 6Z" fill="#000e9c"/></g></svg>