<svg xmlns="http://www.w3.org/2000/svg" xmlns:xlink="http://www.w3.org/1999/xlink" viewBox="0 0 20 16.67"><defs><style>.cls-1,.cls-3{fill:none;}.cls-2{clip-path:url(#clip-path);}.cls-3{stroke:#fff;stroke-linecap:round;stroke-linejoin:round;}</style><clipPath id="clip-path" transform="translate(0 0)"><rect class="cls-1" width="20" height="16.67"/></clipPath></defs><title>brandTwitter_20px-bkg-dark</title><g id="Calque_2" data-name="Calque 2"><g id="illus_enterprise"><g id="brandTwitter_20px-bkg-dark"><g class="cls-2"><g class="cls-2"><path class="cls-3" d="M19,.91a3.67,3.67,0,0,1-1.44,2c.24.12.44,0,.64-.05s.45-.12.67-.18a2.18,2.18,0,0,1,.68-.19A5.88,5.88,0,0,1,18.07,4a1.12,1.12,0,0,0-.46,1c-.23,4.55-2.2,8.08-6.38,10.06A10.94,10.94,0,0,1,.5,14.41a8.17,8.17,0,0,0,5.65-1.66A4,4,0,0,1,2.52,10a3.66,3.66,0,0,0,1.55,0,1,1,0,0,0-.41-.22A4,4,0,0,1,1.15,6.44c-.06-.41,0-.43.37-.27a2.76,2.76,0,0,0,1.27.28C2.53,6.16,2.25,6,2,5.69a3.94,3.94,0,0,1-.52-4.1c.12-.3.2-.37.45-.08a11,11,0,0,0,5.9,3.56c.51.12,1,.17,1.54.26.35.06.4-.08.36-.38a3.77,3.77,0,0,1,.59-2.65,3.91,3.91,0,0,1,5.72-.95,1.07,1.07,0,0,0,1.18.23C17.83,1.38,18.38,1.14,19,.91Z" transform="translate(0 0)"/></g></g></g></g></g></svg>