<svg xmlns="http://www.w3.org/2000/svg" width="50" height="50" viewBox="0 0 50 50"><defs><style>.a{fill:none;}.b{fill:rgba(0,14,156,0);}.c{fill:#0050d7;}</style></defs><rect class="a" width="50" height="50"/><rect class="b" width="0.5" height="2" transform="translate(0 48)"/><g transform="translate(13 13)"><path class="c" d="M3.222,18.778A11,11,0,1,1,18.778,3.222,11,11,0,1,1,3.222,18.778ZM11,20a8.946,8.946,0,0,0,4.771-1.372,9.84,9.84,0,0,1-3.479-1.921,1.468,1.468,0,0,1-.478-1.316,6.76,6.76,0,0,1,1.267-1.823A5.906,5.906,0,0,0,14,10c0-2.824-.941-4-3-4S8,7.176,8,10a5.906,5.906,0,0,0,.918,3.569,6.76,6.76,0,0,1,1.267,1.823,1.468,1.468,0,0,1-.478,1.316,9.84,9.84,0,0,1-3.479,1.921A8.946,8.946,0,0,0,11,20ZM2,11a8.968,8.968,0,0,0,2.449,6.165,1,1,0,0,1,.235-.114,12.789,12.789,0,0,0,3.295-1.493,6.69,6.69,0,0,1-.693-.835A7.856,7.856,0,0,1,6,10c0-3.843,1.725-6,5-6s5,2.157,5,6a7.856,7.856,0,0,1-1.285,4.723,6.69,6.69,0,0,1-.693.835,12.789,12.789,0,0,0,3.295,1.493,1,1,0,0,1,.235.114A9,9,0,1,0,2,11Z" transform="translate(1 1)"/></g></svg>