<svg xmlns="http://www.w3.org/2000/svg" viewBox="0 0 80 80"><path fill="currentColor" d="M27 48 16 74h-5L0 48h5q1 0 2 1l6 18 7-18q0-1 2-1h5zm19 16v4h-3v6h-4v-6H27v-1l-1-3 12-16h5v16h3zm-7 0V54l-7 10h7zm23-3q-3-2-3.5-5t2-6.5 3-8-1-8.5-5.5-7-9-3.5-9 1.5l6 5q2 1 1.5 3T44 35l-29 9q-2 0-3-1t-1-3l2-29q0-2 1.5-2.5T18 9l7 5q6-5 13.5-7t15-.5T67 13q8 6 11 14.5T79.5 45 73 60q-2 3-5.5 3T62 61zm-2-38q4 3 6 8.5t1.5 11T63 52q-1 2-.5 3.5T64 58t3 1 3-2q4-5 5.5-12.5t-1-15-9-12.5T52 10.5t-13.5.5T27 18l-2 1-1-1-7-5-2 27 27-8-8-6q-1-1-1-2t1-1q5-4 12.5-4.5T60 23z"/></svg>