<svg xmlns="http://www.w3.org/2000/svg" viewBox="0 0 128 128"><path fill="currentColor" d="M80 27h21q3 0 4.5 1.5T107 32t-1.5 3.5T101 37H27q-3 0-4.5-1.5T21 32t1.5-3.5T27 27h21q0-7 1-9t4-2h22q3 0 4 2t1 9zM53 48q3 0 4.5 1.5T59 53v38q0 2-1.5 3.5t-4 1.5-4-1.5T48 91V53q0-2 1.5-3.5T53 48zm43-5q2 0 3.5 1.5T101 48v59q0 5-2.5 7.5T91 117H37q-5 0-7.5-2.5T27 107V48q0-2 1.5-3.5T32 43t3.5 1.5T37 48v59h54V48q0-2 1.5-3.5T96 43zm-21 5q2 0 3.5 1.5T80 53v38q0 2-1.5 3.5t-4 1.5-4-1.5T69 91V53q0-2 1.5-3.5T75 48z"/></svg>