<svg xmlns="http://www.w3.org/2000/svg" viewBox="0 0 80 80"><path fill="currentColor" d="M69 43H11q-5 0-8-3t-3-8V16q0-4 3-7t7-3h60q4 0 7 3t3 7v16q0 5-3 8t-8 3zM10 10q-2 0-4 2t-2 4v16q0 3 2 5t5 2h58q3 0 5-2t2-5V16q0-2-2-4t-4-2H10zm52 11q0 2 1 2.5t2.5.5 2-.5.5-2-.5-2.5-2-1-2.5 1-1 2zm8 34q-1 1-2 1l-1-1q-2-1-4-1t-2.5 2 1.5 3l6 2q2 1 2.5 3t0 4.5-2.5 4-5 1.5-5-1-3-2l1-3q1-1 3 0l2 1 2 1q2 0 2.5-1.5T66 66l-2-1-5-2q-3-1-3.5-3.5T56 55t3-3.5 4.5-1.5 4.5 1l3 1zM55 74h-4l-2-1-2-5h-9l-2 5-1 1h-4l9-24h6zm-9-9-3-10-3 10h6zM29 50v23h-4L14 59v14H9V50h3q1 0 1 1l12 14V50h4z"/></svg>