<svg xmlns="http://www.w3.org/2000/svg" viewBox="0 0 80 80"><path fill="currentColor" d="M75 39q-1-1-3-2 0-8-5-13l-6-4h-4l-2-1q-3-5-9-7.5T34 11q-3 1-6 4l-2 2-2 3-7 1q-3 1-5 3.5T9 31l-1 4v2l-3 1-3 2q-2 3-2 6.5T1.5 53t4 4.5T11 59h5v4q0 1 2 1l23 9h2l20-9q1-1 1-4v-1h5q2 0 4-1 4-2 6-5.5t1-7.5-5-6q0-1 1.5 0T75 39zM40 68l-17-6-3-1V42l20 7v19zm2-23q0 1-1 0l-18-7 17-10 18 10-16 8v-1zm18 16-16 7V49l16-7v19zm15-9q-3 3-7 3h-4V37L41 24h-3L17 37q-1 0-1 1v17h-4l-3-1q-4-1-4.5-3.5t0-4.5T6 42l2-1 4-1q0-4 .5-7t2.5-5q4-5 11-4l1-1 1-2q1-3 4-4.5t6.5-2 6.5.5 5 3 3 6q4 0 6.5.5t5 2.5 3 5 .5 7v1l4 1q2 1 3 2.5t1 4-1 4-1 .5h1z"/></svg>