<svg xmlns="http://www.w3.org/2000/svg" viewBox="0 0 128 128"><path fill="currentColor" d="M122 7q2 0 4 2t2 4v36q0 3-2 4.5t-4 1.5H6q-2 0-4-1.5T0 49V13q0-2 2-4t4-2h116zm0 4H6q-1 0-1.5.5T4 13v36q0 1 .5 1.5T6 51h116l1-.5 1-1.5V13q0-1-1-1.5zm-14 12q3 0 4 2.5t-1 4.5-4.5 1-2.5-3 1-3.5 3-1.5zM22 59q1 0 1.5.5T24 61v9l15 2 1 1q6 5 13 6l14 1q3 0 5 1.5t3.5 3.5 1.5 5-2 5v1h10l30-13q2-1 4-1h2q4 1 6 4t1 6.5-4 5.5l-30 19q-4 1-7 2-7 2-15 2h-2q-11 0-21-5l-17-7-4-1h-1 1-4v11q0 2-1 2H2q-1 0-1.5-.5t-.5-1 .5-1.5 1.5-1h18V63H2q-2 0-2-2t2-2h20zm2 15v29h4l7 2 14 7q10 4 21 4.5t21-4.5l31-18q1-1 1.5-3t-.5-3.5-3-2.5h-1q-1 0-2 1L90 99q-7 2-15 2h-6 3-6l-16-2h-1q-1-1-1-2.5t1-1.5l7 1-2-1 4 1h-2 4-2l3 1h-1 3-2 4-2 3-1 6-1l2-1 2-2q2-3 0-6.5T68 84H54q-9-1-16-8zM10 97h2q2 1 2.5 2.5t.5 3-1.5 3T10 107q-2 0-3-1t-1.5-2.5-.5-3T6.5 98t3.5-1zm0 4H9q-1 0-.5 1t1.5 1l1-1q0-1-1-1z"/></svg>