<svg xmlns="http://www.w3.org/2000/svg" viewBox="0 0 80 80"><path fill="currentColor" d="M76 14v-2q-2-6-12.5-9T40 0 16.5 3.5 4 12v16l1 3-1 17 1 2-1 16q0 5 5.5 8T23 78.5 41 80t20-2h-1q7-2 11.5-5t4.5-7V14zM40 4q12 0 20.5 2.5T72 12q-5 3-13.5 5t-18 2-18-2T9 12q2-3 11-5.5T40 4zm22 69v-5q0-1-.5-1.5T60 66t-1.5.5T58 68v6q-7 2-17 2t-17.5-1.5-11.5-4T8 66V54q6 4 16 6l2-1 1-1q0-1-1-1l-1-1q-8-2-12.5-4T8 48V35q7 4 16 5h2v-3h-1q-8-2-12.5-4.5T8 28V17q13 6 32 6 10 0 18.5-1.5T72 17v11q0 2-2.5 4T62 35v-5q0-1-.5-1.5T60 28t-1.5.5T58 30v6q-7 2-18 2h-1l-1 2 1 1q0 1 1 1 10 0 18.5-2T72 35v12q0 2-2.5 4T62 54v-5q0-1-.5-1.5T60 47t-1.5.5T58 49v6q-7 2-18 2-1 0-1 1l-1 1 1 2h1q10 0 18.5-2T72 54v12q0 2-2.5 4T62 73z"/></svg>