<svg xmlns="http://www.w3.org/2000/svg" viewBox="0 0 80 80"><path fill="currentColor" d="M43 57q0-1-1-2t-2-1-2 1-1 2.5 2 1.5v4h2v-4q2 0 2-2zm29-25q0-7-4.5-12T56 15q-2-5-6.5-7.5T40 5t-9.5 2.5T24 15q-7 0-11.5 5T8 32q-4 1-6 4T.5 43.5t4 7.5 7.5 3h10v21h37V54h9q4 0 8-3t4-7-2-7-6-5zM55 71H26V52q0-3 1.5-4.5T31 46h17q3 0 5 1.5t2 4.5v19zm-7-29H32v-7q0-4 2-6.5t5.5-2.5 6 2.5T48 35v7zm28 2q0 2-3 4t-5 2H58q-1-5-6-7v-8q0-6-3.5-9.5t-9-3.5-8.5 3.5-3 9.5v7q-5 2-6 8H12q-3 0-5.5-2T4 43t2-5 4-2l2-1v-2q-1-6 3-10t10-4h2v-1q2-5 5.5-7T40 9t7.5 2 5.5 7v1h2q6 0 10 4 2 2 2.5 4.5T68 33v2l2 1q6 1 6 8z"/></svg>