<svg xmlns="http://www.w3.org/2000/svg" viewBox="0 0 128 128"><path fill="currentColor" d="M67 5q12 2 22.5 9T106 32t6 24h6q2 0 4 2t2 4v56q0 2-2 4t-4 2H38q-2 0-4-2t-2-4v-13q-11-6-18.5-16.5t-9-23 2.5-25T20 19 41.5 6 67 5zm51 55H38q-1 0-1.5.5T36 62v56q0 1 .5 1.5t1.5.5h80q1 0 1.5-.5t.5-1.5V62q0-1-.5-1.5T118 60zm-15 24q3 0 5 1t3 2l-2 4-3-2q-1-1-2.5-1t-3 1-1.5 2l1 2 1 1 8 4 2 1 1 2v3q0 2-.5 3.5t-2 2.5-3 1.5-4 .5-5-1-3.5-3l2-3q2 1 3.5 2t3.5 1 3-1 1-2.5-1-2.5l-8-4-1-2-2-2v-2q0-2 1-3l1-3q1-1 3-1.5t3-.5zm-29 0 8 16 2 5V84h4v27h-4L73 91l1 21h-5V84h5zm-14 4q4 4 3 10 0 3-.5 5.5T60 108t-4 3-5 0h-7V84h7q5 0 9 4zm-10 0h-2v20h3q3 0 5.5-3t2.5-7-2.5-7-6.5-3zm-20-4H15q7 10 17 17V88zm-3-24H8q0 11 5 20h16q-2-10-2-20zm5 0h-1q0 7 1 14V60zm14 8q1 0 1.5.5T48 70t-.5 1.5-1.5.5-1.5-.5T44 70t.5-1.5T46 68zm8 0q1 0 1.5.5T56 70t-.5 1.5-1.5.5-1.5-.5T52 70t.5-1.5T54 68zm8 0q1 0 1.5.5T64 70t-.5 1.5-1.5.5-1.5-.5T60 70t.5-1.5T62 68zM29 36H13l-2 6q-3 7-3 14h19q0-11 2-20zm27 0H33q-2 9-2 20h25V36zm27 0H60v20h25q0-11-2-20zm20 0H87q2 10 2 20h19q0-11-5-20zM43 10q-8 3-15.5 8.5T15 32h15q5-14 13-22zm-8 22h21V8q-7 1-12.5 7.5T35 32zM60 8v24h21q-3-10-8.5-16.5T60 8zm13 2q8 8 13 22h15q-5-8-12.5-13.5T73 10z"/></svg>