<svg xmlns="http://www.w3.org/2000/svg" viewBox="0 0 80 80"><path fill="currentColor" d="M79 40q0-12-5-21T60 5 40 0 20 5 6 19.5t-5 20T5.5 59t13 15T39 80t21-5 14-14 5-21zM5 42h13q0 7 1 13H8q-2-6-3-13zm70-4H62q0-8-1-14h11q2 6 3 14zm-17 0H42V24h15q1 6 1 14zM42 20V4q4 1 7.5 5T56 20H42zM38 4v16H25q2-7 5.5-11T38 4zm0 20v14H22q0-7 1-14h15zM18 38H5q1-8 3-14h11q-1 6-1 14zm4 4h16v13H23q-1-7-1-13zm16 17v16q-5 0-8.5-4.5T24 59h14zm4 16V59h14q-2 7-5.5 11.5T42 75zm0-20V42h16q0 7-1 13H42zm20-13h13q-1 7-3 13H61q1-7 1-13zm8-22H60q-3-9-8-14 12 4 18 14zM28 6q-5 5-8 14H10q3-5 7.5-8.5T28 6zM10 59h10q3 9 7 15-11-4-17-15zm43 14q4-5 7-14h10q-6 10-17 14z"/></svg>