<svg xmlns="http://www.w3.org/2000/svg" viewBox="0 -1 128 128"><path fill="currentColor" d="M70 0q3 1 4.5 2.5T76 6v6q0 1 1 2 7 1 13 5 1 1 2 0l4-4q2-2 4.5-2t3.5 1l5 5 5 5q1 1 1 3.5t-2 4.5l-4 4q-1 1 0 2 3 6 5 12 0 2 2 2h6q2 0 3.5 1.5T128 57v14q-1 2-2.5 3.5T122 76h-6q-1 0-2 1-1 7-5 13-1 1 0 2l4 4q2 2 2 4.5t-1 3.5l-5 5-4 4q-2 2-4 2t-4-2l-4-4q-1-1-3 0-6 3-12 5-2 0-2 2v6q0 2-1.5 4t-3.5 2q-7 1-13 0-3 0-4.5-2t-1.5-4v-6q0-1-1-2-7-1-13-5-1-1-2 0l-4 4q-2 2-4.5 2t-3.5-1l-5-5-5-5q-1-1-1-3.5t2-4.5l4-4q1-1 0-2-3-6-5-12 0-2-2-2H6q-2 0-3.5-1.5T0 71V58q1-3 2.5-4.5T6 52h6q1 0 2-1 1-7 5-13 1-1 0-2l-4-4q-2-2-2-4.5t1-3.5l5-5 5-5q1-1 3.5-1t4.5 2l4 4q1 1 2 0 6-3 12-5 2 0 2-2V6q0-2 1.5-3.5T57 0h13zM58 4q-1 0-2 1v7q0 2-1.5 3.5T51 18q-6 2-12 5h-3l-3-2-4-3q-1-2-3 0l-5 3-4 5v3l4 4q2 1 2 3.5T22 40q-3 6-4 12-1 2-2.5 3T12 56H6l-1 1-1 1v13l1 1h7q2 0 3.5 1.5T18 77q2 6 5 11 1 2 .5 4T21 95l-3 4q-2 1 0 3l3 5 5 4h3l4-4q1-2 3.5-2t3.5 1q6 3 12 4 2 1 3 2.5t1 3.5v6l1 1 1 1q6 1 13 0l1-1v-7q0-2 1.5-3.5T77 110q6-2 11-5 2-1 4-.5t4 1.5l4 4 1 1 1-1 5-3 4-5v-3l-4-4q-2-1-2-3.5t1-3.5q3-6 4-12 1-2 2.5-3t3.5-1h6l1-1 1-1V58l-1-1-1-1h-6q-2 0-3.5-1.5T110 51q-2-6-5-11-1-2-.5-4t2.5-3l3-4q2-1 0-3l-3-5-5-4h-3l-4 4q-1 2-3.5 2T88 22q-6-3-12-4-2-1-3-2.5T72 12V6l-1-1-1-1H57h1zm6 40q8 0 14 6t6 14-6 14-14 6-14-6-6-14 6-14 14-6zm0 4q-7 0-11.5 4.5T48 64t4.5 11.5T64 80t11.5-4.5T80 64t-4.5-11.5T64 48z"/></svg>