<svg xmlns="http://www.w3.org/2000/svg" viewBox="0 0 128 128"><path fill="currentColor" d="M126 26q1 0 1.5.5t.5 1.5v21q0 1-.5 1.5t-1.5.5h-22l-4 26h26q1 0 1.5.5t.5 1.5v21q0 1-.5 1.5t-1.5.5H97l-3 24-1 1-1 1H70q-1 0-1.5-1l-.5-1 4-24H46l-3 24-1 1-1 1H19q-1 0-1.5-1l-.5-1 3-24H2q-1 0-1.5-.5T0 100V79q0-1 .5-1.5T2 77h22l4-26H2q-1 0-1.5-.5T0 49V28q0-1 .5-1.5T2 26h29l3-24 1-1 1-1h22q1 0 1.5 1l.5 1-4 24h26l3-24 1-1 1-1h22q1 0 1.5 1l.5 1-3 24h18zm-2 4h-19q-1 0-1.5-1t-.5-2l4-23H89l-3 24-1 1-1 1H54q-1 0-1.5-1t-.5-2l3-23H38l-3 24-1 1-1 1H4v17h26q1 0 1.5.5T32 49l-4 30-1 1-1 1H4v17h19q1 0 1.5 1t.5 2l-4 23h18l3-24 1-1 1-1h30q1 0 1.5 1t.5 2l-3 23h17l3-24 1-1 1-1h29V81H98q-1 0-1.5-.5T96 79l4-30 1-1 1-1h22V30zM79 51H53l-4 26h26zm-2 30H47q-1 0-1.5-.5T45 79l4-30 1-1 1-1h30q1 0 1.5.5T83 49l-4 30-1 1z"/></svg>