<svg xmlns="http://www.w3.org/2000/svg" viewBox="0 0 128 128"><path fill="currentColor" d="M64 5q16 0 29.5 8T115 34.5t8 29.5-8 29.5T93.5 115 64 123t-29.5-8T13 93.5 5 64t8-29.5T34.5 13 64 5zm0 11q-13 0-24 6.5T22.5 40 16 64t6.5 24T40 105.5t24 6.5 24-6.5T105.5 88t6.5-24-6.5-24T88 22.5 64 16zm0 70q3 0 4.5 2.5t0 5.5-4 3-4-2-1.5-4 1.5-3.5T64 86zm0-55q7 0 13 6t6 12.5T79 61t-9 7h-1v7q0 2-1 3.5T65 81h-1q-2 0-3.5-1.5T59 76V65q0-3 1.5-4.5t4-1.5 5.5-3 3-6-3-6-6-3-6 3-3 5.5-1.5 4T50 55t-3.5-1.5T45 50q0-7 6-13t13-6zm5 37z"/></svg>