<svg xmlns="http://www.w3.org/2000/svg" viewBox="0 0 80 80"><path fill="currentColor" d="M40 31q-6 0-8.5-3.5t-2.5-8 3-8T39.5 8t8 3.5T51 20t-3.5 8-7.5 3zm0-19q-4 0-5.5 2T33 19.5t1.5 5.5 5 2 5.5-2 2-5-2-5.5-5-2.5zM18 23q-5 0-8-3t-3-8 3-8 8-3 8 3 3 8-3 8-8 3zm0-18q-3 0-5 2t-2 5 1.5 5.5 5 2.5 5.5-2.5 2-5.5-2-5-5-2zm44 18q-6 0-8.5-3T51 12t3-8 7.5-3 8 3 3.5 8-3.5 8-7.5 3zm0-18q-4 0-6 2t-2 5 2 5.5 5.5 2.5 5.5-2.5 2-5.5-2-5-5-2zm18 38q0-7-4.5-12T62 26q-5 0-9.5 2T46 34q-3-1-6.5-1T33 34q-2-4-6-6t-9-2q-9 0-13.5 5T0 43v14h5v12q0 4 3 7t7 3h50q4 0 6.5-3t2.5-7V57h6V43zm-27 4H26q1-4 4.5-7t9-3 9 3 4.5 7zM6 53H4V43q0-5 3.5-9t11-4T30 36q-3 1-5 4.5T22 47h-7q-3 0-5.5 1.5T6 53zm64 16q0 2-1.5 4T64 75H15q-3 0-4.5-2T9 69V57q0-3 1.5-4.5T15 51h50q2 0 3.5 1.5T70 56v13zm6-16h-2q-1-2-3.5-4T65 47h-8q0-3-2-6t-5-5q4-6 11.5-6t11 4 3.5 9v10zm-18 7q0 1 1 2t2 1 2-1 1-2-1-2-2-1-2 1-1 2z"/></svg>