<svg xmlns="http://www.w3.org/2000/svg" viewBox="0 0 128 128"><path fill="currentColor" d="M32 0q9 0 16 4.5T59.5 16 64 32v5l63 64q1 0 1 1v24q0 1-.5 1.5t-1.5.5h-24q-1 0-1-1l-7-6-7 6q0 1-1 1t-1-1l-16-16q-1 0-1-1t1-1l6-7-9-9-7 6q0 1-1 1t-1-1L41 83q-1 0-1-1t1-1l6-7-10-10h-5q-9 0-16-4.5T4.5 48 0 32t4.5-16T16 4.5 32 0zm0 4q-8 0-14 4T8 18 4 32t4 14 10 10 14 4h5q1-1 2 0l12 13q1 0 1 1t-1 1l-6 7 13 13 7-6q0-1 1-1t1 1l12 12q1 0 1 1t-1 1l-6 7 13 13 7-6q0-1 1-1t1 1l8 7h21v-21L60 39q-1-1-1-2l1-5q0-8-4-14T46 8 32 4zm-10 8q4 0 7 3t3 7-3 7-7 3-7-3-3-7 3-7 7-3zm0 4q-2 0-4 2t-2 4 2 4 4 2 4-2 2-4-2-4-4-2z"/></svg>