<svg xmlns="http://www.w3.org/2000/svg" viewBox="0 0 80 80"><path fill="currentColor" d="M60 42q1 3 3 4.5t5 1.5 5.5-2.5T76 40t-2.5-5.5T68 32t-5 1.5-3 4.5H44l17-26q1 2 3 3.5t4.5 1 5-2.5T76 8.5t-2.5-6-5-2.5T64 1t-3 4L40 36 20 5q-2-2-4-3.5T11.5 0t-5 2.5-2.5 6 2.5 6 5 2.5 4.5-1.5 3-3.5l17 26H20q-1-3-3-4.5T12 32t-5.5 2.5-2.5 6T6.5 46t5.5 2 5-1.5 3-4.5h16L19 68q-1-2-3-3t-5-1-5 2-2 5.5 2 6 5 2.5 5-1 3-4l21-31 20 31q1 2 3 3.5t5 1.5 5.5-2.5 2.5-6-2.5-6-5-2.5-4.5 1.5-4 3.5L44 42h16zm8-6q2 0 3 1t1 3-1 3-3 1-3-1-1-3 1-3 3-1zm-56 8q-2 0-3-1t-1-3 1-3 3-1 3 1 1 3-1 3-3 1zM68 4q2 0 3 1.5t1 3-1 3-3 1.5-3-1.5-1-3 1-3T68 4zm-56 9q-2 0-3-1.5t-1-3 1-3T12 4t3 1.5 1 3-1 3-3 1.5zm0 63q-2 0-3-1.5t-1-3 1-3 3-1.5 3 1.5 1 3-1 3-3 1.5zm56-9q2 0 3 1.5t1 3-1 3-3 1.5-3-1.5-1-3 1-3 3-1.5z"/></svg>