<svg xmlns="http://www.w3.org/2000/svg" viewBox="0 0 80 80"><path fill="currentColor" d="M40 51q-4 0-7-2.5t-3-7 3-7.5 6-2.5 4.5 1 1.5 1-.5 1.5-1 1H40q-2-1-4 1t-2 4.5 2 4 4 1.5 4-1.5 2-4.5v-3q0-1 1-1h1q1 0 1 1l1 3q0 5-3 7.5T40 51zm30-34H10q-4 0-7 3t-3 7v20q0 4 2 7t6 3v2q0 1 1 2.5t3 1.5h8q2 0 3-1.5t1-2.5v-1h32v1q0 1 1 2.5t3 1.5h8q2 0 3-1.5t1-2.5v-2q4 0 6-3t2-6V27q0-4-3-7t-7-3zM20 58h-8 8zm40 0h8-8zm10-4H10q-2 0-4-2t-2-5V29h52q1 0 1.5-.5T58 27t-.5-1.5T56 25H4l2.5-2.5L10 21h60q2 0 3.5 1.5L76 25H66q-1 0-1.5.5T64 27t.5 1.5 1.5.5h10v19q0 2-2 4t-4 2zM37 42q0 1 1 2t2 1 2-1 1-2.5-1-2-2-.5-2 .5-1 2.5z"/></svg>