<svg xmlns="http://www.w3.org/2000/svg" viewBox="0 0 128 128"><path fill="currentColor" d="M126 89q2 2 2 6v24q0 4-2.5 6.5T119 128q-24 0-45.5-9T35 93 9 54.5 0 9q0-4 2.5-6.5T9 0h24q4 0 6.5 2.5T42 9q0 12 3 23 1 3 .5 5.5T43 41L29 55q8 14 18.5 25T72 98l14-14q4-3 9-2 12 4 24 4 4 0 7 3zm-7 1q-13 0-25-4-3-1-5 1l-15 15q-1 1-3 0-15-7-26.5-19T25 56q-1-1 0-2l16-16q1 0 1-1.5V34h-1q-3-12-3-25 0-2-1.5-3.5T33 4H9Q7 4 5.5 5.5T4 9q0 23 8.5 44t25 37.5 37.5 25 44 8.5q2 0 3.5-1.5t1.5-3.5V95q0-2-1.5-3.5T119 90z"/></svg>