<svg xmlns="http://www.w3.org/2000/svg" viewBox="0 0 80 80"><path fill="currentColor" d="M52 80H19V10q0-4 2.5-7T28 0h34v70q0 4-3 7t-7 3zm-29-4h29q2 0 4-1.5t2-4.5V4H28q-2 0-4 1.5T22 10v66h1zm25-40H32q-2 0-4-1.5T26 30V16q0-3 2-4.5t5-1.5h15q2 0 4 1.5t2 4.5v14q0 3-2 4.5T48 36zM33 14q-1 0-2 .5T30 16v14q0 1 .5 1.5t1.5.5h16l1-.5 1-1.5V16q0-1-1-1.5t-2-.5H33zm8 57h-2q-1 0-1.5-.5T37 69t.5-1.5T39 67h2q1 0 1.5.5T43 69t-.5 1.5-1.5.5zm-4-27q0 1 1 2t2 1 2-1 1-2-1-2-2-1-2 1-1 2zm10 0q0 1 1 2t2 1 2-1 1-2-1-2-2-1-2 1-1 2zm-20 0q0 1 1 2t2 1 2-1 1-2-1-2-2-1-2 1-1 2zm10 9q0 1 1 2t2 1 2-1 1-2-1-2-2-1-2 1-1 2zm10 0q0 1 1 2t2 1 2-1 1-2-1-2-2-1-2 1-1 2zm-20 0q0 1 1 2t2 1 2-1 1-2-1-2-2-1-2 1-1 2zm10 9q0 1 1 2t2 1 2-1 1-2-1-2-2-1-2 1-1 2zm10 0q0 1 1 2t2 1 2-1 1-2-1-2-2-1-2 1-1 2zm-20 0q0 1 1 2t2 1 2-1 1-2-1-2-2-1-2 1-1 2z"/></svg>