<svg xmlns="http://www.w3.org/2000/svg" viewBox="-1 0 128 128"><path fill="currentColor" d="M34 8q1 0 1.5.5T36 10v20q0 1-.5 1.5T34 32t-1.5-.5T32 30V13Q15 24 8 42.5T6 80q4 13 12.5 23T39 118.5t25 5.5q1 0 1.5.5t.5 1.5-.5 1.5-1.5.5q-14 0-27-6t-22-16.5T2 81q-5-19 1.5-38T27 12H14q-1 0-1.5-.5T12 10t.5-1.5T14 8h20zm30-8q14 0 26.5 6t22 16.5T125 46q6 20-.5 39T101 116h13q1 0 1.5.5t.5 1.5-.5 1.5-1.5.5H94q-1 0-1.5-.5T92 118V98q0-1 .5-1.5T94 96t1.5.5.5 1.5v17q11-7 18-18t9-24-1.5-25.5-12-22.5T89 9.5 64 4q-1 0-1.5-.5T62 2t.5-1.5T64 0z"/></svg>