<svg xmlns="http://www.w3.org/2000/svg" viewBox="0 0 80 80"><path fill="currentColor" d="M55 59q6 0 10-4t4-9V14q0-5-4-9T55 1H25q-6 0-10 3.5T11 14v31q0 6 4 10t10 5h13v3q-2 1-3.5 2.5T32 70H11v3h21q1 3 3 4.5t4.5 1.5 5-1.5T48 73h21v-4H48q-1-4-6-5v-5h13zM44 71q0 2-1.5 3t-3 1-2.5-1-1-2.5 1-3 2.5-1.5 3 1.5T44 71zm21-25q0 4-2.5 7T56 56H25q-4 0-7-3t-3-7V15q0-5 3-7.5T25 5h31q4 0 6.5 3t2.5 7v31zM52 20q0-3-2.5-5T44 13h-9q-3 0-5.5 2T27 20q-3 0-5.5 3T19 30v10q0 4 2.5 7t6.5 3h23q4 0 7-3t3-7V30q0-4-2.5-7T52 20zm5 20q0 2-1 3.5T53 45v-6h-4v7h-3v-7h-4v7h-3v-7h-4v7h-3v-7h-4v7q-2-1-3.5-2.5T23 40V30q0-3 1.5-4.5T28 24h3v-3q0-2 1.5-3t2.5-1h9q2 0 3 1t1 3v3h3q3 0 4.5 1.5T57 30v10z"/></svg>