<svg id="Layer_1" data-name="Layer 1" xmlns="http://www.w3.org/2000/svg" viewBox="0 0 32 32"><defs><style>.cls-1{fill:#fff;}</style></defs><path class="cls-1" d="M31.22,12.57a17.21,17.21,0,0,0-.56-3.79,4,4,0,0,0-3-3,13.47,13.47,0,0,0-2.39-.35c-1.78-.1-4.13-.22-6.5-.28-3.4-.07-6.89,0-10.37.18-1.32.08-2.51.2-3.63.37A4.1,4.1,0,0,0,1.28,9c-.11.7-.21,1.4-.29,2.1A49.87,49.87,0,0,0,.71,18a25,25,0,0,0,.57,4.93,4.08,4.08,0,0,0,3.47,3.35,28.21,28.21,0,0,0,3.38.35c1.87.08,3.74.14,5.61.19l2.25.07h0c2.91,0,6-.12,9.16-.34a14.51,14.51,0,0,0,2.57-.38,3.93,3.93,0,0,0,3-3.21,37.08,37.08,0,0,0,.58-6.15C31.32,15.28,31.27,13.81,31.22,12.57ZM21,16.41l-7.71,4.45a.43.43,0,0,1-.25.07.47.47,0,0,1-.25-.07.5.5,0,0,1-.25-.43v-8.9a.5.5,0,0,1,.25-.43.5.5,0,0,1,.5,0L21,15.55a.49.49,0,0,1,.25.43A.5.5,0,0,1,21,16.41Z"/></svg>