<svg id="Background_Brand_Triangles" data-name="Background/Brand Triangles" xmlns="http://www.w3.org/2000/svg" width="3112" height="450" viewBox="0 0 3112 450">
  <g id="Brand_Triangles" data-name="Brand Triangles" transform="translate(847 -991)" opacity="0.25" style="isolation: isolate">
    <g id="Groupe_410" data-name="Groupe 410" transform="translate(-68.835 1440.663) rotate(-90)" opacity="0.486">
      <g id="Polygone_1" data-name="Polygone 1" transform="translate(256.663 110.835)" fill="none">
        <path d="M64,0l64,111H0Z" stroke="none"/>
        <path d="M 63.99999618530273 4.004043579101562 L 3.461784362792969 109 L 124.5382080078125 109 L 63.99999618530273 4.004043579101562 M 63.99999618530273 0 L 128 111 L -7.62939453125e-06 111 L 63.99999618530273 0 Z" stroke="none" fill="#85d9fd"/>
      </g>
      <g id="Polygone_2" data-name="Polygone 2" transform="translate(320.663 221.835)" fill="none">
        <path d="M64.5,0,129,111H0Z" stroke="none"/>
        <path d="M 64.5 3.980766296386719 L 3.475311279296875 109 L 125.5246887207031 109 L 64.5 3.980766296386719 M 64.5 0 L 129 111 L 0 111 L 64.5 0 Z" stroke="none" fill="#85d9fd"/>
      </g>
      <g id="Polygone_8" data-name="Polygone 8" transform="translate(62.663 442.835)" fill="none">
        <path d="M65,0l65,113H0Z" stroke="none"/>
        <path d="M 65 4.011131286621094 L 3.457725524902344 111 L 126.5422744750977 111 L 65 4.011131286621094 M 65 0 L 130 113 L 0 113 L 65 0 Z" stroke="none" fill="#85d9fd"/>
      </g>
      <g id="Polygone_3" data-name="Polygone 3" transform="translate(192.663 221.835)" fill="none">
        <path d="M64,0l64,111H0Z" stroke="none"/>
        <path d="M 63.99999618530273 4.004043579101562 L 3.461784362792969 109 L 124.5382080078125 109 L 63.99999618530273 4.004043579101562 M 63.99999618530273 0 L 128 111 L -7.62939453125e-06 111 L 63.99999618530273 0 Z" stroke="none" fill="#85d9fd"/>
      </g>
      <g id="Polygone_4" data-name="Polygone 4" transform="translate(127.663 110.835)" fill="none">
        <path d="M64.5,0,129,111H0Z" stroke="none"/>
        <path d="M 64.5 3.980766296386719 L 3.475311279296875 109 L 125.5246887207031 109 L 64.5 3.980766296386719 M 64.5 0 L 129 111 L 0 111 L 64.5 0 Z" stroke="none" fill="#85d9fd"/>
      </g>
      <g id="Polygone_5" data-name="Polygone 5" transform="translate(127.663 -0.165)" fill="none">
        <path d="M128.5,0,257,222H0Z" stroke="none"/>
        <path d="M 128.5 3.992340087890625 L 3.468536376953125 220 L 253.5314636230469 220 L 128.5 3.992340087890625 M 128.5 0 L 257 222 L 0 222 L 128.5 0 Z" stroke="none" fill="#85d9fd"/>
      </g>
      <g id="Polygone_6" data-name="Polygone 6" transform="translate(192.663 332.835)" fill="none">
        <path d="M128.5,0,257,221H0Z" stroke="none"/>
        <path d="M 128.5 3.978851318359375 L 3.476394653320312 219 L 253.5236053466797 219 L 128.5 3.978851318359375 M 128.5 0 L 257 221 L 0 221 L 128.5 0 Z" stroke="none" fill="#85d9fd"/>
      </g>
      <g id="Polygone_9" data-name="Polygone 9" transform="translate(-0.337 222.835)" fill="none">
        <path d="M128.5,0,257,220H0Z" stroke="none"/>
        <path d="M 128.5 3.965469360351562 L 3.484375 218 L 253.515625 218 L 128.5 3.965469360351562 M 128.5 0 L 257 220 L 0 220 L 128.5 0 Z" stroke="none" fill="#85d9fd"/>
      </g>
      <g id="Polygone_7" data-name="Polygone 7" transform="translate(63.663 555.835)" fill="none">
        <path d="M129,0,258,222H0Z" stroke="none"/>
        <path d="M 129 3.98077392578125 L 3.475311279296875 220 L 254.5246887207031 220 L 129 3.98077392578125 M 129 0 L 258 222 L 0 222 L 129 0 Z" stroke="none" fill="#85d9fd"/>
      </g>
    </g>
    <g id="Groupe_418" data-name="Groupe 418" transform="translate(-846.835 1440.663) rotate(-90)" opacity="0.486">
      <g id="Polygone_1-2" data-name="Polygone 1" transform="translate(256.663 110.835)" fill="none">
        <path d="M64,0l64,111H0Z" stroke="none"/>
        <path d="M 63.99999618530273 4.004043579101562 L 3.461784362792969 109 L 124.5382080078125 109 L 63.99999618530273 4.004043579101562 M 63.99999618530273 0 L 128 111 L -7.62939453125e-06 111 L 63.99999618530273 0 Z" stroke="none" fill="#85d9fd"/>
      </g>
      <g id="Polygone_2-2" data-name="Polygone 2" transform="translate(320.663 221.835)" fill="none">
        <path d="M64.5,0,129,111H0Z" stroke="none"/>
        <path d="M 64.5 3.980766296386719 L 3.475311279296875 109 L 125.5246887207031 109 L 64.5 3.980766296386719 M 64.5 0 L 129 111 L 0 111 L 64.5 0 Z" stroke="none" fill="#85d9fd"/>
      </g>
      <g id="Polygone_8-2" data-name="Polygone 8" transform="translate(62.663 442.835)" fill="none">
        <path d="M65,0l65,113H0Z" stroke="none"/>
        <path d="M 65 4.011131286621094 L 3.457725524902344 111 L 126.5422744750977 111 L 65 4.011131286621094 M 65 0 L 130 113 L 0 113 L 65 0 Z" stroke="none" fill="#85d9fd"/>
      </g>
      <g id="Polygone_3-2" data-name="Polygone 3" transform="translate(192.663 221.835)" fill="none">
        <path d="M64,0l64,111H0Z" stroke="none"/>
        <path d="M 63.99999618530273 4.004043579101562 L 3.461784362792969 109 L 124.5382080078125 109 L 63.99999618530273 4.004043579101562 M 63.99999618530273 0 L 128 111 L -7.62939453125e-06 111 L 63.99999618530273 0 Z" stroke="none" fill="#85d9fd"/>
      </g>
      <g id="Polygone_4-2" data-name="Polygone 4" transform="translate(127.663 110.835)" fill="none">
        <path d="M64.5,0,129,111H0Z" stroke="none"/>
        <path d="M 64.5 3.980766296386719 L 3.475311279296875 109 L 125.5246887207031 109 L 64.5 3.980766296386719 M 64.5 0 L 129 111 L 0 111 L 64.5 0 Z" stroke="none" fill="#85d9fd"/>
      </g>
      <g id="Polygone_5-2" data-name="Polygone 5" transform="translate(127.663 -0.165)" fill="none">
        <path d="M128.5,0,257,222H0Z" stroke="none"/>
        <path d="M 128.5 3.992340087890625 L 3.468536376953125 220 L 253.5314636230469 220 L 128.5 3.992340087890625 M 128.5 0 L 257 222 L 0 222 L 128.5 0 Z" stroke="none" fill="#85d9fd"/>
      </g>
      <g id="Polygone_6-2" data-name="Polygone 6" transform="translate(192.663 332.835)" fill="none">
        <path d="M128.5,0,257,221H0Z" stroke="none"/>
        <path d="M 128.5 3.978851318359375 L 3.476394653320312 219 L 253.5236053466797 219 L 128.5 3.978851318359375 M 128.5 0 L 257 221 L 0 221 L 128.5 0 Z" stroke="none" fill="#85d9fd"/>
      </g>
      <g id="Polygone_9-2" data-name="Polygone 9" transform="translate(-0.337 222.835)" fill="none">
        <path d="M128.5,0,257,220H0Z" stroke="none"/>
        <path d="M 128.5 3.965469360351562 L 3.484375 218 L 253.515625 218 L 128.5 3.965469360351562 M 128.5 0 L 257 220 L 0 220 L 128.5 0 Z" stroke="none" fill="#85d9fd"/>
      </g>
      <g id="Polygone_7-2" data-name="Polygone 7" transform="translate(63.663 555.835)" fill="none">
        <path d="M129,0,258,222H0Z" stroke="none"/>
        <path d="M 129 3.98077392578125 L 3.475311279296875 220 L 254.5246887207031 220 L 129 3.98077392578125 M 129 0 L 258 222 L 0 222 L 129 0 Z" stroke="none" fill="#85d9fd"/>
      </g>
    </g>
    <g id="Groupe_411" data-name="Groupe 411" transform="translate(709.165 1440.663) rotate(-90)" opacity="0.486">
      <g id="Polygone_1-3" data-name="Polygone 1" transform="translate(256.663 110.835)" fill="none">
        <path d="M64,0l64,111H0Z" stroke="none"/>
        <path d="M 63.99999618530273 4.004043579101562 L 3.461784362792969 109 L 124.5382080078125 109 L 63.99999618530273 4.004043579101562 M 63.99999618530273 0 L 128 111 L -7.62939453125e-06 111 L 63.99999618530273 0 Z" stroke="none" fill="#85d9fd"/>
      </g>
      <g id="Polygone_2-3" data-name="Polygone 2" transform="translate(320.663 221.835)" fill="none">
        <path d="M64.5,0,129,111H0Z" stroke="none"/>
        <path d="M 64.5 3.980766296386719 L 3.475311279296875 109 L 125.5246887207031 109 L 64.5 3.980766296386719 M 64.5 0 L 129 111 L 0 111 L 64.5 0 Z" stroke="none" fill="#85d9fd"/>
      </g>
      <g id="Polygone_8-3" data-name="Polygone 8" transform="translate(62.663 442.835)" fill="none">
        <path d="M65,0l65,113H0Z" stroke="none"/>
        <path d="M 65 4.011131286621094 L 3.457725524902344 111 L 126.5422744750977 111 L 65 4.011131286621094 M 65 0 L 130 113 L 0 113 L 65 0 Z" stroke="none" fill="#85d9fd"/>
      </g>
      <g id="Polygone_3-3" data-name="Polygone 3" transform="translate(192.663 221.835)" fill="none">
        <path d="M64,0l64,111H0Z" stroke="none"/>
        <path d="M 63.99999618530273 4.004043579101562 L 3.461784362792969 109 L 124.5382080078125 109 L 63.99999618530273 4.004043579101562 M 63.99999618530273 0 L 128 111 L -7.62939453125e-06 111 L 63.99999618530273 0 Z" stroke="none" fill="#85d9fd"/>
      </g>
      <g id="Polygone_4-3" data-name="Polygone 4" transform="translate(127.663 110.835)" fill="none">
        <path d="M64.5,0,129,111H0Z" stroke="none"/>
        <path d="M 64.5 3.980766296386719 L 3.475311279296875 109 L 125.5246887207031 109 L 64.5 3.980766296386719 M 64.5 0 L 129 111 L 0 111 L 64.5 0 Z" stroke="none" fill="#85d9fd"/>
      </g>
      <g id="Polygone_5-3" data-name="Polygone 5" transform="translate(127.663 -0.165)" fill="none">
        <path d="M128.5,0,257,222H0Z" stroke="none"/>
        <path d="M 128.5 3.992340087890625 L 3.468536376953125 220 L 253.5314636230469 220 L 128.5 3.992340087890625 M 128.5 0 L 257 222 L 0 222 L 128.5 0 Z" stroke="none" fill="#85d9fd"/>
      </g>
      <g id="Polygone_6-3" data-name="Polygone 6" transform="translate(192.663 332.835)" fill="none">
        <path d="M128.5,0,257,221H0Z" stroke="none"/>
        <path d="M 128.5 3.978851318359375 L 3.476394653320312 219 L 253.5236053466797 219 L 128.5 3.978851318359375 M 128.5 0 L 257 221 L 0 221 L 128.5 0 Z" stroke="none" fill="#85d9fd"/>
      </g>
      <g id="Polygone_9-3" data-name="Polygone 9" transform="translate(-0.337 222.835)" fill="none">
        <path d="M128.5,0,257,220H0Z" stroke="none"/>
        <path d="M 128.5 3.965469360351562 L 3.484375 218 L 253.515625 218 L 128.5 3.965469360351562 M 128.5 0 L 257 220 L 0 220 L 128.5 0 Z" stroke="none" fill="#85d9fd"/>
      </g>
      <g id="Polygone_7-3" data-name="Polygone 7" transform="translate(63.663 555.835)" fill="none">
        <path d="M129,0,258,222H0Z" stroke="none"/>
        <path d="M 129 3.98077392578125 L 3.475311279296875 220 L 254.5246887207031 220 L 129 3.98077392578125 M 129 0 L 258 222 L 0 222 L 129 0 Z" stroke="none" fill="#85d9fd"/>
      </g>
    </g>
    <g id="Groupe_412" data-name="Groupe 412" transform="translate(1487.165 1440.663) rotate(-90)" opacity="0.486">
      <g id="Polygone_1-4" data-name="Polygone 1" transform="translate(256.663 110.835)" fill="none">
        <path d="M64,0l64,111H0Z" stroke="none"/>
        <path d="M 63.99999618530273 4.004043579101562 L 3.461784362792969 109 L 124.5382080078125 109 L 63.99999618530273 4.004043579101562 M 63.99999618530273 0 L 128 111 L -7.62939453125e-06 111 L 63.99999618530273 0 Z" stroke="none" fill="#85d9fd"/>
      </g>
      <g id="Polygone_2-4" data-name="Polygone 2" transform="translate(320.663 221.835)" fill="none">
        <path d="M64.5,0,129,111H0Z" stroke="none"/>
        <path d="M 64.5 3.980766296386719 L 3.475311279296875 109 L 125.5246887207031 109 L 64.5 3.980766296386719 M 64.5 0 L 129 111 L 0 111 L 64.5 0 Z" stroke="none" fill="#85d9fd"/>
      </g>
      <g id="Polygone_8-4" data-name="Polygone 8" transform="translate(62.663 442.835)" fill="none">
        <path d="M65,0l65,113H0Z" stroke="none"/>
        <path d="M 65 4.011131286621094 L 3.457725524902344 111 L 126.5422744750977 111 L 65 4.011131286621094 M 65 0 L 130 113 L 0 113 L 65 0 Z" stroke="none" fill="#85d9fd"/>
      </g>
      <g id="Polygone_3-4" data-name="Polygone 3" transform="translate(192.663 221.835)" fill="none">
        <path d="M64,0l64,111H0Z" stroke="none"/>
        <path d="M 63.99999618530273 4.004043579101562 L 3.461784362792969 109 L 124.5382080078125 109 L 63.99999618530273 4.004043579101562 M 63.99999618530273 0 L 128 111 L -7.62939453125e-06 111 L 63.99999618530273 0 Z" stroke="none" fill="#85d9fd"/>
      </g>
      <g id="Polygone_4-4" data-name="Polygone 4" transform="translate(127.663 110.835)" fill="none">
        <path d="M64.5,0,129,111H0Z" stroke="none"/>
        <path d="M 64.5 3.980766296386719 L 3.475311279296875 109 L 125.5246887207031 109 L 64.5 3.980766296386719 M 64.5 0 L 129 111 L 0 111 L 64.5 0 Z" stroke="none" fill="#85d9fd"/>
      </g>
      <g id="Polygone_5-4" data-name="Polygone 5" transform="translate(127.663 -0.165)" fill="none">
        <path d="M128.5,0,257,222H0Z" stroke="none"/>
        <path d="M 128.5 3.992340087890625 L 3.468536376953125 220 L 253.5314636230469 220 L 128.5 3.992340087890625 M 128.5 0 L 257 222 L 0 222 L 128.5 0 Z" stroke="none" fill="#85d9fd"/>
      </g>
      <g id="Polygone_6-4" data-name="Polygone 6" transform="translate(192.663 332.835)" fill="none">
        <path d="M128.5,0,257,221H0Z" stroke="none"/>
        <path d="M 128.5 3.978851318359375 L 3.476394653320312 219 L 253.5236053466797 219 L 128.5 3.978851318359375 M 128.5 0 L 257 221 L 0 221 L 128.5 0 Z" stroke="none" fill="#85d9fd"/>
      </g>
      <g id="Polygone_9-4" data-name="Polygone 9" transform="translate(-0.337 222.835)" fill="none">
        <path d="M128.5,0,257,220H0Z" stroke="none"/>
        <path d="M 128.5 3.965469360351562 L 3.484375 218 L 253.515625 218 L 128.5 3.965469360351562 M 128.5 0 L 257 220 L 0 220 L 128.5 0 Z" stroke="none" fill="#85d9fd"/>
      </g>
      <g id="Polygone_7-4" data-name="Polygone 7" transform="translate(63.663 555.835)" fill="none">
        <path d="M129,0,258,222H0Z" stroke="none"/>
        <path d="M 129 3.98077392578125 L 3.475311279296875 220 L 254.5246887207031 220 L 129 3.98077392578125 M 129 0 L 258 222 L 0 222 L 129 0 Z" stroke="none" fill="#85d9fd"/>
      </g>
    </g>
  </g>
</svg>
