<svg data-name="Background/Brand Triangles" xmlns="http://www.w3.org/2000/svg" width="3112" height="450"><g data-name="Brand Triangles" opacity=".3" style="isolation:isolate" fill="none"><g data-name="Groupe 410" opacity=".5"><g data-name="Polygone 1"><path d="m889 129 111-64v128Z"/><path d="m893 129 105 60.5v-121L893 129m-4 0 111-64v128l-111-64Z" fill="#85d9fd"/></g><g data-name="Polygone 2"><path d="M1000 64.5 1111 0v129Z"/><path d="m1004 64.5 105 61V3.5l-105 61m-4 0L1111 0v129l-111-64.5Z" fill="#85d9fd"/></g><g data-name="Polygone 8"><path d="m1221 322 113-65v130Z"/><path d="m1225 322 107 61.5v-123L1225 322m-4 0 113-65v130l-113-65Z" fill="#85d9fd"/></g><g data-name="Polygone 3"><path d="m1000 193 111-64v128Z"/><path d="m1004 193 105 60.5v-121L1004 193m-4 0 111-64v128l-111-64Z" fill="#85d9fd"/></g><g data-name="Polygone 4"><path d="m889 257.5 111-64.5v129Z"/><path d="m893 257.5 105 61v-122l-105 61m-4 0 111-64.5v129l-111-64.5Z" fill="#85d9fd"/></g><g data-name="Polygone 5"><path d="M778 193.5 1000 65v257Z"/><path d="m782 193.5 216 125v-250l-216 125m-4 0L1000 65v257L778 193.5Z" fill="#85d9fd"/></g><g data-name="Polygone 6"><path d="M1111 128.5 1332 0v257Z"/><path d="m1115 128.5 215 125V3.5l-215 125m-4 0L1332 0v257l-221-128.5Z" fill="#85d9fd"/></g><g data-name="Polygone 9"><path d="M1001 321.5 1221 193v257Z"/><path d="m1005 321.5 214 125v-250l-214 125m-4 0L1221 193v257l-220-128.5Z" fill="#85d9fd"/></g><g data-name="Polygone 7"><path d="m1334 257 222-129v258Z"/><path d="m1338 257 216 125.5v-251L1338 257m-4 0 222-129v258l-222-129Z" fill="#85d9fd"/></g></g><g data-name="Groupe 418" opacity=".5"><g data-name="Polygone 1"><path d="m111 129 111-64v128Z"/><path d="m115 129 105 60.5v-121L115 129m-4 0 111-64v128l-111-64Z" fill="#85d9fd"/></g><g data-name="Polygone 2"><path d="M222 64.5 333 0v129Z"/><path d="m226 64.5 105 61V3.5l-105 61m-4 0L333 0v129L222 64.5Z" fill="#85d9fd"/></g><g data-name="Polygone 8"><path d="m443 322 113-65v130Z"/><path d="m447 322 107 61.5v-123L447 322m-4 0 113-65v130l-113-65Z" fill="#85d9fd"/></g><g data-name="Polygone 3"><path d="m222 193 111-64v128Z"/><path d="m226 193 105 60.5v-121L226 193m-4 0 111-64v128l-111-64Z" fill="#85d9fd"/></g><g data-name="Polygone 4"><path d="M111 257.5 222 193v129Z"/><path d="m115 257.5 105 61v-122l-105 61m-4 0L222 193v129l-111-64.5Z" fill="#85d9fd"/></g><g data-name="Polygone 5"><path d="M0 193.5 222 65v257Z"/><path d="m4 193.5 216 125v-250L4 193.5m-4 0L222 65v257L0 193.5Z" fill="#85d9fd"/></g><g data-name="Polygone 6"><path d="M333 128.5 554 0v257Z"/><path d="m337 128.5 215 125V3.5l-215 125m-4 0L554 0v257L333 128.5Z" fill="#85d9fd"/></g><g data-name="Polygone 9"><path d="M223 321.5 443 193v257Z"/><path d="m227 321.5 214 125v-250l-214 125m-4 0L443 193v257L223 321.5Z" fill="#85d9fd"/></g><g data-name="Polygone 7"><path d="m556 257 222-129v258Z"/><path d="m560 257 216 125.5v-251L560 257m-4 0 222-129v258L556 257Z" fill="#85d9fd"/></g></g><g data-name="Groupe 411" opacity=".5"><g data-name="Polygone 1"><path d="m1667 129 111-64v128Z"/><path d="m1671 129 105 60.5v-121L1671 129m-4 0 111-64v128l-111-64Z" fill="#85d9fd"/></g><g data-name="Polygone 2"><path d="M1778 64.5 1889 0v129Z"/><path d="m1782 64.5 105 61V3.5l-105 61m-4 0L1889 0v129l-111-64.5Z" fill="#85d9fd"/></g><g data-name="Polygone 8"><path d="m1999 322 113-65v130Z"/><path d="m2003 322 107 61.5v-123L2003 322m-4 0 113-65v130l-113-65Z" fill="#85d9fd"/></g><g data-name="Polygone 3"><path d="m1778 193 111-64v128Z"/><path d="m1782 193 105 60.5v-121L1782 193m-4 0 111-64v128l-111-64Z" fill="#85d9fd"/></g><g data-name="Polygone 4"><path d="m1667 257.5 111-64.5v129Z"/><path d="m1671 257.5 105 61v-122l-105 61m-4 0 111-64.5v129l-111-64.5Z" fill="#85d9fd"/></g><g data-name="Polygone 5"><path d="M1556 193.5 1778 65v257Z"/><path d="m1560 193.5 216 125v-250l-216 125m-4 0L1778 65v257l-222-128.5Z" fill="#85d9fd"/></g><g data-name="Polygone 6"><path d="M1889 128.5 2110 0v257Z"/><path d="m1893 128.5 215 125V3.5l-215 125m-4 0L2110 0v257l-221-128.5Z" fill="#85d9fd"/></g><g data-name="Polygone 9"><path d="M1779 321.5 1999 193v257Z"/><path d="m1783 321.5 214 125v-250l-214 125m-4 0L1999 193v257l-220-128.5Z" fill="#85d9fd"/></g><g data-name="Polygone 7"><path d="m2112 257 222-129v258Z"/><path d="m2116 257 216 125.5v-251L2116 257m-4 0 222-129v258l-222-129Z" fill="#85d9fd"/></g></g><g data-name="Groupe 412" opacity=".5"><g data-name="Polygone 1"><path d="m2445 129 111-64v128Z"/><path d="m2449 129 105 60.5v-121L2449 129m-4 0 111-64v128l-111-64Z" fill="#85d9fd"/></g><g data-name="Polygone 2"><path d="M2556 64.5 2667 0v129Z"/><path d="m2560 64.5 105 61V3.5l-105 61m-4 0L2667 0v129l-111-64.5Z" fill="#85d9fd"/></g><g data-name="Polygone 8"><path d="m2777 322 113-65v130Z"/><path d="m2781 322 107 61.5v-123L2781 322m-4 0 113-65v130l-113-65Z" fill="#85d9fd"/></g><g data-name="Polygone 3"><path d="m2556 193 111-64v128Z"/><path d="m2560 193 105 60.5v-121L2560 193m-4 0 111-64v128l-111-64Z" fill="#85d9fd"/></g><g data-name="Polygone 4"><path d="m2445 257.5 111-64.5v129Z"/><path d="m2449 257.5 105 61v-122l-105 61m-4 0 111-64.5v129l-111-64.5Z" fill="#85d9fd"/></g><g data-name="Polygone 5"><path d="M2334 193.5 2556 65v257Z"/><path d="m2338 193.5 216 125v-250l-216 125m-4 0L2556 65v257l-222-128.5Z" fill="#85d9fd"/></g><g data-name="Polygone 6"><path d="M2667 128.5 2888 0v257Z"/><path d="m2671 128.5 215 125V3.5l-215 125m-4 0L2888 0v257l-221-128.5Z" fill="#85d9fd"/></g><g data-name="Polygone 9"><path d="M2557 321.5 2777 193v257Z"/><path d="m2561 321.5 214 125v-250l-214 125m-4 0L2777 193v257l-220-128.5Z" fill="#85d9fd"/></g><g data-name="Polygone 7"><path d="m2890 257 222-129v258Z"/><path d="m2894 257 216 125.5v-251L2894 257m-4 0 222-129v258l-222-129Z" fill="#85d9fd"/></g></g></g></svg>