<svg xmlns="http://www.w3.org/2000/svg" xmlns:xlink="http://www.w3.org/1999/xlink" width="251.611" height="224.381" viewBox="0 0 251.611 224.381"><defs><style>.a,.c,.d,.g{fill:none;}.b{stroke:#00d8ff;stroke-width:6px;fill:url(#a);}.c{stroke:#00fff5;}.c,.d{stroke-width:5px;}.d{stroke:#044eff;}.e{clip-path:url(#b);}.f{fill:#0031bb;}.g{stroke:#034fff;stroke-linecap:round;stroke-width:7px;}.h{fill:url(#c);}.i{fill:url(#d);}.j{fill:#00d8ff;}.k{fill:#020ba1;}.l{stroke:none;}</style><linearGradient id="a" x1="0.5" x2="0.5" y2="1" gradientUnits="objectBoundingBox"><stop offset="0" stop-color="#1f4aff"/><stop offset="1" stop-color="#02078e"/></linearGradient><clipPath id="b"><rect class="a" width="109.301" height="32.887"/></clipPath><linearGradient id="c" x1="0.168" y1="0.763" x2="0.916" y2="0.08" gradientUnits="objectBoundingBox"><stop offset="0" stop-color="#044fff"/><stop offset="1" stop-color="#459bff"/></linearGradient><linearGradient id="d" x1="0.653" y1="0.359" x2="0.13" y2="1" gradientUnits="objectBoundingBox"><stop offset="0" stop-color="#020ba1"/><stop offset="1" stop-color="#010651"/></linearGradient></defs><g transform="translate(-1168 -76.422)"><g transform="translate(1168 93.425)"><g class="b" transform="translate(0 9.673)"><rect class="l" width="150.894" height="197.705" rx="20"/><rect class="a" x="3" y="3" width="144.894" height="191.705" rx="17"/></g><g class="c" transform="translate(19.258 58.675)"><circle class="l" cx="15.087" cy="15.087" r="15.087"/><circle class="a" cx="15.087" cy="15.087" r="12.587"/></g><g class="d" transform="translate(19.258 101.812)"><circle class="l" cx="15.087" cy="15.087" r="15.087"/><circle class="a" cx="15.087" cy="15.087" r="12.587"/></g><g class="d" transform="translate(19.258 149.131)"><circle class="l" cx="15.087" cy="15.087" r="15.087"/><circle class="a" cx="15.087" cy="15.087" r="12.587"/></g><path class="c" d="M727-2568.867l7.463,7.463,16.547-17.52" transform="translate(-700.051 2640.114)"/><line class="c" x2="64.423" transform="translate(65.101 64.98)"/><line class="d" x2="64.423" transform="translate(65.101 107.549)"/><line class="d" x2="64.423" transform="translate(65.101 151.36)"/><line class="c" x2="64.423" transform="translate(65.101 74.499)"/><line class="d" x2="64.423" transform="translate(65.101 117.067)"/><line class="d" x2="64.423" transform="translate(65.101 160.879)"/><line class="c" x2="64.423" transform="translate(65.101 84.018)"/><line class="d" x2="64.423" transform="translate(65.101 126.586)"/><line class="d" x2="64.423" transform="translate(65.101 173.053)"/><g class="e" transform="translate(24.182 0)"><g transform="translate(-1209 -60)"><circle class="f" cx="6.5" cy="6.5" r="6.5" transform="translate(1212 78.521)"/><line class="g" y2="21.521" transform="translate(1218.5 63.5)"/></g><g transform="translate(-1188 -60)"><circle class="f" cx="6.5" cy="6.5" r="6.5" transform="translate(1212 78.521)"/><line class="g" y2="21.521" transform="translate(1218.5 63.5)"/></g><g transform="translate(-1167 -60)"><circle class="f" cx="6.5" cy="6.5" r="6.5" transform="translate(1212 78.521)"/><line class="g" y2="21.521" transform="translate(1218.5 63.5)"/></g><g transform="translate(-1146 -60)"><circle class="f" cx="6.5" cy="6.5" r="6.5" transform="translate(1212 78.521)"/><line class="g" y2="21.521" transform="translate(1218.5 63.5)"/></g><g transform="translate(-1125 -60)"><circle class="f" cx="6.5" cy="6.5" r="6.5" transform="translate(1212 78.521)"/><line class="g" y2="21.521" transform="translate(1218.5 63.5)"/></g><g transform="translate(-1104 -60)"><circle class="f" cx="6.5" cy="6.5" r="6.5" transform="translate(1212 78.521)"/><line class="g" y2="21.521" transform="translate(1218.5 63.5)"/></g></g></g><g transform="translate(1277.967 76.422)"><path class="h" d="M0,0H128.647V182.229H0Z" transform="translate(12.876 1.527)"/><path class="i" d="M0,196.061V22.759S.791,12.2,4.174,8.118A59.7,59.7,0,0,1,13.015,0V180.849h125.34v15.212Z" transform="translate(0 1.342)"/><path class="j" d="M1631.9-2043l-12.032,10.673h129.669L1760.524-2043Z" transform="translate(-1618.88 2226.346)"/><rect class="j" width="86.087" height="17.411" rx="8.705" transform="translate(35.123 32.245)"/><rect class="j" width="44.494" height="9.673" rx="4.836" transform="translate(56.403 60.492)"/><rect class="j" width="44.494" height="8.705" rx="4.353" transform="translate(56.403 77.268)"/><path class="k" d="M1704.5-2366.579v44.2l10.082-7.193,10.29,7.193v-44.2Z" transform="translate(-1655.694 2366.579)"/></g></g></svg>